{"glyphs":{"0":{"ha":833,"x_min":83,"x_max":750,"o":"m 417 -17 q 163 115 243 -17 q 83 485 83 247 q 163 854 83 722 q 417 986 243 986 q 670 854 590 986 q 750 485 750 722 q 670 115 750 247 q 417 -17 590 -17 m 417 85 q 514 108 474 85 q 579 175 554 132 q 616 276 604 218 q 628 406 628 335 l 628 564 q 616 693 628 635 q 579 794 604 751 q 514 861 554 838 q 417 885 474 885 q 319 861 360 885 q 254 794 279 838 q 217 693 229 751 q 206 564 206 635 l 206 406 q 217 276 206 335 q 254 175 229 218 q 319 108 279 132 q 417 85 360 85 z "},"1":{"ha":833,"x_min":71,"x_max":760,"o":"m 122 0 l 122 103 l 393 103 l 393 883 l 383 883 l 139 656 l 71 729 l 328 969 l 510 969 l 510 103 l 760 103 l 760 0 l 122 0 z "},"2":{"ha":833,"x_min":96,"x_max":740,"o":"m 740 0 l 104 0 l 104 119 l 421 411 q 535 544 489 474 q 581 685 581 614 l 581 701 q 536 832 581 782 q 401 882 492 882 q 324 869 357 882 q 266 835 290 857 q 226 783 242 813 q 200 718 210 753 l 96 758 q 134 842 110 801 q 195 915 158 883 q 284 967 232 947 q 407 986 336 986 q 533 965 478 986 q 626 907 589 944 q 684 818 664 869 q 704 704 704 767 q 688 599 704 647 q 644 506 672 550 q 577 421 617 463 q 492 338 538 379 l 231 103 l 740 103 l 740 0 z "},"3":{"ha":833,"x_min":58,"x_max":701,"o":"m 363 558 q 510 603 461 558 q 560 719 560 649 l 560 729 q 512 844 560 806 q 386 882 464 882 q 264 849 311 882 q 186 761 217 817 l 100 828 q 144 885 118 857 q 204 936 169 914 q 285 972 239 958 q 389 986 331 986 q 504 970 450 986 q 598 923 558 954 q 660 846 638 892 q 683 742 683 800 q 669 657 683 694 q 629 592 654 619 q 570 544 604 564 q 497 515 536 525 l 497 510 q 573 483 536 501 q 638 434 610 464 q 684 362 667 404 q 701 265 701 319 q 678 151 701 203 q 611 62 654 99 q 507 4 568 25 q 372 -17 446 -17 q 261 -3 310 -17 q 175 35 213 11 q 109 88 138 58 q 58 149 81 117 l 146 215 q 185 163 164 186 q 233 122 207 139 q 293 97 260 106 q 371 88 326 88 q 526 134 474 88 q 579 267 579 181 l 579 278 q 526 410 579 364 q 371 457 474 457 l 257 457 l 257 558 l 363 558 z "},"4":{"ha":833,"x_min":53,"x_max":772,"o":"m 521 0 l 521 190 l 53 190 l 53 293 l 458 969 l 632 969 l 632 288 l 772 288 l 772 190 l 632 190 l 632 0 l 521 0 m 163 288 l 521 288 l 521 879 l 514 879 l 163 288 z "},"5":{"ha":833,"x_min":107,"x_max":736,"o":"m 692 867 l 267 867 l 239 497 l 249 497 q 327 575 283 546 q 447 604 371 604 q 563 583 510 604 q 654 524 615 563 q 715 431 693 486 q 736 304 736 375 q 714 174 736 233 q 649 73 692 115 q 547 7 607 31 q 410 -17 486 -17 q 302 -3 349 -17 q 219 35 256 11 q 156 88 183 58 q 107 149 129 117 l 194 215 q 233 163 213 186 q 277 122 253 139 q 333 97 301 106 q 410 88 365 88 q 561 140 510 88 q 613 289 613 193 l 613 303 q 561 451 613 399 q 410 504 510 504 q 305 480 343 504 q 236 422 267 456 l 138 436 l 172 969 l 692 969 l 692 867 z "},"6":{"ha":833,"x_min":93,"x_max":740,"o":"m 418 -17 q 283 9 343 -17 q 180 83 222 35 q 115 200 138 131 q 93 356 93 269 q 125 559 93 464 q 208 733 157 654 q 319 872 258 811 q 439 969 381 932 l 589 969 q 450 858 511 913 q 343 745 389 804 q 265 619 297 686 q 214 467 233 551 l 221 464 q 310 563 256 524 q 454 603 365 603 q 569 582 517 603 q 660 522 622 561 q 719 428 697 483 q 740 304 740 372 q 717 174 740 233 q 652 73 694 115 q 550 7 610 31 q 418 -17 490 -17 m 417 85 q 566 138 513 85 q 619 289 619 190 l 619 300 q 566 451 619 399 q 417 504 513 504 q 267 451 321 504 q 214 300 214 399 l 214 289 q 267 138 214 190 q 417 85 321 85 z "},"7":{"ha":833,"x_min":96,"x_max":732,"o":"m 243 0 l 614 869 l 200 869 l 200 689 l 96 689 l 96 969 l 732 969 l 732 867 l 368 0 l 243 0 z "},"8":{"ha":833,"x_min":81,"x_max":753,"o":"m 417 -17 q 271 5 333 -17 q 166 64 208 26 q 102 153 124 101 q 81 264 81 204 q 135 422 81 364 q 276 504 189 481 l 276 515 q 155 601 200 542 q 110 743 110 660 q 190 920 110 854 q 417 986 271 986 q 643 920 563 986 q 724 743 724 854 q 678 601 724 660 q 557 515 633 542 l 557 504 q 699 422 644 481 q 753 264 753 364 q 731 153 753 204 q 667 64 710 101 q 563 5 625 26 q 417 -17 500 -17 m 417 85 q 574 130 518 85 q 629 258 629 175 l 629 288 q 574 416 629 371 q 417 461 518 461 q 260 416 315 461 q 204 288 204 371 l 204 258 q 260 130 204 175 q 417 85 315 85 m 417 558 q 556 597 508 558 q 603 711 603 636 l 603 732 q 556 846 603 807 q 417 885 508 885 q 278 846 325 885 q 231 732 231 807 l 231 711 q 278 597 231 636 q 417 558 325 558 z "},"9":{"ha":833,"x_min":93,"x_max":740,"o":"m 740 614 q 708 410 740 506 q 626 237 676 315 q 514 98 575 158 q 394 0 453 38 l 244 0 q 383 111 322 57 q 490 224 444 165 q 568 351 536 283 q 619 503 600 418 l 613 506 q 523 406 578 446 q 379 367 468 367 q 264 388 317 367 q 174 447 211 408 q 115 541 136 486 q 93 665 93 596 q 116 795 93 736 q 181 897 139 854 q 283 963 224 939 q 415 986 342 986 q 551 960 490 986 q 653 887 611 935 q 718 769 696 839 q 740 614 740 700 m 417 465 q 566 518 513 465 q 619 669 619 571 l 619 681 q 566 832 619 779 q 417 885 513 885 q 267 832 321 885 q 214 681 214 779 l 214 669 q 267 518 214 571 q 417 465 321 465 z "},"\u0000":{"ha":0,"x_min":0,"x_max":0,"o":""},"\r":{"ha":328,"x_min":0,"x_max":0,"o":""}," ":{"ha":328,"x_min":0,"x_max":0,"o":""},"a":{"ha":742,"x_min":61,"x_max":701,"o":"m 639 0 q 549 33 576 0 q 515 117 522 67 l 508 117 q 431 17 485 50 q 301 -17 376 -17 q 124 42 188 -17 q 61 200 61 100 q 135 356 61 301 q 367 410 210 410 l 508 410 l 508 481 q 467 597 508 557 q 339 638 425 638 q 230 608 274 638 q 157 531 186 579 l 90 593 q 183 692 119 651 q 344 733 247 733 q 547 669 475 733 q 619 492 619 606 l 619 97 l 701 97 l 701 0 l 639 0 m 319 78 q 396 88 361 78 q 456 115 431 97 q 494 157 481 133 q 508 208 508 181 l 508 326 l 361 326 q 222 299 265 326 q 178 218 178 271 l 178 189 q 216 107 178 136 q 319 78 254 78 z "},"b":{"ha":806,"x_min":118,"x_max":736,"o":"m 118 1028 l 229 1028 l 229 600 l 235 600 q 316 701 263 668 q 444 733 369 733 q 565 707 511 733 q 658 632 619 681 q 716 514 696 583 q 736 358 736 444 q 716 203 736 272 q 658 85 696 133 q 565 10 619 36 q 444 -17 511 -17 q 235 117 299 -17 l 229 117 l 229 0 l 118 0 l 118 1028 m 414 83 q 563 142 508 83 q 617 297 617 201 l 617 419 q 563 574 617 515 q 414 633 508 633 q 342 623 376 633 q 283 594 308 613 q 244 551 258 576 q 229 496 229 525 l 229 229 q 244 167 229 194 q 283 122 258 140 q 342 93 308 103 q 414 83 376 83 z "},"c":{"ha":699,"x_min":65,"x_max":660,"o":"m 385 -17 q 250 10 310 -17 q 149 85 190 36 q 87 203 108 133 q 65 358 65 272 q 87 514 65 444 q 149 632 108 583 q 250 707 190 681 q 385 733 310 733 q 556 687 492 733 q 653 565 621 640 l 560 518 q 496 604 540 574 q 385 635 451 635 q 297 619 335 635 q 235 574 260 603 q 197 506 210 546 q 185 419 185 467 l 185 297 q 235 142 185 203 q 385 82 286 82 q 579 207 519 82 l 660 153 q 556 29 625 75 q 385 -17 488 -17 z "},"d":{"ha":806,"x_min":69,"x_max":688,"o":"m 576 117 l 571 117 q 361 -17 506 -17 q 240 10 294 -17 q 148 85 186 36 q 90 203 110 133 q 69 358 69 272 q 90 514 69 444 q 148 632 110 583 q 240 707 186 681 q 361 733 294 733 q 490 701 436 733 q 571 600 543 668 l 576 600 l 576 1028 l 688 1028 l 688 0 l 576 0 l 576 117 m 392 83 q 463 93 429 83 q 522 122 497 103 q 562 167 547 140 q 576 229 576 194 l 576 496 q 562 551 576 525 q 522 594 547 576 q 463 623 497 613 q 392 633 429 633 q 243 574 297 633 q 189 419 189 515 l 189 297 q 243 142 189 201 q 392 83 297 83 z "},"e":{"ha":763,"x_min":65,"x_max":697,"o":"m 388 -17 q 255 10 314 -17 q 153 85 196 36 q 88 203 111 135 q 65 358 65 272 q 88 513 65 443 q 153 631 111 582 q 255 707 196 681 q 388 733 314 733 q 517 707 460 733 q 614 634 574 681 q 676 524 654 588 q 697 383 697 460 l 697 331 l 182 331 l 182 297 q 197 212 182 251 q 238 143 211 172 q 305 97 265 114 q 394 81 344 81 q 513 113 463 81 q 592 204 564 144 l 671 147 q 563 28 636 74 q 388 -17 489 -17 m 388 640 q 304 624 342 640 q 240 579 267 608 q 197 510 213 550 q 182 424 182 471 l 182 414 l 578 414 l 578 429 q 526 583 578 525 q 388 640 474 640 z "},"f":{"ha":450,"x_min":40,"x_max":422,"o":"m 157 619 l 40 619 l 40 717 l 157 717 l 157 861 q 196 982 157 936 q 314 1028 235 1028 l 422 1028 l 422 931 l 268 931 l 268 717 l 422 717 l 422 619 l 268 619 l 268 0 l 157 0 l 157 619 z "},"g":{"ha":733,"x_min":60,"x_max":722,"o":"m 722 -79 q 635 -242 722 -190 q 375 -294 549 -294 q 133 -249 207 -294 q 60 -118 60 -203 q 90 -27 60 -60 q 174 21 121 6 l 174 36 q 110 136 110 67 q 144 219 110 190 q 233 261 179 247 l 233 267 q 134 354 169 297 q 99 486 99 411 q 118 586 99 540 q 173 665 138 632 q 258 715 208 697 q 368 733 307 733 q 504 706 444 733 l 504 718 q 524 787 504 760 q 588 814 543 814 l 694 814 l 694 717 l 558 717 l 558 671 q 619 591 597 638 q 640 486 640 544 q 621 386 640 432 q 566 308 601 340 q 481 257 531 275 q 369 239 431 239 q 300 246 335 239 q 235 217 264 236 q 206 165 206 199 q 236 122 206 133 q 315 111 267 111 l 468 111 q 662 60 601 111 q 722 -79 722 10 m 618 -87 q 585 -19 618 -44 q 469 7 553 7 l 231 7 q 164 -90 164 -24 q 199 -171 164 -137 q 319 -204 235 -204 l 422 -204 q 567 -175 515 -204 q 618 -87 618 -146 m 369 328 q 482 362 440 328 q 524 467 524 396 l 524 506 q 482 610 524 576 q 369 644 440 644 q 257 610 299 644 q 215 506 215 576 l 215 467 q 257 362 215 396 q 369 328 299 328 z "},"h":{"ha":789,"x_min":118,"x_max":678,"o":"m 118 1028 l 229 1028 l 229 600 l 235 600 q 309 697 261 661 q 438 733 357 733 q 613 662 549 733 q 678 460 678 590 l 678 0 l 567 0 l 567 440 q 404 633 567 633 q 340 625 371 633 q 283 600 308 617 q 244 558 258 583 q 229 497 229 532 l 229 0 l 118 0 l 118 1028 z "},"i":{"ha":347,"x_min":106,"x_max":242,"o":"m 174 885 q 122 902 138 885 q 106 947 106 919 l 106 965 q 122 1010 106 993 q 174 1028 138 1028 q 226 1010 210 1028 q 242 965 242 993 l 242 947 q 226 902 242 919 q 174 885 210 885 m 118 717 l 229 717 l 229 0 l 118 0 l 118 717 z "},"j":{"ha":347,"x_min":1,"x_max":242,"o":"m 118 717 l 229 717 l 229 -111 q 192 -232 229 -186 q 74 -278 154 -278 l 1 -278 l 1 -181 l 118 -181 l 118 717 m 174 885 q 122 902 138 885 q 106 947 106 919 l 106 965 q 122 1010 106 993 q 174 1028 138 1028 q 226 1010 210 1028 q 242 965 242 993 l 242 947 q 226 902 242 919 q 174 885 210 885 z "},"k":{"ha":732,"x_min":118,"x_max":708,"o":"m 118 1028 l 229 1028 l 229 376 l 235 376 l 344 499 l 547 717 l 682 717 l 417 433 l 708 0 l 574 0 l 336 365 l 229 256 l 229 0 l 118 0 l 118 1028 z "},"l":{"ha":378,"x_min":118,"x_max":335,"o":"m 236 0 q 148 33 178 0 q 118 115 118 65 l 118 1028 l 229 1028 l 229 97 l 335 97 l 335 0 l 236 0 z "},"m":{"ha":1213,"x_min":118,"x_max":1101,"o":"m 118 0 l 118 717 l 229 717 l 229 600 l 235 600 q 263 652 247 628 q 302 694 279 676 q 356 723 325 713 q 428 733 386 733 q 558 699 499 733 q 647 588 618 665 l 650 588 q 723 690 669 646 q 868 733 776 733 q 1040 662 978 733 q 1101 460 1101 590 l 1101 0 l 990 0 l 990 440 q 953 585 990 536 q 833 633 915 633 q 770 625 800 633 q 717 600 740 617 q 679 558 693 583 q 665 497 665 532 l 665 0 l 554 0 l 554 440 q 517 585 554 536 q 400 633 479 633 q 336 625 367 633 q 282 600 306 617 q 244 558 258 583 q 229 497 229 532 l 229 0 l 118 0 z "},"n":{"ha":789,"x_min":118,"x_max":678,"o":"m 118 0 l 118 717 l 229 717 l 229 600 l 235 600 q 309 697 261 661 q 438 733 357 733 q 613 662 549 733 q 678 460 678 590 l 678 0 l 567 0 l 567 440 q 404 633 567 633 q 340 625 371 633 q 283 600 308 617 q 244 558 258 583 q 229 497 229 532 l 229 0 l 118 0 z "},"o":{"ha":778,"x_min":65,"x_max":713,"o":"m 389 -17 q 257 10 317 -17 q 155 85 197 36 q 89 203 113 135 q 65 358 65 272 q 89 513 65 443 q 155 631 113 582 q 257 707 197 681 q 389 733 317 733 q 520 707 461 733 q 622 631 579 681 q 689 513 665 582 q 713 358 713 443 q 689 203 713 272 q 622 85 665 135 q 520 10 579 36 q 389 -17 461 -17 m 389 82 q 536 138 479 82 q 593 307 593 193 l 593 410 q 536 579 593 524 q 389 635 479 635 q 242 579 299 635 q 185 410 185 524 l 185 307 q 242 138 185 193 q 389 82 299 82 z "},"p":{"ha":806,"x_min":118,"x_max":736,"o":"m 118 717 l 229 717 l 229 600 l 235 600 q 316 701 263 668 q 444 733 369 733 q 565 707 511 733 q 658 632 619 681 q 716 514 696 583 q 736 358 736 444 q 716 203 736 272 q 658 85 696 133 q 565 10 619 36 q 444 -17 511 -17 q 235 117 299 -17 l 229 117 l 229 -278 l 118 -278 l 118 717 m 414 83 q 563 142 508 83 q 617 297 617 201 l 617 419 q 563 574 617 515 q 414 633 508 633 q 342 623 376 633 q 283 594 308 613 q 244 551 258 576 q 229 496 229 525 l 229 229 q 244 167 229 194 q 283 122 258 140 q 342 93 308 103 q 414 83 376 83 z "},"q":{"ha":806,"x_min":69,"x_max":688,"o":"m 576 117 l 571 117 q 361 -17 506 -17 q 240 10 294 -17 q 148 85 186 36 q 90 203 110 133 q 69 358 69 272 q 90 514 69 444 q 148 632 110 583 q 240 707 186 681 q 361 733 294 733 q 490 701 436 733 q 571 600 543 668 l 576 600 l 576 717 l 688 717 l 688 -278 l 576 -278 l 576 117 m 392 83 q 463 93 429 83 q 522 122 497 103 q 562 167 547 140 q 576 229 576 194 l 576 496 q 562 551 576 525 q 522 594 547 576 q 463 623 497 613 q 392 633 429 633 q 243 574 297 633 q 189 419 189 515 l 189 297 q 243 142 189 201 q 392 83 297 83 z "},"r":{"ha":510,"x_min":118,"x_max":486,"o":"m 118 0 l 118 717 l 229 717 l 229 585 l 236 585 q 306 676 256 636 q 443 717 356 717 l 486 717 l 486 606 l 421 606 q 280 572 331 606 q 229 486 229 538 l 229 0 l 118 0 z "},"s":{"ha":676,"x_min":50,"x_max":599,"o":"m 333 -17 q 166 22 233 -17 q 50 124 99 60 l 129 188 q 222 106 171 135 q 342 78 274 78 q 452 108 413 78 q 492 194 492 139 q 465 266 492 236 q 367 307 438 296 l 310 315 q 218 337 260 322 q 145 376 176 351 q 97 436 114 400 q 79 522 79 472 q 99 615 79 575 q 152 681 118 654 q 233 720 186 707 q 335 733 281 733 q 481 703 422 733 q 585 618 540 672 l 511 551 q 442 612 488 585 q 326 639 396 639 q 222 609 257 639 q 186 528 186 579 q 222 451 186 475 q 324 417 257 428 l 379 408 q 549 340 499 390 q 599 207 599 289 q 528 43 599 103 q 333 -17 457 -17 z "},"t":{"ha":488,"x_min":40,"x_max":426,"o":"m 276 0 q 188 33 218 0 q 158 118 158 65 l 158 619 l 40 619 l 40 717 l 107 717 q 156 731 143 717 q 169 782 169 746 l 169 915 l 269 915 l 269 717 l 426 717 l 426 619 l 269 619 l 269 97 l 415 97 l 415 0 l 276 0 z "},"u":{"ha":789,"x_min":111,"x_max":671,"o":"m 560 117 l 554 117 q 527 67 543 92 q 488 24 511 43 q 431 -6 464 6 q 353 -17 397 -17 q 176 55 242 -17 q 111 257 111 126 l 111 717 l 222 717 l 222 276 q 386 83 222 83 q 451 92 419 83 q 506 117 482 100 q 545 159 531 133 q 560 221 560 185 l 560 717 l 671 717 l 671 0 l 560 0 l 560 117 z "},"v":{"ha":683,"x_min":25,"x_max":658,"o":"m 276 0 l 25 717 l 136 717 l 261 361 l 339 117 l 346 117 l 424 361 l 551 717 l 658 717 l 406 0 l 276 0 z "},"w":{"ha":1067,"x_min":43,"x_max":1024,"o":"m 43 717 l 151 717 l 228 407 l 304 93 l 307 93 l 394 407 l 485 717 l 583 717 l 676 407 l 765 93 l 768 93 l 842 407 l 919 717 l 1024 717 l 833 0 l 696 0 l 596 344 l 533 563 l 531 563 l 469 344 l 369 0 l 235 0 l 43 717 z "},"x":{"ha":704,"x_min":29,"x_max":675,"o":"m 29 0 l 294 361 l 40 717 l 171 717 l 353 450 l 357 450 l 546 717 l 669 717 l 417 369 l 675 0 l 544 0 l 358 281 l 354 281 l 153 0 l 29 0 z "},"y":{"ha":693,"x_min":24,"x_max":669,"o":"m 560 717 l 669 717 l 349 -167 q 324 -220 336 -199 q 293 -254 311 -242 q 248 -272 275 -267 q 182 -278 221 -278 l 125 -278 l 125 -181 l 238 -181 l 292 -28 l 24 717 l 135 717 l 307 229 l 340 113 l 347 113 l 386 229 l 560 717 z "},"z":{"ha":644,"x_min":46,"x_max":599,"o":"m 46 0 l 46 93 l 453 619 l 58 619 l 58 717 l 588 717 l 588 633 l 172 97 l 599 97 l 599 0 l 46 0 z "},"A":{"ha":890,"x_min":32,"x_max":858,"o":"m 736 0 l 639 286 l 247 286 l 150 0 l 32 0 l 371 969 l 519 969 l 858 0 l 736 0 m 446 861 l 439 861 l 275 389 l 610 389 l 446 861 z "},"B":{"ha":907,"x_min":129,"x_max":819,"o":"m 129 969 l 528 969 q 717 901 649 969 q 786 719 786 833 q 771 628 786 665 q 732 566 756 590 q 681 530 708 542 q 629 514 653 518 l 629 506 q 688 492 656 504 q 750 452 721 479 q 799 383 779 425 q 819 281 819 340 q 801 169 819 221 q 749 81 782 118 q 669 22 715 43 q 569 0 624 0 l 129 0 l 129 969 m 246 103 l 533 103 q 651 141 608 103 q 694 253 694 179 l 694 300 q 651 412 694 374 q 533 450 608 450 l 246 450 l 246 103 m 246 550 l 514 550 q 622 585 583 550 q 661 685 661 619 l 661 732 q 622 832 661 797 q 514 867 583 867 l 246 867 l 246 550 z "},"C":{"ha":863,"x_min":81,"x_max":811,"o":"m 471 -17 q 183 109 286 -17 q 81 479 81 235 q 183 855 81 724 q 471 986 286 986 q 676 931 593 986 q 804 774 758 875 l 710 717 q 621 837 681 792 q 471 882 561 882 q 359 858 408 882 q 276 791 310 835 q 224 687 242 747 q 206 551 206 626 l 206 407 q 275 172 206 257 q 471 88 344 88 q 626 135 564 88 q 718 263 689 183 l 811 204 q 679 42 765 101 q 471 -17 593 -17 z "},"D":{"ha":932,"x_min":129,"x_max":851,"o":"m 129 969 l 454 969 q 618 939 544 969 q 744 848 692 908 q 824 697 796 788 q 851 485 851 606 q 824 273 851 364 q 744 122 796 182 q 618 31 692 61 q 454 0 544 0 l 129 0 l 129 969 m 454 103 q 564 123 514 103 q 650 182 614 143 q 706 277 686 221 q 726 406 726 333 l 726 564 q 706 692 726 636 q 650 788 686 749 q 564 847 614 826 q 454 867 514 867 l 246 867 l 246 103 l 454 103 z "},"E":{"ha":810,"x_min":129,"x_max":721,"o":"m 129 0 l 129 969 l 721 969 l 721 867 l 246 867 l 246 542 l 693 542 l 693 439 l 246 439 l 246 103 l 721 103 l 721 0 l 129 0 z "},"F":{"ha":776,"x_min":129,"x_max":707,"o":"m 129 0 l 129 969 l 707 969 l 707 867 l 246 867 l 246 542 l 667 542 l 667 439 l 246 439 l 246 0 l 129 0 z "},"G":{"ha":965,"x_min":81,"x_max":865,"o":"m 757 142 l 753 142 q 665 28 735 74 q 483 -17 594 -17 q 320 16 394 -17 q 193 112 246 49 q 110 269 140 175 q 81 485 81 363 q 110 699 81 606 q 193 856 139 793 q 324 953 247 919 q 493 986 400 986 q 711 928 624 986 q 846 774 799 869 l 750 715 q 651 838 717 793 q 493 882 585 882 q 376 859 429 882 q 285 794 324 836 q 226 694 247 753 q 206 564 206 636 l 206 407 q 226 276 206 335 q 285 175 247 217 q 379 110 324 133 q 504 88 435 88 q 599 101 554 88 q 678 140 644 114 q 732 206 713 167 q 751 300 751 246 l 751 396 l 538 396 l 538 499 l 865 499 l 865 0 l 757 0 l 757 142 z "},"H":{"ha":982,"x_min":129,"x_max":853,"o":"m 736 439 l 246 439 l 246 0 l 129 0 l 129 969 l 246 969 l 246 542 l 736 542 l 736 969 l 853 969 l 853 0 l 736 0 l 736 439 z "},"I":{"ha":556,"x_min":83,"x_max":472,"o":"m 83 0 l 83 97 l 219 97 l 219 872 l 83 872 l 83 969 l 472 969 l 472 872 l 336 872 l 336 97 l 472 97 l 472 0 l 83 0 z "},"J":{"ha":708,"x_min":39,"x_max":586,"o":"m 586 969 l 586 251 q 566 140 586 190 q 509 56 546 90 q 421 2 472 21 q 308 -17 369 -17 q 127 44 196 -17 q 39 204 58 104 l 144 229 q 197 127 158 167 q 311 88 236 88 q 428 133 386 88 q 469 272 469 179 l 469 867 l 136 867 l 136 969 l 586 969 z "},"K":{"ha":881,"x_min":129,"x_max":850,"o":"m 383 476 l 246 324 l 246 0 l 129 0 l 129 969 l 246 969 l 246 454 l 250 454 l 389 622 l 682 969 l 825 969 l 464 554 l 850 0 l 706 0 l 383 476 z "},"L":{"ha":696,"x_min":129,"x_max":658,"o":"m 129 0 l 129 969 l 246 969 l 246 103 l 658 103 l 658 0 l 129 0 z "},"M":{"ha":1128,"x_min":129,"x_max":999,"o":"m 885 817 l 878 817 l 796 654 l 564 232 l 332 654 l 250 817 l 243 817 l 243 0 l 129 0 l 129 969 l 285 969 l 563 447 l 569 447 l 849 969 l 999 969 l 999 0 l 885 0 l 885 817 z "},"N":{"ha":982,"x_min":129,"x_max":853,"o":"m 364 592 l 247 807 l 243 807 l 243 0 l 129 0 l 129 969 l 264 969 l 618 378 l 735 163 l 739 163 l 739 969 l 853 969 l 853 0 l 718 0 l 364 592 z "},"O":{"ha":983,"x_min":81,"x_max":903,"o":"m 492 -17 q 322 16 397 -17 q 192 112 246 49 q 110 269 139 175 q 81 485 81 363 q 110 700 81 607 q 192 857 139 793 q 322 953 246 921 q 492 986 397 986 q 661 953 585 986 q 791 857 738 921 q 874 700 844 793 q 903 485 903 607 q 874 269 903 363 q 791 112 844 175 q 661 16 738 49 q 492 -17 585 -17 m 492 88 q 607 110 554 88 q 698 174 660 132 q 757 274 736 215 q 778 404 778 332 l 778 565 q 757 696 778 638 q 698 796 736 754 q 607 860 660 838 q 492 882 554 882 q 376 860 429 882 q 285 796 324 838 q 226 696 247 754 q 206 565 206 638 l 206 404 q 226 274 206 332 q 285 174 247 215 q 376 110 324 132 q 492 88 429 88 z "},"P":{"ha":842,"x_min":129,"x_max":786,"o":"m 129 0 l 129 969 l 515 969 q 716 895 646 969 q 786 692 786 821 q 716 488 786 563 q 515 414 646 414 l 246 414 l 246 0 l 129 0 m 246 517 l 515 517 q 623 553 585 517 q 661 656 661 589 l 661 728 q 623 831 661 794 q 515 867 585 867 l 246 867 l 246 517 z "},"Q":{"ha":983,"x_min":81,"x_max":903,"o":"m 706 -228 l 563 -228 q 475 -195 504 -228 q 446 -114 446 -162 l 446 -15 q 294 29 363 -7 q 179 128 226 65 q 106 281 132 192 q 81 485 81 371 q 110 700 81 607 q 192 857 139 793 q 322 953 246 921 q 492 986 397 986 q 661 953 585 986 q 791 857 738 921 q 874 700 844 793 q 903 485 903 607 q 810 135 903 261 q 557 -12 717 10 l 557 -131 l 706 -131 l 706 -228 m 492 88 q 607 110 554 88 q 698 174 660 132 q 757 274 736 215 q 778 404 778 332 l 778 565 q 757 696 778 638 q 698 796 736 754 q 607 860 660 838 q 492 882 554 882 q 376 860 429 882 q 285 796 324 838 q 226 696 247 754 q 206 565 206 638 l 206 404 q 226 274 206 332 q 285 174 247 215 q 376 110 324 132 q 492 88 429 88 z "},"R":{"ha":889,"x_min":129,"x_max":814,"o":"m 246 0 l 129 0 l 129 969 l 515 969 q 715 899 643 969 q 786 694 786 828 q 737 519 786 588 q 592 428 688 450 l 814 0 l 682 0 l 472 417 l 246 417 l 246 0 m 515 517 q 623 553 585 517 q 661 656 661 589 l 661 728 q 623 831 661 794 q 515 867 585 867 l 246 867 l 246 517 l 515 517 z "},"S":{"ha":807,"x_min":58,"x_max":735,"o":"m 401 -17 q 200 28 283 -17 q 58 153 117 74 l 144 225 q 258 122 196 157 q 406 86 321 86 q 565 136 510 86 q 619 269 619 186 q 578 376 619 339 q 440 436 536 414 l 361 454 q 158 547 228 485 q 88 721 88 608 q 111 835 88 785 q 177 918 135 885 q 278 969 219 951 q 408 986 338 986 q 597 946 518 986 q 729 828 675 906 l 642 764 q 544 851 601 819 q 403 883 488 883 q 256 844 310 883 q 203 725 203 804 q 248 620 203 656 q 385 564 293 585 l 464 546 q 671 449 607 514 q 735 275 735 383 q 712 154 735 208 q 646 63 689 100 q 541 4 603 25 q 401 -17 479 -17 z "},"T":{"ha":794,"x_min":31,"x_max":764,"o":"m 456 867 l 456 0 l 339 0 l 339 867 l 31 867 l 31 969 l 764 969 l 764 867 l 456 867 z "},"U":{"ha":942,"x_min":122,"x_max":819,"o":"m 239 969 l 239 369 q 290 159 239 231 q 471 88 342 88 q 651 159 600 88 q 703 369 703 231 l 703 969 l 819 969 l 819 397 q 801 214 819 292 q 740 85 782 136 q 631 8 699 33 q 467 -17 564 -17 q 303 8 369 -17 q 197 85 238 33 q 140 214 157 136 q 122 397 122 292 l 122 969 l 239 969 z "},"V":{"ha":846,"x_min":28,"x_max":818,"o":"m 350 0 l 28 969 l 153 969 l 313 481 l 419 117 l 426 117 l 536 481 l 697 969 l 818 969 l 492 0 l 350 0 z "},"W":{"ha":1238,"x_min":28,"x_max":1210,"o":"m 264 0 l 28 969 l 151 969 l 256 503 l 336 140 l 339 140 l 429 503 l 551 969 l 685 969 l 803 503 l 893 142 l 897 142 l 981 503 l 1090 969 l 1210 969 l 961 0 l 832 0 l 706 483 l 617 839 l 614 839 l 522 483 l 393 0 l 264 0 z "},"X":{"ha":851,"x_min":33,"x_max":818,"o":"m 818 0 l 678 0 l 424 407 l 421 407 l 167 0 l 33 0 l 350 493 l 42 969 l 182 969 l 425 583 l 428 583 l 676 969 l 810 969 l 499 497 l 818 0 z "},"Y":{"ha":824,"x_min":18,"x_max":806,"o":"m 351 0 l 351 383 l 18 969 l 151 969 l 410 503 l 414 503 l 672 969 l 806 969 l 468 388 l 468 0 l 351 0 z "},"Z":{"ha":806,"x_min":50,"x_max":756,"o":"m 756 0 l 50 0 l 50 106 l 610 867 l 79 867 l 79 969 l 736 969 l 736 864 l 175 103 l 756 103 l 756 0 z "},"&":{"ha":964,"x_min":100,"x_max":928,"o":"m 679 114 q 640 73 664 96 q 583 31 617 50 q 502 -3 549 11 q 397 -17 456 -17 q 269 4 325 -17 q 176 62 214 25 q 119 147 139 99 q 100 251 100 196 q 117 347 100 306 q 162 422 133 389 q 226 479 190 454 q 299 525 261 504 q 219 633 249 578 q 189 753 189 688 q 207 844 189 801 q 258 919 225 888 q 337 968 290 950 q 440 986 383 986 q 535 971 492 986 q 608 928 578 956 q 656 863 639 901 q 674 778 674 824 q 656 691 674 729 q 608 621 639 653 q 538 562 578 589 q 451 510 497 535 l 669 275 q 701 388 690 328 q 715 510 713 447 l 904 510 l 904 415 l 806 415 q 779 301 796 354 q 739 201 763 247 l 928 0 l 783 0 l 679 114 m 435 893 q 337 856 375 893 q 299 763 299 818 l 299 746 q 324 662 299 704 q 392 572 350 619 q 456 610 425 590 q 512 654 488 631 q 551 703 536 678 q 567 758 567 729 l 567 775 q 527 863 567 832 q 435 893 488 893 m 407 81 q 529 108 478 81 q 617 181 581 135 l 357 461 q 303 429 329 446 q 258 390 278 413 q 227 337 239 367 q 215 267 215 307 l 215 246 q 267 125 215 169 q 407 81 319 81 z "},"@":{"ha":1238,"x_min":90,"x_max":1147,"o":"m 943 -168 l 621 -168 q 403 -128 501 -168 q 236 -13 306 -87 q 128 166 167 61 q 90 400 90 271 q 129 636 90 529 q 239 820 168 743 q 410 940 310 897 q 633 983 510 983 q 824 953 731 983 q 988 860 917 924 q 1103 694 1060 796 q 1147 449 1147 592 q 1134 313 1147 376 q 1092 201 1121 249 q 1017 124 1063 153 q 906 96 971 96 q 806 129 839 96 q 765 215 772 163 l 760 215 q 692 128 732 160 q 588 96 651 96 q 495 115 539 96 q 418 171 451 133 q 365 266 385 208 q 346 401 346 324 q 365 537 346 479 q 418 632 385 594 q 495 688 451 669 q 588 707 539 707 q 689 676 651 707 q 746 600 726 644 l 751 600 l 751 694 l 847 694 l 847 272 q 866 199 847 218 q 924 181 885 181 q 1022 247 989 181 q 1056 431 1056 314 l 1056 494 q 1023 661 1056 586 q 933 789 990 736 q 799 871 876 842 q 632 900 721 900 q 450 865 532 900 q 308 769 368 831 q 216 624 249 707 q 183 446 183 542 l 183 364 q 215 183 183 265 q 305 42 247 101 q 443 -51 363 -18 q 622 -83 524 -83 l 943 -83 l 943 -168 m 607 188 q 716 222 681 188 q 751 321 751 257 l 751 490 q 717 579 751 543 q 607 615 682 615 q 497 572 532 615 q 463 457 463 529 l 463 346 q 497 231 463 274 q 607 188 532 188 z "},"-":{"ha":554,"x_min":96,"x_max":458,"o":"m 96 363 l 96 482 l 458 482 l 458 363 l 96 363 z "},"­":{"ha":554,"x_min":96,"x_max":458,"o":"m 96 363 l 96 482 l 458 482 l 458 363 l 96 363 z "},"–":{"ha":817,"x_min":50,"x_max":767,"o":"m 50 369 l 50 475 l 767 475 l 767 369 l 50 369 z "},"—":{"ha":1083,"x_min":50,"x_max":1033,"o":"m 50 369 l 50 475 l 1033 475 l 1033 369 l 50 369 z "},"_":{"ha":785,"x_min":42,"x_max":743,"o":"m 42 -229 l 42 -132 l 743 -132 l 743 -229 l 42 -229 z "},".":{"ha":378,"x_min":104,"x_max":274,"o":"m 189 -17 q 124 6 144 -17 q 104 64 104 28 l 104 82 q 124 140 104 118 q 189 163 144 163 q 253 140 233 163 q 274 82 274 118 l 274 64 q 253 6 274 28 q 189 -17 233 -17 z "},"…":{"ha":1115,"x_min":104,"x_max":1011,"o":"m 189 -17 q 124 6 144 -17 q 104 64 104 28 l 104 82 q 124 140 104 118 q 189 163 144 163 q 253 140 233 163 q 274 82 274 118 l 274 64 q 253 6 274 28 q 189 -17 233 -17 m 557 -17 q 492 6 513 -17 q 472 64 472 28 l 472 82 q 492 140 472 118 q 557 163 513 163 q 622 140 601 163 q 642 82 642 118 l 642 64 q 622 6 642 28 q 557 -17 601 -17 m 926 -17 q 862 6 882 -17 q 842 64 842 28 l 842 82 q 862 140 842 118 q 926 163 882 163 q 991 140 971 163 q 1011 82 1011 118 l 1011 64 q 991 6 1011 28 q 926 -17 971 -17 z "},":":{"ha":406,"x_min":118,"x_max":288,"o":"m 203 -17 q 138 6 158 -17 q 118 64 118 28 l 118 82 q 138 140 118 118 q 203 163 158 163 q 267 140 247 163 q 288 82 288 118 l 288 64 q 267 6 288 28 q 203 -17 247 -17 m 203 554 q 138 576 158 554 q 118 635 118 599 l 118 653 q 138 711 118 689 q 203 733 158 733 q 267 711 247 733 q 288 653 288 689 l 288 635 q 267 576 288 599 q 203 554 247 554 z "},",":{"ha":378,"x_min":54,"x_max":274,"o":"m 189 163 q 253 140 233 163 q 274 81 274 117 l 274 61 q 240 -65 274 4 q 147 -185 207 -133 l 54 -185 q 122 -101 96 -140 q 158 -12 147 -61 q 117 14 131 -6 q 104 61 104 33 l 104 81 q 124 140 104 117 q 189 163 144 163 z "},";":{"ha":406,"x_min":68,"x_max":288,"o":"m 203 163 q 267 140 247 163 q 288 81 288 117 l 288 61 q 254 -65 288 4 q 161 -185 221 -133 l 68 -185 q 135 -101 110 -140 q 172 -12 161 -61 q 131 14 144 -6 q 118 61 118 33 l 118 81 q 138 140 118 117 q 203 163 158 163 m 203 554 q 138 576 158 554 q 118 635 118 599 l 118 653 q 138 711 118 689 q 203 733 158 733 q 267 711 247 733 q 288 653 288 689 l 288 635 q 267 576 288 599 q 203 554 247 554 z "},";":{"ha":406,"x_min":68,"x_max":288,"o":"m 203 163 q 267 140 247 163 q 288 81 288 117 l 288 61 q 254 -65 288 4 q 161 -185 221 -133 l 68 -185 q 135 -101 110 -140 q 172 -12 161 -61 q 131 14 144 -6 q 118 61 118 33 l 118 81 q 138 140 118 117 q 203 163 158 163 m 203 547 q 138 569 158 547 q 118 628 118 592 l 118 646 q 138 704 118 682 q 203 726 158 726 q 267 704 247 726 q 288 646 288 682 l 288 628 q 267 569 288 592 q 203 547 247 547 z "},"'":{"ha":336,"x_min":118,"x_max":218,"o":"m 118 639 l 118 1028 l 218 1028 l 218 639 l 118 639 z "},"\"":{"ha":582,"x_min":118,"x_max":464,"o":"m 118 639 l 118 1028 l 218 1028 l 218 639 l 118 639 m 364 639 l 364 1028 l 464 1028 l 464 639 l 364 639 z "},"′":{"ha":336,"x_min":78,"x_max":258,"o":"m 78 525 l 156 969 l 258 969 l 181 525 l 78 525 z "},"″":{"ha":582,"x_min":78,"x_max":504,"o":"m 78 525 l 156 969 l 258 969 l 181 525 l 78 525 m 324 525 l 401 969 l 504 969 l 426 525 l 324 525 z "},"‘":{"ha":379,"x_min":99,"x_max":318,"o":"m 183 681 q 119 703 139 681 q 99 763 99 726 l 99 782 q 132 908 99 839 q 225 1028 165 976 l 318 1028 q 251 944 276 983 q 214 856 225 904 q 255 829 242 849 q 268 782 268 810 l 268 763 q 248 703 268 726 q 183 681 228 681 z "},"’":{"ha":379,"x_min":61,"x_max":281,"o":"m 196 1042 q 260 1019 240 1042 q 281 960 281 996 l 281 940 q 247 815 281 883 q 154 694 214 746 l 61 694 q 128 778 103 739 q 165 867 154 818 q 124 893 138 874 q 111 940 111 913 l 111 960 q 131 1019 111 996 q 196 1042 151 1042 z "},"“":{"ha":660,"x_min":99,"x_max":599,"o":"m 183 681 q 119 703 139 681 q 99 763 99 726 l 99 782 q 132 908 99 839 q 225 1028 165 976 l 318 1028 q 251 944 276 983 q 214 856 225 904 q 255 829 242 849 q 268 782 268 810 l 268 763 q 248 703 268 726 q 183 681 228 681 m 464 681 q 399 703 419 681 q 379 763 379 726 l 379 782 q 413 908 379 839 q 506 1028 446 976 l 599 1028 q 531 944 557 983 q 494 856 506 904 q 535 829 522 849 q 549 782 549 810 l 549 763 q 528 703 549 726 q 464 681 508 681 z "},"”":{"ha":658,"x_min":61,"x_max":560,"o":"m 196 1042 q 260 1019 240 1042 q 281 960 281 996 l 281 940 q 247 815 281 883 q 154 694 214 746 l 61 694 q 128 778 103 739 q 165 867 154 818 q 124 893 138 874 q 111 940 111 913 l 111 960 q 131 1019 111 996 q 196 1042 151 1042 m 475 1042 q 540 1019 519 1042 q 560 960 560 996 l 560 940 q 526 815 560 883 q 433 694 493 746 l 340 694 q 408 778 382 739 q 444 867 433 818 q 403 893 417 874 q 390 940 390 913 l 390 960 q 410 1019 390 996 q 475 1042 431 1042 z "},"‚":{"ha":381,"x_min":49,"x_max":268,"o":"m 183 186 q 248 163 228 186 q 268 104 268 140 l 268 85 q 235 -41 268 28 q 142 -161 201 -110 l 49 -161 q 116 -77 90 -117 q 153 11 142 -37 q 112 38 125 18 q 99 85 99 57 l 99 104 q 119 163 99 140 q 183 186 139 186 z "},"„":{"ha":660,"x_min":49,"x_max":547,"o":"m 183 186 q 248 163 228 186 q 268 104 268 140 l 268 85 q 235 -41 268 28 q 142 -161 201 -110 l 49 -161 q 116 -77 90 -117 q 153 11 142 -37 q 112 38 125 18 q 99 85 99 57 l 99 104 q 119 163 99 140 q 183 186 139 186 m 463 186 q 527 163 507 186 q 547 104 547 140 l 547 85 q 514 -41 547 28 q 421 -161 481 -110 l 328 -161 q 395 -77 369 -117 q 432 11 421 -37 q 391 38 404 18 q 378 85 378 57 l 378 104 q 398 163 378 140 q 463 186 418 186 z "},"‹":{"ha":422,"x_min":50,"x_max":350,"o":"m 317 111 l 50 342 l 50 447 l 317 678 l 350 603 l 160 394 l 350 186 l 317 111 z "},"›":{"ha":422,"x_min":72,"x_max":372,"o":"m 72 186 l 263 394 l 72 603 l 106 678 l 372 447 l 372 342 l 106 111 l 72 186 z "},"«":{"ha":713,"x_min":50,"x_max":640,"o":"m 317 111 l 50 342 l 50 447 l 317 678 l 350 603 l 160 394 l 350 186 l 317 111 m 607 111 l 340 342 l 340 447 l 607 678 l 640 603 l 450 394 l 640 186 l 607 111 z "},"»":{"ha":713,"x_min":72,"x_max":663,"o":"m 72 186 l 263 394 l 72 603 l 106 678 l 372 447 l 372 342 l 106 111 l 72 186 m 363 186 l 553 394 l 363 603 l 396 678 l 663 447 l 663 342 l 396 111 l 363 186 z "},"¡":{"ha":394,"x_min":113,"x_max":282,"o":"m 135 -253 l 135 29 l 168 460 l 224 460 l 257 29 l 257 -253 l 135 -253 m 197 554 q 133 576 153 554 q 113 635 113 599 l 113 653 q 133 711 113 689 q 197 733 153 733 q 262 711 242 733 q 282 653 282 689 l 282 635 q 262 576 282 599 q 197 554 242 554 z "},"!":{"ha":394,"x_min":113,"x_max":282,"o":"m 169 257 l 136 688 l 136 969 l 258 969 l 258 688 l 225 257 l 169 257 m 197 -17 q 133 6 153 -17 q 113 64 113 28 l 113 82 q 133 140 113 118 q 197 163 153 163 q 262 140 242 163 q 282 82 282 118 l 282 64 q 262 6 282 28 q 197 -17 242 -17 z "},"¿":{"ha":649,"x_min":51,"x_max":631,"o":"m 331 -269 q 126 -199 201 -269 q 51 -7 51 -128 q 74 109 51 60 q 133 193 97 158 q 215 249 169 228 q 307 278 261 269 l 307 428 l 414 428 l 414 200 q 235 144 300 194 q 171 7 171 94 l 171 -12 q 215 -126 171 -83 q 335 -168 260 -168 q 463 -122 415 -168 q 528 -6 511 -76 l 631 -44 q 594 -130 618 -89 q 533 -202 569 -171 q 446 -251 496 -233 q 331 -269 396 -269 m 364 554 q 299 576 319 554 q 279 635 279 599 l 279 653 q 299 711 279 689 q 364 733 319 733 q 428 711 408 733 q 449 653 449 689 l 449 635 q 428 576 449 599 q 364 554 408 554 z "},"?":{"ha":663,"x_min":32,"x_max":611,"o":"m 249 289 l 249 517 q 427 572 363 522 q 492 710 492 622 l 492 729 q 447 842 492 800 q 328 885 403 885 q 199 839 247 885 q 135 722 151 793 l 32 761 q 69 847 44 806 q 130 919 93 888 q 217 968 167 950 q 332 986 267 986 q 536 915 461 986 q 611 724 611 844 q 588 608 611 657 q 529 524 565 558 q 447 468 493 489 q 356 439 401 447 l 356 289 l 249 289 m 303 -17 q 238 6 258 -17 q 218 64 218 28 l 218 82 q 238 140 218 118 q 303 163 258 163 q 367 140 347 163 q 388 82 388 118 l 388 64 q 367 6 388 28 q 303 -17 347 -17 z "},"(":{"ha":465,"x_min":115,"x_max":472,"o":"m 115 433 q 135 626 115 533 q 188 799 154 719 q 268 944 222 879 q 367 1056 314 1010 l 472 1056 q 367 936 414 1003 q 288 794 321 869 q 238 642 256 719 q 219 492 219 564 l 219 372 q 238 221 219 299 q 289 68 256 143 q 369 -74 322 -7 q 472 -190 415 -140 l 367 -190 q 269 -82 315 -147 q 190 64 224 -17 q 135 238 156 144 q 115 433 115 332 z "},")":{"ha":465,"x_min":-7,"x_max":350,"o":"m 350 433 q 330 238 350 332 q 276 64 310 144 q 196 -82 242 -17 q 99 -190 150 -147 l -7 -190 q 97 -74 50 -140 q 176 68 143 -7 q 228 221 210 143 q 246 372 246 299 l 246 492 q 228 642 246 564 q 177 794 210 719 q 98 936 144 869 q -7 1056 51 1003 l 99 1056 q 197 944 151 1010 q 277 799 243 879 q 331 626 311 719 q 350 433 350 533 z "},"[":{"ha":440,"x_min":129,"x_max":357,"o":"m 129 -192 l 129 1056 l 357 1056 l 357 968 l 225 968 l 225 -104 l 357 -104 l 357 -192 l 129 -192 z "},"]":{"ha":440,"x_min":83,"x_max":311,"o":"m 311 1056 l 311 -192 l 83 -192 l 83 -104 l 215 -104 l 215 968 l 83 968 l 83 1056 l 311 1056 z "},"{":{"ha":476,"x_min":31,"x_max":393,"o":"m 276 -192 q 193 -159 221 -192 q 165 -78 165 -126 l 165 256 q 127 347 165 315 q 31 378 89 378 l 31 486 q 127 517 89 486 q 165 608 165 549 l 165 942 q 193 1023 165 990 q 276 1056 221 1056 l 393 1056 l 393 968 l 261 968 l 261 621 q 224 505 261 556 q 129 443 188 454 l 129 421 q 224 359 188 410 q 261 243 261 308 l 261 -104 l 393 -104 l 393 -192 l 276 -192 z "},"}":{"ha":476,"x_min":83,"x_max":446,"o":"m 200 1056 q 283 1023 256 1056 q 311 942 311 990 l 311 608 q 349 517 311 549 q 446 486 388 486 l 446 378 q 349 347 388 378 q 311 256 311 315 l 311 -78 q 283 -159 311 -126 q 200 -192 256 -192 l 83 -192 l 83 -104 l 215 -104 l 215 243 q 252 359 215 308 q 347 421 289 410 l 347 443 q 252 505 289 454 q 215 621 215 556 l 215 968 l 83 968 l 83 1056 l 200 1056 z "},"/":{"ha":532,"x_min":13,"x_max":475,"o":"m 13 -210 l 375 1028 l 475 1028 l 113 -210 l 13 -210 z "},"\\":{"ha":532,"x_min":56,"x_max":515,"o":"m 415 -210 l 56 1028 l 156 1028 l 515 -210 l 415 -210 z "},"⁄":{"ha":204,"x_min":-282,"x_max":486,"o":"m -282 0 l 393 969 l 486 969 l -189 0 l -282 0 z "},"%":{"ha":1288,"x_min":90,"x_max":1197,"o":"m 254 0 l 926 969 l 1033 969 l 361 0 l 254 0 m 310 436 q 147 506 204 436 q 90 711 90 576 q 147 916 90 846 q 310 986 204 986 q 472 916 415 986 q 529 711 529 846 q 472 506 529 576 q 310 436 415 436 m 310 508 q 429 669 429 508 l 429 753 q 310 914 429 914 q 190 753 190 914 l 190 669 q 310 508 190 508 m 978 -17 q 815 53 872 -17 q 758 258 758 124 q 815 463 758 393 q 978 533 872 533 q 1140 463 1083 533 q 1197 258 1197 393 q 1140 53 1197 124 q 978 -17 1083 -17 m 978 56 q 1097 217 1097 56 l 1097 300 q 978 461 1097 461 q 858 300 858 461 l 858 217 q 978 56 858 56 z "},"‰":{"ha":1814,"x_min":90,"x_max":1724,"o":"m 254 0 l 926 969 l 1033 969 l 361 0 l 254 0 m 310 436 q 147 506 204 436 q 90 711 90 576 q 147 916 90 846 q 310 986 204 986 q 472 916 415 986 q 529 711 529 846 q 472 506 529 576 q 310 436 415 436 m 310 508 q 429 669 429 508 l 429 753 q 310 914 429 914 q 190 753 190 914 l 190 669 q 310 508 190 508 m 978 -17 q 815 53 872 -17 q 758 258 758 124 q 815 463 758 393 q 978 533 872 533 q 1140 463 1083 533 q 1197 258 1197 393 q 1140 53 1197 124 q 978 -17 1083 -17 m 978 56 q 1097 217 1097 56 l 1097 300 q 978 461 1097 461 q 858 300 858 461 l 858 217 q 978 56 858 56 m 1504 -17 q 1342 53 1399 -17 q 1285 258 1285 124 q 1342 463 1285 393 q 1504 533 1399 533 q 1667 463 1610 533 q 1724 258 1724 393 q 1667 53 1724 124 q 1504 -17 1610 -17 m 1504 56 q 1624 217 1624 56 l 1624 300 q 1504 461 1624 461 q 1385 300 1385 461 l 1385 217 q 1504 56 1385 56 z "},"|":{"ha":436,"x_min":171,"x_max":265,"o":"m 171 -192 l 171 1056 l 265 1056 l 265 -192 l 171 -192 z "},"¦":{"ha":436,"x_min":171,"x_max":265,"o":"m 171 564 l 171 1056 l 265 1056 l 265 564 l 171 564 m 171 -192 l 171 300 l 265 300 l 265 -192 l 171 -192 z "},"§":{"ha":814,"x_min":106,"x_max":708,"o":"m 660 6 q 640 -87 660 -46 q 583 -156 619 -128 q 497 -200 547 -185 q 385 -215 446 -215 q 262 -197 322 -215 q 153 -137 201 -179 l 217 -60 q 292 -103 250 -87 q 386 -119 333 -119 q 507 -87 464 -119 q 550 3 550 -54 q 512 86 550 56 q 406 138 474 117 l 318 164 q 156 251 206 197 q 106 376 106 306 q 145 494 106 443 q 257 575 185 546 l 257 585 q 183 660 211 615 q 154 767 154 704 q 174 857 154 817 q 229 926 193 897 q 316 971 265 956 q 428 986 367 986 q 551 968 490 986 q 661 908 613 950 l 596 831 q 521 874 563 858 q 426 890 479 890 q 306 858 349 890 q 263 768 263 825 q 301 685 263 715 q 407 633 339 654 l 494 607 q 658 519 607 574 q 708 394 708 465 q 669 276 708 328 q 556 196 629 225 l 556 188 q 633 110 606 156 q 660 6 660 65 m 599 365 q 559 460 599 424 q 436 521 519 497 l 350 544 q 328 551 339 547 q 306 560 317 556 q 240 492 264 531 q 215 406 215 454 q 254 310 215 347 q 376 250 293 274 l 463 226 q 485 219 474 224 q 507 211 496 215 q 574 279 549 242 q 599 365 599 317 z "},"¶":{"ha":906,"x_min":72,"x_max":792,"o":"m 342 417 q 236 439 285 417 q 151 499 188 461 q 93 586 114 536 q 72 693 72 636 q 93 799 72 749 q 151 888 114 850 q 236 947 188 925 q 342 969 285 969 l 792 969 l 792 875 l 699 875 l 699 -207 l 597 -207 l 597 875 l 443 875 l 443 -207 l 342 -207 l 342 417 z "},"©":{"ha":1078,"x_min":75,"x_max":1003,"o":"m 539 -15 q 357 19 442 -15 q 210 119 272 54 q 111 276 147 183 q 75 485 75 369 q 111 693 75 600 q 210 851 147 786 q 357 950 272 915 q 539 985 442 985 q 721 950 636 985 q 868 851 806 915 q 967 693 931 786 q 1003 485 1003 600 q 967 276 1003 369 q 868 119 931 183 q 721 19 806 54 q 539 -15 636 -15 m 539 68 q 688 97 619 68 q 805 175 756 125 q 881 294 854 225 q 908 443 908 363 l 908 526 q 881 676 908 607 q 805 794 854 744 q 688 873 756 844 q 539 901 619 901 q 390 873 457 901 q 273 794 322 844 q 197 676 224 744 q 169 526 169 607 l 169 443 q 197 294 169 363 q 273 175 224 225 q 390 97 322 125 q 539 68 457 68 m 550 215 q 381 288 442 215 q 321 485 321 361 q 381 681 321 608 q 550 754 442 754 q 666 721 621 754 q 735 633 711 688 l 656 589 q 615 646 640 625 q 550 667 590 667 q 458 628 489 667 q 426 529 426 590 l 426 439 q 458 340 426 378 q 550 301 489 301 q 621 324 594 301 q 668 385 647 347 l 743 338 q 672 250 719 285 q 550 215 624 215 z "},"®":{"ha":661,"x_min":56,"x_max":606,"o":"m 331 414 q 224 435 274 414 q 136 496 174 457 q 77 587 99 535 q 56 700 56 639 q 77 813 56 761 q 136 904 99 865 q 224 965 174 943 q 331 986 274 986 q 436 965 386 986 q 524 904 486 943 q 583 813 561 865 q 606 700 606 761 q 583 587 606 639 q 524 496 561 535 q 436 435 486 457 q 331 414 386 414 m 331 469 q 417 488 378 469 q 485 535 457 506 q 530 604 514 565 q 546 685 546 643 l 546 715 q 530 796 546 757 q 485 865 514 835 q 417 913 457 894 q 331 931 378 931 q 244 913 283 931 q 176 865 204 894 q 131 796 147 835 q 115 715 115 757 l 115 685 q 131 604 115 643 q 176 535 147 565 q 244 488 204 506 q 331 469 283 469 m 282 550 l 226 550 l 226 840 l 351 840 q 417 816 393 840 q 440 753 440 792 q 425 699 440 719 q 386 668 410 678 l 454 550 l 392 550 l 331 661 l 282 661 l 282 550 m 349 706 q 381 735 381 706 l 381 765 q 349 794 381 794 l 282 794 l 282 706 l 349 706 z "},"™":{"ha":914,"x_min":44,"x_max":800,"o":"m 169 582 l 169 907 l 44 907 l 44 969 l 363 969 l 363 907 l 239 907 l 239 582 l 169 582 m 435 582 l 435 969 l 522 969 l 618 785 l 622 785 l 717 969 l 800 969 l 800 582 l 736 582 l 736 757 l 738 872 l 732 872 l 618 657 l 503 872 l 497 872 l 500 757 l 500 582 l 435 582 z "},"ª":{"ha":554,"x_min":56,"x_max":500,"o":"m 500 486 l 453 486 q 390 504 413 486 q 367 560 367 522 l 361 560 q 308 503 346 528 q 207 478 271 478 q 94 515 133 478 q 56 614 56 553 q 109 724 56 689 q 263 758 163 758 l 361 758 l 361 797 q 257 906 361 906 q 178 885 210 906 q 131 833 146 865 l 72 881 q 139 947 93 917 q 261 978 185 978 q 399 932 349 978 q 449 801 449 886 l 449 564 l 500 564 l 500 486 m 260 694 q 173 678 203 694 q 143 629 143 661 l 143 615 q 226 549 143 549 q 277 555 253 549 q 320 573 301 561 q 350 601 339 585 q 361 638 361 617 l 361 694 l 260 694 z "},"º":{"ha":553,"x_min":61,"x_max":492,"o":"m 276 478 q 118 544 175 478 q 61 728 61 610 q 118 912 61 846 q 276 978 175 978 q 435 912 378 978 q 492 728 492 846 q 435 544 492 610 q 276 478 378 478 m 276 550 q 367 588 338 550 q 397 685 397 625 l 397 771 q 367 868 397 831 q 276 906 338 906 q 185 868 215 906 q 156 771 156 831 l 156 685 q 185 588 156 625 q 276 550 215 550 z "},"°":{"ha":650,"x_min":92,"x_max":558,"o":"m 325 508 q 233 526 275 508 q 159 576 190 544 q 110 652 128 608 q 92 747 92 696 q 110 842 92 799 q 159 918 128 886 q 233 968 190 950 q 325 986 275 986 q 417 968 375 986 q 491 918 460 950 q 540 842 522 886 q 558 747 558 799 q 540 652 558 696 q 491 576 522 608 q 417 526 460 544 q 325 508 375 508 m 325 597 q 424 641 388 597 q 461 747 461 685 q 424 853 461 810 q 325 897 388 897 q 226 853 263 897 q 189 747 189 810 q 226 641 189 685 q 325 597 263 597 z "},"*":{"ha":625,"x_min":50,"x_max":575,"o":"m 199 539 l 121 596 l 247 757 l 50 811 l 81 904 l 272 833 l 264 1038 l 361 1038 l 353 833 l 544 904 l 575 811 l 378 757 l 504 596 l 426 539 l 313 710 l 199 539 z "},"†":{"ha":767,"x_min":69,"x_max":697,"o":"m 335 -278 l 335 628 l 69 628 l 69 717 l 335 717 l 335 1028 l 432 1028 l 432 717 l 697 717 l 697 628 l 432 628 l 432 -278 l 335 -278 z "},"‡":{"ha":767,"x_min":69,"x_max":697,"o":"m 335 -278 l 335 33 l 69 33 l 69 122 l 335 122 l 335 628 l 69 628 l 69 717 l 335 717 l 335 1028 l 432 1028 l 432 717 l 697 717 l 697 628 l 432 628 l 432 122 l 697 122 l 697 33 l 432 33 l 432 -278 l 335 -278 z "},"#":{"ha":990,"x_min":83,"x_max":899,"o":"m 564 285 l 350 285 l 300 0 l 211 0 l 261 285 l 83 285 l 83 368 l 275 368 l 314 601 l 138 601 l 138 685 l 329 685 l 378 969 l 467 969 l 418 685 l 632 685 l 681 969 l 769 969 l 721 685 l 899 685 l 899 601 l 706 601 l 667 368 l 844 368 l 844 285 l 653 285 l 603 0 l 514 0 l 564 285 m 578 368 l 617 601 l 403 601 l 364 368 l 578 368 z "},"^":{"ha":833,"x_min":69,"x_max":764,"o":"m 679 411 l 419 867 l 414 867 l 154 411 l 69 456 l 357 969 l 476 969 l 764 456 l 679 411 z "},"~":{"ha":833,"x_min":85,"x_max":749,"o":"m 582 328 q 491 342 531 328 q 403 379 451 356 q 326 413 364 399 q 246 426 289 426 q 187 416 211 426 q 131 382 163 406 l 85 443 q 151 499 113 478 q 251 519 189 519 q 342 506 303 519 q 431 468 382 492 q 507 435 469 449 q 588 421 544 421 q 647 431 622 421 q 703 465 671 442 l 749 404 q 683 349 721 369 q 582 328 644 328 z "},"+":{"ha":833,"x_min":93,"x_max":740,"o":"m 364 86 l 364 376 l 93 376 l 93 471 l 364 471 l 364 761 l 469 761 l 469 471 l 740 471 l 740 376 l 469 376 l 469 86 l 364 86 z "},"−":{"ha":833,"x_min":93,"x_max":740,"o":"m 93 376 l 93 471 l 740 471 l 740 376 l 93 376 z "},"±":{"ha":833,"x_min":93,"x_max":740,"o":"m 364 211 l 364 488 l 93 488 l 93 582 l 364 582 l 364 858 l 469 858 l 469 582 l 740 582 l 740 488 l 469 488 l 469 211 l 364 211 m 93 0 l 93 94 l 740 94 l 740 0 l 93 0 z "},"×":{"ha":833,"x_min":128,"x_max":706,"o":"m 417 356 l 196 129 l 128 197 l 349 424 l 128 650 l 196 718 l 417 492 l 638 718 l 706 650 l 485 424 l 706 197 l 638 129 l 417 356 z "},"÷":{"ha":833,"x_min":93,"x_max":740,"o":"m 93 376 l 93 471 l 740 471 l 740 376 l 93 376 m 417 72 q 349 92 368 72 q 331 139 331 111 l 331 169 q 349 217 331 197 q 417 236 368 236 q 484 217 465 236 q 503 169 503 197 l 503 139 q 484 92 503 111 q 417 72 465 72 m 417 611 q 349 631 368 611 q 331 678 331 650 l 331 708 q 349 756 331 736 q 417 775 368 775 q 484 756 465 775 q 503 708 503 736 l 503 678 q 484 631 503 650 q 417 611 465 611 z "},"=":{"ha":833,"x_min":93,"x_max":740,"o":"m 93 517 l 93 611 l 740 611 l 740 517 l 93 517 m 93 239 l 93 333 l 740 333 l 740 239 l 93 239 z "},"≈":{"ha":833,"x_min":85,"x_max":749,"o":"m 582 467 q 491 481 531 467 q 403 518 451 494 q 326 551 364 538 q 246 565 289 565 q 187 555 211 565 q 131 521 163 544 l 85 582 q 151 638 113 617 q 251 658 189 658 q 342 644 303 658 q 431 607 382 631 q 507 574 469 588 q 588 560 544 560 q 647 570 622 560 q 703 604 671 581 l 749 543 q 683 488 721 508 q 582 467 644 467 m 582 192 q 491 206 531 192 q 403 243 451 219 q 326 276 364 263 q 246 290 289 290 q 187 280 211 290 q 131 246 163 269 l 85 307 q 151 363 113 342 q 251 383 189 383 q 342 369 303 383 q 431 332 382 356 q 507 299 469 313 q 588 285 544 285 q 647 295 622 285 q 703 329 671 306 l 749 268 q 683 213 721 233 q 582 192 644 192 z "},"≠":{"ha":833,"x_min":93,"x_max":740,"o":"m 193 100 l 268 239 l 93 239 l 93 333 l 319 333 l 415 517 l 93 517 l 93 611 l 467 611 l 540 750 l 640 750 l 565 611 l 740 611 l 740 517 l 514 517 l 418 333 l 740 333 l 740 239 l 367 239 l 293 100 l 193 100 z "},"<":{"ha":833,"x_min":125,"x_max":708,"o":"m 125 329 l 125 440 l 708 786 l 708 669 l 229 390 l 229 379 l 708 100 l 708 -17 l 125 329 z "},">":{"ha":833,"x_min":125,"x_max":708,"o":"m 125 100 l 604 379 l 604 390 l 125 669 l 125 786 l 708 440 l 708 329 l 125 -17 l 125 100 z "},"≤":{"ha":833,"x_min":125,"x_max":708,"o":"m 125 0 l 125 94 l 708 94 l 708 0 l 125 0 m 708 710 l 231 500 l 231 490 l 708 281 l 708 168 l 125 433 l 125 557 l 708 821 l 708 710 z "},"≥":{"ha":833,"x_min":125,"x_max":708,"o":"m 125 281 l 603 490 l 603 500 l 125 710 l 125 821 l 708 557 l 708 433 l 125 168 l 125 281 m 125 94 l 708 94 l 708 0 l 125 0 l 125 94 z "},"·":{"ha":453,"x_min":142,"x_max":311,"o":"m 226 333 q 162 356 182 333 q 142 414 142 378 l 142 432 q 162 490 142 468 q 226 513 182 513 q 291 490 271 513 q 311 432 311 468 l 311 414 q 291 356 311 378 q 226 333 271 333 z "},"·":{"ha":406,"x_min":118,"x_max":288,"o":"m 203 547 q 138 569 158 547 q 118 628 118 592 l 118 646 q 138 704 118 682 q 203 726 158 726 q 267 704 247 726 q 288 646 288 682 l 288 628 q 267 569 288 592 q 203 547 247 547 z "},"•":{"ha":550,"x_min":106,"x_max":444,"o":"m 275 258 q 144 300 182 258 q 106 403 106 342 l 106 442 q 144 544 106 503 q 275 586 182 586 q 406 544 368 586 q 444 442 444 503 l 444 403 q 406 300 444 342 q 275 258 368 258 z "},"◊":{"ha":833,"x_min":65,"x_max":769,"o":"m 363 0 l 65 485 l 363 969 l 472 969 l 769 485 l 472 0 l 363 0 m 422 104 l 653 485 l 422 865 l 413 865 l 182 485 l 413 104 l 422 104 z "},"¬":{"ha":833,"x_min":93,"x_max":740,"o":"m 644 108 l 644 376 l 93 376 l 93 471 l 740 471 l 740 108 l 644 108 z "},"√":{"ha":833,"x_min":40,"x_max":788,"o":"m 351 0 l 178 628 l 40 628 l 40 717 l 263 717 l 325 486 l 429 93 l 436 93 l 544 486 l 679 969 l 788 969 l 508 0 l 351 0 z "},"∫":{"ha":592,"x_min":69,"x_max":522,"o":"m 69 -181 l 240 -181 l 240 864 q 278 983 240 938 q 397 1028 317 1028 l 522 1028 l 522 931 l 351 931 l 351 -114 q 313 -233 351 -187 q 194 -278 275 -278 l 69 -278 l 69 -181 z "},"∞":{"ha":1028,"x_min":22,"x_max":1006,"o":"m 269 160 q 167 179 213 160 q 89 234 121 199 q 40 318 57 269 q 22 424 22 367 q 40 529 22 481 q 89 613 57 578 q 167 668 121 649 q 269 688 213 688 q 442 640 379 688 q 538 493 504 592 l 544 493 q 622 642 565 596 q 758 688 679 688 q 861 668 815 688 q 939 613 907 649 q 988 529 971 578 q 1006 424 1006 481 q 988 318 1006 367 q 939 234 971 269 q 861 179 907 199 q 758 160 815 160 q 586 208 649 160 q 490 354 524 256 l 483 354 q 406 206 463 251 q 269 160 349 160 m 269 254 q 385 293 338 254 q 457 424 433 332 q 385 554 433 515 q 269 593 338 593 q 172 556 208 593 q 136 458 136 519 l 136 389 q 172 291 136 328 q 269 254 208 254 m 758 254 q 856 291 819 254 q 892 389 892 328 l 892 458 q 856 556 892 519 q 758 593 819 593 q 642 554 690 593 q 571 424 594 515 q 642 293 594 332 q 758 254 690 254 z "},"℮":{"ha":1008,"x_min":50,"x_max":958,"o":"m 250 151 q 358 82 294 110 q 504 54 421 54 q 711 111 629 54 q 843 261 793 168 l 907 226 q 840 129 879 174 q 751 52 801 85 q 640 1 701 19 q 504 -17 578 -17 q 323 19 406 -17 q 179 119 240 54 q 84 277 118 185 q 50 485 50 369 q 84 692 50 599 q 179 850 118 785 q 323 951 240 915 q 504 986 406 986 q 685 951 601 986 q 829 850 768 915 q 924 692 890 785 q 958 485 958 599 l 250 485 l 250 151 m 758 551 l 758 822 q 651 892 714 864 q 504 919 588 919 q 358 892 421 919 q 250 822 294 864 l 250 551 l 758 551 z "},"ℓ":{"ha":678,"x_min":47,"x_max":638,"o":"m 378 -17 q 222 49 275 -17 q 169 221 169 115 l 169 235 q 131 207 150 219 q 93 182 113 194 l 47 257 q 108 297 76 276 q 167 339 139 317 l 167 779 q 181 905 167 854 q 222 987 196 956 q 283 1031 247 1018 q 361 1044 319 1044 q 506 985 457 1044 q 556 811 556 925 q 483 553 556 674 q 274 308 410 433 l 274 247 q 303 118 274 156 q 388 81 333 81 q 490 122 450 81 q 558 226 529 163 l 638 178 q 595 102 619 138 q 539 40 571 67 q 467 -1 507 14 q 378 -17 426 -17 m 365 951 q 299 917 325 951 q 274 789 274 883 l 274 428 q 407 612 361 519 q 453 797 453 704 l 453 821 q 429 922 453 892 q 365 951 406 951 z "},"№":{"ha":1426,"x_min":129,"x_max":1365,"o":"m 1143 506 q 1056 522 1096 506 q 985 568 1015 538 q 938 644 956 599 q 921 746 921 689 q 938 848 921 803 q 985 924 956 893 q 1056 970 1015 954 q 1143 986 1096 986 q 1231 970 1190 986 q 1301 924 1271 954 q 1348 848 1331 893 q 1365 746 1365 803 q 1348 644 1365 689 q 1301 568 1331 599 q 1231 522 1271 538 q 1143 506 1190 506 m 129 0 l 129 969 l 257 969 l 568 407 l 703 161 l 707 161 l 707 969 l 815 969 l 815 0 l 685 0 l 357 582 l 242 797 l 238 797 l 238 0 l 129 0 m 1143 579 q 1235 617 1201 579 q 1268 707 1268 654 l 1268 785 q 1235 875 1268 838 q 1143 913 1201 913 q 1051 875 1085 913 q 1018 785 1018 838 l 1018 707 q 1051 617 1018 654 q 1143 579 1085 579 m 953 338 l 953 429 l 1333 429 l 1333 338 l 953 338 z "},"∂":{"ha":821,"x_min":88,"x_max":726,"o":"m 726 374 q 641 79 726 175 q 411 -17 556 -17 q 275 8 335 -17 q 174 81 215 33 q 110 194 132 128 q 88 342 88 260 q 109 490 88 424 q 171 603 131 556 q 267 675 211 650 q 393 700 324 700 q 496 680 454 700 q 568 624 538 660 l 572 626 q 518 724 556 676 q 430 815 481 771 q 319 897 379 858 q 196 969 258 936 l 371 969 q 480 894 418 940 q 597 778 542 849 q 689 608 651 707 q 726 374 726 508 m 407 79 q 553 132 499 79 q 608 293 608 185 l 608 390 q 553 551 608 499 q 407 604 499 604 q 260 551 315 604 q 206 390 206 499 l 206 293 q 260 132 206 185 q 407 79 315 79 z "},"¤":{"ha":850,"x_min":25,"x_max":825,"o":"m 425 165 q 233 228 308 165 l 92 86 l 25 151 l 172 299 q 128 485 128 376 q 172 671 128 593 l 25 818 l 92 883 l 233 742 q 425 804 308 804 q 617 742 542 804 l 758 883 l 825 818 l 678 671 q 722 485 722 593 q 678 299 722 376 l 825 151 l 758 86 l 617 228 q 425 165 542 165 m 425 258 q 555 303 506 258 q 604 440 604 349 l 604 529 q 555 666 604 621 q 425 711 506 711 q 295 666 344 711 q 246 529 246 621 l 246 440 q 295 303 246 349 q 425 258 344 258 z "},"¢":{"ha":714,"x_min":65,"x_max":661,"o":"m 326 -158 l 326 -12 q 133 104 200 6 q 65 358 65 203 q 133 613 65 515 q 326 729 201 711 l 326 875 l 424 875 l 424 732 q 567 680 511 725 q 651 568 622 635 l 563 519 q 422 633 525 618 l 422 83 q 581 206 531 96 l 661 151 q 571 36 631 81 q 424 -15 511 -8 l 424 -158 l 326 -158 m 185 297 q 221 160 185 218 q 328 88 257 103 l 328 629 q 221 557 257 614 q 185 419 185 500 l 185 297 z "},"€":{"ha":868,"x_min":81,"x_max":807,"o":"m 469 -17 q 183 113 286 -17 q 81 485 81 242 q 183 857 81 728 q 469 986 286 986 q 673 930 592 986 q 800 774 754 874 l 710 718 q 619 838 681 793 q 469 883 558 883 q 292 818 360 883 q 207 644 224 753 l 564 644 l 564 551 l 201 551 l 201 418 l 564 418 l 564 325 l 207 325 q 292 151 225 217 q 469 86 360 86 q 624 135 561 86 q 717 263 686 183 l 807 203 q 754 115 785 156 q 683 46 724 75 q 589 0 642 17 q 469 -17 536 -17 z "},"ƒ":{"ha":674,"x_min":-4,"x_max":640,"o":"m 6 -89 l 207 -89 l 258 418 l 60 418 l 71 519 l 268 519 l 297 806 q 348 924 304 879 q 472 969 392 969 l 640 969 l 629 872 l 417 872 l 381 519 l 615 519 l 606 418 l 371 418 l 326 -22 q 276 -140 319 -94 q 151 -186 233 -186 l -4 -186 l 6 -89 z "},"£":{"ha":826,"x_min":83,"x_max":756,"o":"m 114 0 l 114 139 q 193 217 172 164 q 214 329 214 271 q 213 365 214 347 q 208 397 211 382 l 83 397 l 83 494 l 182 494 q 153 588 167 542 q 139 693 139 635 q 160 811 139 757 q 223 904 182 865 q 324 965 264 943 q 458 986 383 986 q 637 944 565 986 q 756 828 708 903 l 668 764 q 581 851 632 819 q 454 883 531 883 q 312 833 364 883 q 260 682 260 783 q 272 584 260 629 q 299 494 285 539 l 599 494 l 599 397 l 324 397 q 328 342 328 369 q 297 201 328 264 q 224 111 265 139 l 224 104 l 729 104 l 729 0 l 114 0 z "},"$":{"ha":831,"x_min":72,"x_max":749,"o":"m 375 -114 l 375 0 q 197 52 269 7 q 72 165 124 97 l 154 239 q 252 144 199 179 q 376 99 306 108 l 376 456 q 167 549 233 488 q 101 719 101 611 q 122 819 101 775 q 178 894 142 863 q 264 945 214 926 q 375 969 314 964 l 375 1083 l 461 1083 l 461 971 q 624 923 556 963 q 743 814 693 883 l 658 750 q 575 830 624 799 q 460 871 526 861 l 460 546 l 472 543 q 683 449 617 511 q 749 278 749 388 q 672 85 749 158 q 461 0 594 13 l 461 -114 l 375 -114 m 639 271 q 598 379 639 342 q 460 440 557 417 l 460 99 q 591 155 543 110 q 639 271 639 200 m 211 728 q 252 622 211 657 q 376 564 293 586 l 376 871 q 256 825 301 861 q 211 728 211 789 z "},"¥":{"ha":840,"x_min":47,"x_max":793,"o":"m 478 201 l 478 0 l 363 0 l 363 201 l 118 201 l 118 294 l 363 294 l 363 428 l 118 428 l 118 521 l 307 521 l 47 969 l 178 969 l 421 532 l 428 532 l 664 969 l 793 969 l 533 521 l 722 521 l 722 428 l 478 428 l 478 294 l 722 294 l 722 201 l 478 201 z "},"฿":{"ha":894,"x_min":129,"x_max":807,"o":"m 482 -114 l 396 -114 l 396 29 l 129 29 l 129 940 l 396 940 l 396 1083 l 482 1083 l 482 940 l 515 940 q 703 876 635 940 q 772 706 772 813 q 759 626 772 660 q 724 568 746 592 q 672 531 701 544 q 610 511 643 517 l 610 503 q 678 485 643 497 q 742 450 714 474 q 789 388 771 426 q 807 293 807 350 q 788 188 807 236 q 735 105 768 140 q 656 49 701 69 q 556 29 610 29 l 482 29 l 482 -114 m 397 546 l 397 838 l 244 838 l 244 546 l 397 546 m 481 546 l 518 546 q 619 577 588 546 q 651 671 651 608 l 651 713 q 619 806 651 775 q 518 838 588 838 l 481 838 l 481 546 m 397 132 l 397 450 l 244 450 l 244 132 l 397 132 m 481 132 l 524 132 q 642 165 599 132 q 686 267 686 199 l 686 315 q 642 417 686 383 q 524 450 599 450 l 481 450 l 481 132 z "},"₡":{"ha":872,"x_min":81,"x_max":811,"o":"m 439 -1 q 401 2 419 0 q 368 8 383 4 l 354 -114 l 260 -114 l 276 39 q 131 199 182 88 q 81 482 81 310 q 157 815 81 694 q 372 964 233 936 l 385 1083 l 479 1083 l 467 972 l 471 972 q 506 971 489 972 q 539 967 524 969 l 551 1083 l 646 1083 l 632 942 q 733 871 690 918 q 804 760 775 824 l 711 703 q 672 776 694 743 q 617 829 649 808 l 542 108 q 651 169 608 124 q 718 278 694 214 l 811 217 q 706 74 771 132 q 533 1 640 15 l 521 -114 l 426 -114 l 439 -1 m 454 868 l 376 118 q 451 101 410 103 l 531 861 q 474 868 500 868 l 454 868 m 206 407 q 227 265 206 328 q 293 163 249 201 l 363 850 q 246 746 286 821 q 206 564 206 671 l 206 407 z "},"₤":{"ha":826,"x_min":83,"x_max":756,"o":"m 729 0 l 114 0 l 114 139 q 193 217 172 164 q 214 331 214 271 l 83 331 l 83 424 l 203 424 q 185 485 196 456 q 165 546 175 515 l 83 546 l 83 639 l 143 639 q 139 693 139 664 q 160 811 139 757 q 223 904 182 865 q 324 965 264 943 q 458 986 383 986 q 637 944 565 986 q 756 828 708 903 l 668 764 q 581 851 632 819 q 454 883 531 883 q 312 833 364 883 q 260 682 260 783 q 260 660 260 671 q 263 639 261 650 l 599 639 l 599 546 l 282 546 q 301 485 292 515 q 318 424 311 456 l 599 424 l 599 331 l 328 331 q 294 197 325 256 q 224 111 264 139 l 224 104 l 729 104 l 729 0 z "},"₦":{"ha":967,"x_min":21,"x_max":946,"o":"m 503 329 l 246 329 l 246 0 l 132 0 l 132 325 l 21 325 l 21 418 l 132 418 l 132 551 l 21 551 l 21 644 l 132 644 l 132 969 l 264 969 l 457 640 l 721 640 l 721 969 l 835 969 l 835 644 l 946 644 l 946 551 l 835 551 l 835 418 l 946 418 l 946 325 l 835 325 l 835 0 l 697 0 l 503 329 m 461 414 l 250 788 l 246 788 l 246 414 l 461 414 m 717 167 l 721 167 l 721 556 l 499 556 l 717 167 z "},"₨":{"ha":990,"x_min":129,"x_max":949,"o":"m 129 0 l 129 969 l 369 969 q 556 902 494 969 q 618 710 618 835 q 581 552 618 614 q 468 467 544 490 l 603 183 q 658 103 629 129 q 739 76 688 76 q 817 99 789 76 q 844 167 844 122 q 842 194 844 182 q 831 217 839 206 q 808 245 822 229 q 769 285 793 261 l 743 311 q 663 412 685 369 q 642 501 642 454 q 685 617 642 571 q 810 663 729 663 q 881 654 846 663 q 949 622 917 646 l 904 543 q 815 574 865 574 q 764 555 782 574 q 746 503 746 536 q 762 446 746 471 q 819 379 778 421 l 840 358 q 893 303 872 326 q 926 258 914 279 q 944 216 939 238 q 949 167 949 194 q 895 33 949 83 q 729 -17 842 -17 q 594 16 650 -17 q 503 131 539 49 l 361 447 l 240 447 l 240 0 l 129 0 m 358 544 q 466 578 428 544 q 504 675 504 611 l 504 739 q 466 836 504 803 q 358 869 428 869 l 240 869 l 240 544 l 358 544 z "},"₩":{"ha":1322,"x_min":51,"x_max":1271,"o":"m 788 331 l 522 331 l 435 0 l 308 0 l 231 326 l 51 326 l 51 419 l 208 419 l 178 551 l 51 551 l 51 644 l 156 644 l 78 969 l 193 969 l 267 640 l 507 640 l 593 969 l 726 969 l 810 640 l 1056 640 l 1132 969 l 1249 969 l 1165 644 l 1271 644 l 1271 551 l 1142 551 l 1108 419 l 1271 419 l 1271 326 l 1085 326 l 1000 0 l 874 0 l 788 331 m 471 503 l 483 556 l 286 556 l 297 503 l 378 140 l 381 140 l 471 503 m 939 142 l 1022 503 l 1035 556 l 832 556 l 844 503 l 935 142 l 939 142 m 546 415 l 765 415 l 747 483 l 658 849 l 656 849 l 564 483 l 546 415 z "},"₪":{"ha":1069,"x_min":129,"x_max":940,"o":"m 363 750 l 474 750 l 474 97 l 682 97 q 736 105 710 97 q 783 130 763 113 q 817 177 804 147 q 829 253 829 207 l 829 969 l 940 969 l 940 275 q 921 154 940 206 q 867 68 901 103 q 785 17 833 33 q 682 0 738 0 l 363 0 l 363 750 m 129 0 l 129 969 l 451 969 q 635 901 564 969 q 707 694 707 833 l 707 219 l 596 219 l 596 717 q 584 792 596 763 q 552 840 572 822 q 506 865 532 857 q 450 872 479 872 l 240 872 l 240 0 l 129 0 z "},"₫":{"ha":806,"x_min":99,"x_max":744,"o":"m 544 290 l 539 290 q 461 210 510 238 q 343 182 413 182 q 165 259 231 182 q 99 481 99 336 q 165 702 99 625 q 343 779 231 779 q 461 751 413 779 q 539 669 510 722 l 544 669 l 544 860 l 338 860 l 338 944 l 544 944 l 544 1028 l 650 1028 l 650 944 l 744 944 l 744 860 l 650 860 l 650 194 l 544 194 l 544 290 m 382 271 q 499 306 453 271 q 544 400 544 342 l 544 561 q 499 655 544 619 q 382 690 453 690 q 258 646 304 690 q 211 528 211 601 l 211 433 q 258 315 211 360 q 382 271 304 271 m 99 0 l 99 93 l 692 93 l 692 0 l 99 0 z "},"₭":{"ha":857,"x_min":14,"x_max":819,"o":"m 246 0 l 132 0 l 132 454 l 14 454 l 14 550 l 132 550 l 132 969 l 246 969 l 246 550 l 357 550 l 668 969 l 797 969 l 478 550 l 775 550 l 775 454 l 486 454 l 819 0 l 681 0 l 360 454 l 246 454 l 246 0 z "},"₮":{"ha":844,"x_min":56,"x_max":789,"o":"m 481 301 l 481 0 l 364 0 l 364 244 l 179 156 l 179 251 l 364 340 l 364 467 l 179 378 l 179 474 l 364 563 l 364 867 l 56 867 l 56 969 l 789 969 l 789 867 l 481 867 l 481 619 l 667 710 l 667 614 l 481 524 l 481 397 l 667 488 l 667 392 l 481 301 z "},"₱":{"ha":872,"x_min":42,"x_max":847,"o":"m 268 0 l 153 0 l 153 461 l 42 461 l 42 554 l 153 554 l 153 688 l 42 688 l 42 781 l 153 781 l 153 969 l 474 969 q 634 919 574 969 q 721 781 694 869 l 847 781 l 847 688 l 738 688 q 740 653 739 671 q 740 619 740 636 q 740 586 740 603 q 738 554 739 569 l 847 554 l 847 461 l 721 461 q 635 320 696 371 q 474 269 575 269 l 268 269 l 268 0 m 268 776 l 614 776 q 563 844 599 818 q 474 869 526 869 l 268 869 l 268 776 m 625 550 l 625 692 l 268 692 l 268 550 l 625 550 m 474 369 q 564 395 526 369 q 617 465 601 421 l 268 465 l 268 369 l 474 369 z "},"₲":{"ha":939,"x_min":81,"x_max":839,"o":"m 310 -114 l 333 17 q 147 176 213 58 q 81 489 81 293 q 184 851 81 731 q 474 972 288 972 q 499 971 479 972 l 518 1083 l 608 1083 l 586 958 q 818 760 747 915 l 724 703 q 663 799 701 760 q 567 857 625 838 l 504 499 l 839 499 l 839 361 q 803 183 839 253 q 711 72 767 113 q 590 14 656 31 q 465 -3 525 -3 q 444 -2 454 -3 q 421 0 435 -1 l 400 -114 l 310 -114 m 206 407 q 243 233 206 304 q 353 128 281 163 l 483 869 l 475 869 q 276 789 346 869 q 206 564 206 708 l 206 407 m 486 393 l 436 103 q 462 101 451 101 q 483 100 472 100 q 662 163 599 100 q 725 333 725 225 l 725 393 l 486 393 z "},"₴":{"ha":872,"x_min":64,"x_max":808,"o":"m 439 -17 q 319 3 372 -17 q 228 56 265 22 q 169 138 190 90 q 149 244 149 186 q 154 299 149 275 q 167 344 160 324 l 64 344 l 64 438 l 238 438 l 468 571 l 64 571 l 64 664 l 585 664 q 597 735 597 694 q 552 847 597 810 q 426 883 507 883 q 324 863 372 883 q 233 793 275 842 l 160 867 q 289 958 218 931 q 436 986 360 986 q 548 969 497 986 q 635 922 599 953 q 692 845 672 890 q 713 744 713 800 q 700 664 713 697 l 808 664 l 808 571 l 633 571 l 403 438 l 808 438 l 808 344 l 286 344 q 269 303 275 325 q 264 253 264 281 q 313 128 264 169 q 446 86 363 86 q 556 110 504 86 q 665 194 608 135 l 736 118 q 604 17 681 51 q 439 -17 528 -17 z "},"₵":{"ha":872,"x_min":81,"x_max":811,"o":"m 310 -114 l 333 17 q 146 178 211 58 q 81 485 81 297 q 183 847 81 722 q 468 972 285 972 q 499 971 479 972 l 518 1083 l 608 1083 l 586 957 q 718 885 665 933 q 804 763 771 836 l 710 706 q 656 794 690 756 q 567 853 621 832 l 436 103 q 454 101 447 101 q 468 101 461 101 q 626 149 564 101 q 718 276 689 197 l 811 218 q 758 131 789 171 q 685 60 726 90 q 590 14 643 31 q 468 -3 536 -3 q 447 -2 457 -3 q 421 0 436 -1 l 400 -114 l 310 -114 m 206 407 q 242 233 206 306 q 353 125 279 161 l 483 869 l 468 869 q 357 847 406 869 q 274 785 308 825 q 223 689 240 746 q 206 564 206 632 l 206 407 z "},"₸":{"ha":844,"x_min":56,"x_max":789,"o":"m 56 872 l 56 969 l 789 969 l 789 872 l 56 872 m 481 650 l 481 0 l 364 0 l 364 650 l 56 650 l 56 747 l 789 747 l 789 650 l 481 650 z "},"₹":{"ha":840,"x_min":74,"x_max":793,"o":"m 547 0 l 243 414 l 74 414 l 74 511 l 382 511 q 499 544 453 511 q 544 644 544 578 l 74 644 l 74 742 l 544 742 q 497 839 542 806 q 382 872 453 872 l 74 872 l 74 969 l 793 969 l 793 872 l 563 872 l 563 867 q 585 861 571 865 q 613 844 599 857 q 640 806 628 831 q 656 742 651 782 l 793 742 l 793 644 l 656 644 q 572 475 643 536 q 379 414 501 414 l 689 0 l 547 0 z "},"₺":{"ha":842,"x_min":18,"x_max":779,"o":"m 153 344 l 18 279 l 18 375 l 153 440 l 153 567 l 18 501 l 18 597 l 153 663 l 153 969 l 269 969 l 269 718 l 569 863 l 569 767 l 269 622 l 269 496 l 569 640 l 569 544 l 269 400 l 269 101 l 419 101 q 600 188 535 101 q 665 424 665 275 l 779 424 q 757 258 779 335 q 690 123 735 181 q 580 33 646 65 q 426 0 514 0 l 153 0 l 153 344 z "},"₽":{"ha":865,"x_min":42,"x_max":810,"o":"m 269 183 l 269 0 l 153 0 l 153 183 l 42 183 l 42 281 l 153 281 l 153 415 l 42 415 l 42 513 l 153 513 l 153 969 l 539 969 q 740 894 669 969 q 810 692 810 819 q 740 490 810 564 q 539 415 669 415 l 269 415 l 269 281 l 651 281 l 651 183 l 269 183 m 269 513 l 539 513 q 647 549 608 513 q 685 651 685 585 l 685 728 q 647 831 685 794 q 539 867 608 867 l 269 867 l 269 513 z "},"₿":{"ha":893,"x_min":128,"x_max":806,"o":"m 461 29 l 378 29 l 378 -114 l 281 -114 l 281 29 l 128 29 l 128 940 l 281 940 l 281 1083 l 378 1083 l 378 940 l 461 940 l 461 1083 l 558 1083 l 558 939 q 715 865 658 928 q 771 706 771 803 q 758 626 771 660 q 722 568 744 592 q 671 531 700 544 q 608 511 642 517 l 608 503 q 677 485 642 497 q 741 450 713 474 q 788 388 769 426 q 806 293 806 350 q 787 188 806 236 q 735 105 768 140 q 656 49 701 69 q 558 29 611 29 l 558 -114 l 461 -114 l 461 29 m 243 549 l 517 549 q 618 580 586 549 q 650 674 650 611 l 650 713 q 618 806 650 775 q 517 838 586 838 l 243 838 l 243 549 m 243 132 l 522 132 q 641 167 597 132 q 685 268 685 201 l 685 313 q 641 414 685 379 q 522 449 597 449 l 243 449 l 243 132 z "},"ﬁ":{"ha":788,"x_min":40,"x_max":682,"o":"m 157 619 l 40 619 l 40 717 l 157 717 l 157 861 q 196 982 157 936 q 314 1028 235 1028 l 422 1028 l 422 931 l 268 931 l 268 717 l 669 717 l 669 0 l 558 0 l 558 619 l 268 619 l 268 0 l 157 0 l 157 619 m 614 885 q 562 902 578 885 q 546 947 546 919 l 546 965 q 562 1010 546 993 q 614 1028 578 1028 q 666 1010 650 1028 q 682 965 682 993 l 682 947 q 666 902 682 919 q 614 885 650 885 z "},"ﬂ":{"ha":828,"x_min":40,"x_max":785,"o":"m 157 619 l 40 619 l 40 717 l 157 717 l 157 861 q 196 982 157 936 q 314 1028 235 1028 l 422 1028 l 422 931 l 268 931 l 268 717 l 422 717 l 422 619 l 268 619 l 268 0 l 157 0 l 157 619 m 686 0 q 598 33 628 0 q 568 115 568 65 l 568 1028 l 679 1028 l 679 97 l 785 97 l 785 0 l 686 0 z "},"á":{"ha":742,"x_min":61,"x_max":701,"o":"m 639 0 q 549 33 576 0 q 515 117 522 67 l 508 117 q 431 17 485 50 q 301 -17 376 -17 q 124 42 188 -17 q 61 200 61 100 q 135 356 61 301 q 367 410 210 410 l 508 410 l 508 481 q 467 597 508 557 q 339 638 425 638 q 230 608 274 638 q 157 531 186 579 l 90 593 q 183 692 119 651 q 344 733 247 733 q 547 669 475 733 q 619 492 619 606 l 619 97 l 701 97 l 701 0 l 639 0 m 319 78 q 396 88 361 78 q 456 115 431 97 q 494 157 481 133 q 508 208 508 181 l 508 326 l 361 326 q 222 299 265 326 q 178 218 178 271 l 178 189 q 216 107 178 136 q 319 78 254 78 m 361 813 l 289 846 l 407 1082 l 508 1033 l 361 813 z "},"ă":{"ha":742,"x_min":61,"x_max":701,"o":"m 639 0 q 549 33 576 0 q 515 117 522 67 l 508 117 q 431 17 485 50 q 301 -17 376 -17 q 124 42 188 -17 q 61 200 61 100 q 135 356 61 301 q 367 410 210 410 l 508 410 l 508 481 q 467 597 508 557 q 339 638 425 638 q 230 608 274 638 q 157 531 186 579 l 90 593 q 183 692 119 651 q 344 733 247 733 q 547 669 475 733 q 619 492 619 606 l 619 97 l 701 97 l 701 0 l 639 0 m 319 78 q 396 88 361 78 q 456 115 431 97 q 494 157 481 133 q 508 208 508 181 l 508 326 l 361 326 q 222 299 265 326 q 178 218 178 271 l 178 189 q 216 107 178 136 q 319 78 254 78 m 351 828 q 259 844 296 828 q 199 886 222 861 q 163 942 176 911 q 140 1001 150 972 l 203 1032 l 232 986 q 274 935 250 956 q 351 915 299 915 q 397 921 378 915 q 428 935 415 926 q 451 958 442 944 q 471 986 461 971 l 500 1032 l 563 1001 q 540 942 553 972 q 503 886 526 911 q 444 844 481 861 q 351 828 407 828 z "},"â":{"ha":742,"x_min":61,"x_max":701,"o":"m 639 0 q 549 33 576 0 q 515 117 522 67 l 508 117 q 431 17 485 50 q 301 -17 376 -17 q 124 42 188 -17 q 61 200 61 100 q 135 356 61 301 q 367 410 210 410 l 508 410 l 508 481 q 467 597 508 557 q 339 638 425 638 q 230 608 274 638 q 157 531 186 579 l 90 593 q 183 692 119 651 q 344 733 247 733 q 547 669 475 733 q 619 492 619 606 l 619 97 l 701 97 l 701 0 l 639 0 m 319 78 q 396 88 361 78 q 456 115 431 97 q 494 157 481 133 q 508 208 508 181 l 508 326 l 361 326 q 222 299 265 326 q 178 218 178 271 l 178 189 q 216 107 178 136 q 319 78 254 78 m 421 1063 l 575 864 l 514 821 l 351 983 l 189 821 l 128 864 l 282 1063 l 421 1063 z "},"ä":{"ha":742,"x_min":61,"x_max":701,"o":"m 639 0 q 549 33 576 0 q 515 117 522 67 l 508 117 q 431 17 485 50 q 301 -17 376 -17 q 124 42 188 -17 q 61 200 61 100 q 135 356 61 301 q 367 410 210 410 l 508 410 l 508 481 q 467 597 508 557 q 339 638 425 638 q 230 608 274 638 q 157 531 186 579 l 90 593 q 183 692 119 651 q 344 733 247 733 q 547 669 475 733 q 619 492 619 606 l 619 97 l 701 97 l 701 0 l 639 0 m 319 78 q 396 88 361 78 q 456 115 431 97 q 494 157 481 133 q 508 208 508 181 l 508 326 l 361 326 q 222 299 265 326 q 178 218 178 271 l 178 189 q 216 107 178 136 q 319 78 254 78 m 222 858 q 170 876 186 858 q 154 922 154 893 l 154 938 q 170 984 154 967 q 222 1001 186 1001 q 274 984 258 1001 q 290 938 290 967 l 290 922 q 274 876 290 893 q 222 858 258 858 m 481 858 q 428 876 444 858 q 413 922 413 893 l 413 938 q 428 984 413 967 q 481 1001 444 1001 q 533 984 517 1001 q 549 938 549 967 l 549 922 q 533 876 549 893 q 481 858 517 858 z "},"ạ":{"ha":742,"x_min":61,"x_max":701,"o":"m 639 0 q 549 33 576 0 q 515 117 522 67 l 508 117 q 431 17 485 50 q 301 -17 376 -17 q 124 42 188 -17 q 61 200 61 100 q 135 356 61 301 q 367 410 210 410 l 508 410 l 508 481 q 467 597 508 557 q 339 638 425 638 q 230 608 274 638 q 157 531 186 579 l 90 593 q 183 692 119 651 q 344 733 247 733 q 547 669 475 733 q 619 492 619 606 l 619 97 l 701 97 l 701 0 l 639 0 m 319 78 q 396 88 361 78 q 456 115 431 97 q 494 157 481 133 q 508 208 508 181 l 508 326 l 361 326 q 222 299 265 326 q 178 218 178 271 l 178 189 q 216 107 178 136 q 319 78 254 78 m 340 -235 q 287 -217 304 -235 q 269 -171 269 -200 l 269 -156 q 287 -109 269 -126 q 340 -92 304 -92 q 394 -109 376 -92 q 411 -156 411 -126 l 411 -171 q 394 -217 411 -200 q 340 -235 376 -235 z "},"à":{"ha":742,"x_min":61,"x_max":701,"o":"m 639 0 q 549 33 576 0 q 515 117 522 67 l 508 117 q 431 17 485 50 q 301 -17 376 -17 q 124 42 188 -17 q 61 200 61 100 q 135 356 61 301 q 367 410 210 410 l 508 410 l 508 481 q 467 597 508 557 q 339 638 425 638 q 230 608 274 638 q 157 531 186 579 l 90 593 q 183 692 119 651 q 344 733 247 733 q 547 669 475 733 q 619 492 619 606 l 619 97 l 701 97 l 701 0 l 639 0 m 319 78 q 396 88 361 78 q 456 115 431 97 q 494 157 481 133 q 508 208 508 181 l 508 326 l 361 326 q 222 299 265 326 q 178 218 178 271 l 178 189 q 216 107 178 136 q 319 78 254 78 m 194 1033 l 296 1082 l 414 846 l 342 813 l 194 1033 z "},"ả":{"ha":742,"x_min":61,"x_max":701,"o":"m 639 0 q 549 33 576 0 q 515 117 522 67 l 508 117 q 431 17 485 50 q 301 -17 376 -17 q 124 42 188 -17 q 61 200 61 100 q 135 356 61 301 q 367 410 210 410 l 508 410 l 508 481 q 467 597 508 557 q 339 638 425 638 q 230 608 274 638 q 157 531 186 579 l 90 593 q 183 692 119 651 q 344 733 247 733 q 547 669 475 733 q 619 492 619 606 l 619 97 l 701 97 l 701 0 l 639 0 m 319 78 q 396 88 361 78 q 456 115 431 97 q 494 157 481 133 q 508 208 508 181 l 508 326 l 361 326 q 222 299 265 326 q 178 218 178 271 l 178 189 q 216 107 178 136 q 319 78 254 78 m 233 1063 l 385 1063 q 460 1040 438 1063 q 482 986 482 1018 q 464 919 482 956 q 414 843 446 883 l 381 801 l 317 833 l 397 978 l 233 978 l 233 1063 z "},"ā":{"ha":742,"x_min":61,"x_max":701,"o":"m 639 0 q 549 33 576 0 q 515 117 522 67 l 508 117 q 431 17 485 50 q 301 -17 376 -17 q 124 42 188 -17 q 61 200 61 100 q 135 356 61 301 q 367 410 210 410 l 508 410 l 508 481 q 467 597 508 557 q 339 638 425 638 q 230 608 274 638 q 157 531 186 579 l 90 593 q 183 692 119 651 q 344 733 247 733 q 547 669 475 733 q 619 492 619 606 l 619 97 l 701 97 l 701 0 l 639 0 m 319 78 q 396 88 361 78 q 456 115 431 97 q 494 157 481 133 q 508 208 508 181 l 508 326 l 361 326 q 222 299 265 326 q 178 218 178 271 l 178 189 q 216 107 178 136 q 319 78 254 78 m 157 979 l 546 979 l 546 885 l 157 885 l 157 979 z "},"ą":{"ha":742,"x_min":61,"x_max":731,"o":"m 701 0 q 631 -68 657 -40 q 590 -115 604 -96 q 570 -147 575 -133 q 565 -171 565 -160 q 577 -203 565 -194 q 608 -212 589 -212 q 675 -179 649 -212 l 731 -233 q 688 -272 718 -256 q 608 -287 657 -287 q 515 -262 554 -287 q 476 -182 476 -237 q 488 -132 476 -156 q 518 -87 499 -108 q 563 -44 538 -65 q 618 -3 589 -24 l 617 1 q 544 40 568 8 q 515 117 521 72 l 508 117 q 431 17 485 50 q 301 -17 376 -17 q 124 42 188 -17 q 61 200 61 100 q 135 356 61 301 q 367 410 210 410 l 508 410 l 508 481 q 467 597 508 557 q 339 638 425 638 q 230 608 274 638 q 157 531 186 579 l 90 593 q 183 692 119 651 q 344 733 247 733 q 547 669 475 733 q 619 492 619 606 l 619 97 l 701 97 l 701 0 m 361 326 q 222 299 265 326 q 178 218 178 271 l 178 189 q 216 107 178 136 q 319 78 254 78 q 396 88 361 78 q 456 115 431 97 q 494 157 481 133 q 508 208 508 181 l 508 326 l 361 326 z "},"å":{"ha":742,"x_min":61,"x_max":701,"o":"m 639 0 q 549 33 576 0 q 515 117 522 67 l 508 117 q 431 17 485 50 q 301 -17 376 -17 q 124 42 188 -17 q 61 200 61 100 q 135 356 61 301 q 367 410 210 410 l 508 410 l 508 481 q 467 597 508 557 q 339 638 425 638 q 230 608 274 638 q 157 531 186 579 l 90 593 q 183 692 119 651 q 344 733 247 733 q 547 669 475 733 q 619 492 619 606 l 619 97 l 701 97 l 701 0 l 639 0 m 319 78 q 396 88 361 78 q 456 115 431 97 q 494 157 481 133 q 508 208 508 181 l 508 326 l 361 326 q 222 299 265 326 q 178 218 178 271 l 178 189 q 216 107 178 136 q 319 78 254 78 m 351 800 q 288 812 318 800 q 237 845 258 824 q 203 896 215 867 q 190 960 190 925 q 203 1024 190 994 q 237 1074 215 1053 q 288 1108 258 1096 q 351 1119 318 1119 q 415 1108 385 1119 q 466 1074 444 1096 q 500 1024 488 1053 q 513 960 513 994 q 500 896 513 925 q 466 845 488 867 q 415 812 444 824 q 351 800 385 800 m 351 868 q 410 888 389 868 q 432 944 432 908 l 432 975 q 410 1031 432 1011 q 351 1051 389 1051 q 292 1031 314 1051 q 271 975 271 1011 l 271 944 q 292 888 271 908 q 351 868 314 868 z "},"ǻ":{"ha":742,"x_min":61,"x_max":701,"o":"m 639 0 q 549 33 576 0 q 515 117 522 67 l 508 117 q 431 17 485 50 q 301 -17 376 -17 q 124 42 188 -17 q 61 200 61 100 q 135 356 61 301 q 367 410 210 410 l 508 410 l 508 481 q 467 597 508 557 q 339 638 425 638 q 230 608 274 638 q 157 531 186 579 l 90 593 q 183 692 119 651 q 344 733 247 733 q 547 669 475 733 q 619 492 619 606 l 619 97 l 701 97 l 701 0 l 639 0 m 319 78 q 396 88 361 78 q 456 115 431 97 q 494 157 481 133 q 508 208 508 181 l 508 326 l 361 326 q 222 299 265 326 q 178 218 178 271 l 178 189 q 216 107 178 136 q 319 78 254 78 m 367 1131 l 310 1167 l 414 1328 l 497 1276 l 367 1131 m 351 786 q 288 798 318 786 q 237 831 258 810 q 203 882 215 853 q 190 946 190 911 q 203 1010 190 981 q 237 1060 215 1039 q 288 1094 258 1082 q 351 1106 318 1106 q 415 1094 385 1106 q 466 1060 444 1082 q 500 1010 488 1039 q 513 946 513 981 q 500 882 513 911 q 466 831 488 853 q 415 798 444 810 q 351 786 385 786 m 351 854 q 410 874 389 854 q 432 931 432 894 l 432 961 q 410 1017 432 997 q 351 1038 389 1038 q 292 1017 314 1038 q 271 961 271 997 l 271 931 q 292 874 271 894 q 351 854 314 854 z "},"ã":{"ha":742,"x_min":61,"x_max":701,"o":"m 639 0 q 549 33 576 0 q 515 117 522 67 l 508 117 q 431 17 485 50 q 301 -17 376 -17 q 124 42 188 -17 q 61 200 61 100 q 135 356 61 301 q 367 410 210 410 l 508 410 l 508 481 q 467 597 508 557 q 339 638 425 638 q 230 608 274 638 q 157 531 186 579 l 90 593 q 183 692 119 651 q 344 733 247 733 q 547 669 475 733 q 619 492 619 606 l 619 97 l 701 97 l 701 0 l 639 0 m 319 78 q 396 88 361 78 q 456 115 431 97 q 494 157 481 133 q 508 208 508 181 l 508 326 l 361 326 q 222 299 265 326 q 178 218 178 271 l 178 189 q 216 107 178 136 q 319 78 254 78 m 453 850 q 390 863 417 850 q 342 886 364 875 q 285 912 308 904 q 244 919 263 919 q 203 910 221 919 q 164 882 185 900 l 118 938 q 169 988 138 965 q 250 1011 201 1011 q 313 999 286 1011 q 361 975 339 986 q 417 949 394 957 q 458 942 440 942 q 500 951 482 942 q 539 979 518 961 l 585 924 q 533 873 565 896 q 453 850 501 850 z "},"ắ":{"ha":742,"x_min":61,"x_max":701,"o":"m 639 0 q 549 33 576 0 q 515 117 522 67 l 508 117 q 431 17 485 50 q 301 -17 376 -17 q 124 42 188 -17 q 61 200 61 100 q 135 356 61 301 q 367 410 210 410 l 508 410 l 508 481 q 467 597 508 557 q 339 638 425 638 q 230 608 274 638 q 157 531 186 579 l 90 593 q 183 692 119 651 q 344 733 247 733 q 547 669 475 733 q 619 492 619 606 l 619 97 l 701 97 l 701 0 l 639 0 m 319 78 q 396 88 361 78 q 456 115 431 97 q 494 157 481 133 q 508 208 508 181 l 508 326 l 361 326 q 222 299 265 326 q 178 218 178 271 l 178 189 q 216 107 178 136 q 319 78 254 78 m 350 813 q 258 829 294 813 q 197 872 221 846 q 159 928 172 897 q 136 988 146 958 l 199 1018 l 228 972 q 272 918 246 942 q 350 894 297 894 q 395 901 376 894 q 428 918 414 907 q 452 943 442 929 q 472 972 463 957 l 501 1018 l 564 988 q 541 928 554 958 q 503 872 528 897 q 442 829 479 846 q 350 813 406 813 m 356 969 l 288 1001 l 406 1238 l 503 1190 l 356 969 z "},"ặ":{"ha":742,"x_min":61,"x_max":701,"o":"m 639 0 q 549 33 576 0 q 515 117 522 67 l 508 117 q 431 17 485 50 q 301 -17 376 -17 q 124 42 188 -17 q 61 200 61 100 q 135 356 61 301 q 367 410 210 410 l 508 410 l 508 481 q 467 597 508 557 q 339 638 425 638 q 230 608 274 638 q 157 531 186 579 l 90 593 q 183 692 119 651 q 344 733 247 733 q 547 669 475 733 q 619 492 619 606 l 619 97 l 701 97 l 701 0 l 639 0 m 319 78 q 396 88 361 78 q 456 115 431 97 q 494 157 481 133 q 508 208 508 181 l 508 326 l 361 326 q 222 299 265 326 q 178 218 178 271 l 178 189 q 216 107 178 136 q 319 78 254 78 m 351 828 q 259 844 296 828 q 199 886 222 861 q 163 942 176 911 q 140 1001 150 972 l 203 1032 l 232 986 q 274 935 250 956 q 351 915 299 915 q 397 921 378 915 q 428 935 415 926 q 451 958 442 944 q 471 986 461 971 l 500 1032 l 563 1001 q 540 942 553 972 q 503 886 526 911 q 444 844 481 861 q 351 828 407 828 m 340 -235 q 287 -217 304 -235 q 269 -171 269 -200 l 269 -156 q 287 -109 269 -126 q 340 -92 304 -92 q 394 -109 376 -92 q 411 -156 411 -126 l 411 -171 q 394 -217 411 -200 q 340 -235 376 -235 z "},"ằ":{"ha":742,"x_min":61,"x_max":701,"o":"m 639 0 q 549 33 576 0 q 515 117 522 67 l 508 117 q 431 17 485 50 q 301 -17 376 -17 q 124 42 188 -17 q 61 200 61 100 q 135 356 61 301 q 367 410 210 410 l 508 410 l 508 481 q 467 597 508 557 q 339 638 425 638 q 230 608 274 638 q 157 531 186 579 l 90 593 q 183 692 119 651 q 344 733 247 733 q 547 669 475 733 q 619 492 619 606 l 619 97 l 701 97 l 701 0 l 639 0 m 319 78 q 396 88 361 78 q 456 115 431 97 q 494 157 481 133 q 508 208 508 181 l 508 326 l 361 326 q 222 299 265 326 q 178 218 178 271 l 178 189 q 216 107 178 136 q 319 78 254 78 m 350 813 q 258 829 294 813 q 197 872 221 846 q 159 928 172 897 q 136 988 146 958 l 199 1018 l 228 972 q 272 918 246 942 q 350 894 297 894 q 395 901 376 894 q 428 918 414 907 q 452 943 442 929 q 472 972 463 957 l 501 1018 l 564 988 q 541 928 554 958 q 503 872 528 897 q 442 829 479 846 q 350 813 406 813 m 197 1190 l 294 1238 l 413 1001 l 344 969 l 197 1190 z "},"ẳ":{"ha":742,"x_min":61,"x_max":701,"o":"m 639 0 q 549 33 576 0 q 515 117 522 67 l 508 117 q 431 17 485 50 q 301 -17 376 -17 q 124 42 188 -17 q 61 200 61 100 q 135 356 61 301 q 367 410 210 410 l 508 410 l 508 481 q 467 597 508 557 q 339 638 425 638 q 230 608 274 638 q 157 531 186 579 l 90 593 q 183 692 119 651 q 344 733 247 733 q 547 669 475 733 q 619 492 619 606 l 619 97 l 701 97 l 701 0 l 639 0 m 319 78 q 396 88 361 78 q 456 115 431 97 q 494 157 481 133 q 508 208 508 181 l 508 326 l 361 326 q 222 299 265 326 q 178 218 178 271 l 178 189 q 216 107 178 136 q 319 78 254 78 m 350 813 q 258 829 294 813 q 197 872 221 846 q 159 928 172 897 q 136 988 146 958 l 199 1018 l 228 972 q 272 918 246 942 q 350 894 297 894 q 395 901 376 894 q 428 918 414 907 q 452 943 442 929 q 472 972 463 957 l 501 1018 l 564 988 q 541 928 554 958 q 503 872 528 897 q 442 829 479 846 q 350 813 406 813 m 226 1222 l 357 1222 q 432 1200 410 1222 q 454 1146 454 1178 q 436 1079 454 1115 q 386 1003 418 1043 l 353 961 l 292 993 l 375 1142 l 226 1142 l 226 1222 z "},"ẵ":{"ha":742,"x_min":61,"x_max":701,"o":"m 639 0 q 549 33 576 0 q 515 117 522 67 l 508 117 q 431 17 485 50 q 301 -17 376 -17 q 124 42 188 -17 q 61 200 61 100 q 135 356 61 301 q 367 410 210 410 l 508 410 l 508 481 q 467 597 508 557 q 339 638 425 638 q 230 608 274 638 q 157 531 186 579 l 90 593 q 183 692 119 651 q 344 733 247 733 q 547 669 475 733 q 619 492 619 606 l 619 97 l 701 97 l 701 0 l 639 0 m 319 78 q 396 88 361 78 q 456 115 431 97 q 494 157 481 133 q 508 208 508 181 l 508 326 l 361 326 q 222 299 265 326 q 178 218 178 271 l 178 189 q 216 107 178 136 q 319 78 254 78 m 350 813 q 258 829 294 813 q 197 872 221 846 q 159 928 172 897 q 136 988 146 958 l 199 1018 l 228 972 q 272 918 246 942 q 350 894 297 894 q 395 901 376 894 q 428 918 414 907 q 452 943 442 929 q 472 972 463 957 l 501 1018 l 564 988 q 541 928 554 958 q 503 872 528 897 q 442 829 479 846 q 350 813 406 813 m 450 1072 q 388 1085 414 1072 q 339 1108 361 1097 q 283 1134 306 1126 q 242 1142 260 1142 q 200 1132 218 1142 q 161 1104 182 1122 l 118 1154 q 169 1205 138 1182 q 250 1228 201 1228 q 313 1215 286 1228 q 361 1192 339 1203 q 417 1166 394 1174 q 458 1158 440 1158 q 500 1168 482 1158 q 539 1196 518 1178 l 582 1146 q 531 1095 563 1118 q 450 1072 499 1072 z "},"ấ":{"ha":742,"x_min":61,"x_max":711,"o":"m 639 0 q 549 33 576 0 q 515 117 522 67 l 508 117 q 431 17 485 50 q 301 -17 376 -17 q 124 42 188 -17 q 61 200 61 100 q 135 356 61 301 q 367 410 210 410 l 508 410 l 508 481 q 467 597 508 557 q 339 638 425 638 q 230 608 274 638 q 157 531 186 579 l 90 593 q 183 692 119 651 q 344 733 247 733 q 547 669 475 733 q 619 492 619 606 l 619 97 l 701 97 l 701 0 l 639 0 m 319 78 q 396 88 361 78 q 456 115 431 97 q 494 157 481 133 q 508 208 508 181 l 508 326 l 361 326 q 222 299 265 326 q 178 218 178 271 l 178 189 q 216 107 178 136 q 319 78 254 78 m 564 969 l 496 1001 l 614 1238 l 711 1190 l 564 969 m 419 1035 l 572 849 l 515 807 l 350 963 l 185 807 l 128 849 l 281 1035 l 419 1035 z "},"ậ":{"ha":742,"x_min":61,"x_max":701,"o":"m 639 0 q 549 33 576 0 q 515 117 522 67 l 508 117 q 431 17 485 50 q 301 -17 376 -17 q 124 42 188 -17 q 61 200 61 100 q 135 356 61 301 q 367 410 210 410 l 508 410 l 508 481 q 467 597 508 557 q 339 638 425 638 q 230 608 274 638 q 157 531 186 579 l 90 593 q 183 692 119 651 q 344 733 247 733 q 547 669 475 733 q 619 492 619 606 l 619 97 l 701 97 l 701 0 l 639 0 m 319 78 q 396 88 361 78 q 456 115 431 97 q 494 157 481 133 q 508 208 508 181 l 508 326 l 361 326 q 222 299 265 326 q 178 218 178 271 l 178 189 q 216 107 178 136 q 319 78 254 78 m 421 1063 l 575 864 l 514 821 l 351 983 l 189 821 l 128 864 l 282 1063 l 421 1063 m 340 -235 q 287 -217 304 -235 q 269 -171 269 -200 l 269 -156 q 287 -109 269 -126 q 340 -92 304 -92 q 394 -109 376 -92 q 411 -156 411 -126 l 411 -171 q 394 -217 411 -200 q 340 -235 376 -235 z "},"ầ":{"ha":742,"x_min":-11,"x_max":701,"o":"m 639 0 q 549 33 576 0 q 515 117 522 67 l 508 117 q 431 17 485 50 q 301 -17 376 -17 q 124 42 188 -17 q 61 200 61 100 q 135 356 61 301 q 367 410 210 410 l 508 410 l 508 481 q 467 597 508 557 q 339 638 425 638 q 230 608 274 638 q 157 531 186 579 l 90 593 q 183 692 119 651 q 344 733 247 733 q 547 669 475 733 q 619 492 619 606 l 619 97 l 701 97 l 701 0 l 639 0 m 319 78 q 396 88 361 78 q 456 115 431 97 q 494 157 481 133 q 508 208 508 181 l 508 326 l 361 326 q 222 299 265 326 q 178 218 178 271 l 178 189 q 216 107 178 136 q 319 78 254 78 m -11 1190 l 86 1238 l 204 1001 l 136 969 l -11 1190 m 419 1035 l 572 849 l 515 807 l 350 963 l 185 807 l 128 849 l 281 1035 l 419 1035 z "},"ẩ":{"ha":742,"x_min":61,"x_max":701,"o":"m 639 0 q 549 33 576 0 q 515 117 522 67 l 508 117 q 431 17 485 50 q 301 -17 376 -17 q 124 42 188 -17 q 61 200 61 100 q 135 356 61 301 q 367 410 210 410 l 508 410 l 508 481 q 467 597 508 557 q 339 638 425 638 q 230 608 274 638 q 157 531 186 579 l 90 593 q 183 692 119 651 q 344 733 247 733 q 547 669 475 733 q 619 492 619 606 l 619 97 l 701 97 l 701 0 l 639 0 m 319 78 q 396 88 361 78 q 456 115 431 97 q 494 157 481 133 q 508 208 508 181 l 508 326 l 361 326 q 222 299 265 326 q 178 218 178 271 l 178 189 q 216 107 178 136 q 319 78 254 78 m 419 1222 l 571 1222 q 646 1200 624 1222 q 668 1146 668 1178 q 650 1079 668 1115 q 600 1003 632 1043 l 567 961 l 506 993 l 589 1142 l 419 1142 l 419 1222 m 419 1035 l 572 849 l 515 807 l 350 963 l 185 807 l 128 849 l 281 1035 l 419 1035 z "},"ẫ":{"ha":742,"x_min":61,"x_max":701,"o":"m 639 0 q 549 33 576 0 q 515 117 522 67 l 508 117 q 431 17 485 50 q 301 -17 376 -17 q 124 42 188 -17 q 61 200 61 100 q 135 356 61 301 q 367 410 210 410 l 508 410 l 508 481 q 467 597 508 557 q 339 638 425 638 q 230 608 274 638 q 157 531 186 579 l 90 593 q 183 692 119 651 q 344 733 247 733 q 547 669 475 733 q 619 492 619 606 l 619 97 l 701 97 l 701 0 l 639 0 m 319 78 q 396 88 361 78 q 456 115 431 97 q 494 157 481 133 q 508 208 508 181 l 508 326 l 361 326 q 222 299 265 326 q 178 218 178 271 l 178 189 q 216 107 178 136 q 319 78 254 78 m 250 1228 q 313 1215 286 1228 q 361 1192 339 1203 q 417 1166 394 1174 q 458 1158 440 1158 q 500 1168 482 1158 q 539 1196 518 1178 l 582 1146 q 531 1095 563 1118 q 450 1072 499 1072 q 388 1085 414 1072 q 339 1108 361 1097 q 283 1134 306 1126 q 242 1142 260 1142 q 200 1132 218 1142 q 161 1104 182 1122 l 118 1154 q 169 1205 138 1182 q 250 1228 201 1228 m 419 1035 l 572 849 l 515 807 l 350 963 l 185 807 l 128 849 l 281 1035 l 419 1035 z "},"æ":{"ha":1200,"x_min":61,"x_max":1135,"o":"m 361 331 q 222 299 265 328 q 178 218 178 271 l 178 189 q 216 107 178 136 q 321 78 254 78 q 395 88 361 78 q 454 115 429 97 q 494 157 479 133 q 508 208 508 181 l 508 331 l 361 331 m 1015 414 l 1015 429 q 963 583 1015 525 q 825 640 911 640 q 742 624 779 640 q 677 579 704 608 q 635 510 650 550 q 619 424 619 471 l 619 414 l 1015 414 m 832 81 q 1029 203 969 81 l 1108 147 q 1002 28 1074 72 q 838 -17 931 -17 q 734 -1 781 -17 q 653 40 688 15 q 599 92 619 64 q 572 144 578 121 l 564 144 q 540 93 560 121 q 486 41 519 65 q 406 0 453 17 q 299 -17 358 -17 q 126 41 190 -17 q 61 197 61 99 q 138 358 61 301 q 367 414 214 414 l 508 414 l 508 481 q 467 597 508 557 q 343 638 425 638 q 231 610 274 638 q 157 532 188 582 l 90 593 q 183 692 118 650 q 346 733 247 733 q 448 716 407 733 q 515 674 489 699 q 553 622 540 650 q 571 574 565 594 l 579 574 q 606 625 585 597 q 660 677 626 653 q 738 717 693 701 q 838 733 783 733 q 960 707 906 733 q 1054 634 1015 681 q 1114 524 1093 588 q 1135 383 1135 460 l 1135 331 l 619 331 l 619 297 q 634 212 619 251 q 676 143 649 172 q 742 97 703 114 q 832 81 782 81 z "},"ǽ":{"ha":1200,"x_min":61,"x_max":1135,"o":"m 361 331 q 222 299 265 328 q 178 218 178 271 l 178 189 q 216 107 178 136 q 321 78 254 78 q 395 88 361 78 q 454 115 429 97 q 494 157 479 133 q 508 208 508 181 l 508 331 l 361 331 m 1015 414 l 1015 429 q 963 583 1015 525 q 825 640 911 640 q 742 624 779 640 q 677 579 704 608 q 635 510 650 550 q 619 424 619 471 l 619 414 l 1015 414 m 832 81 q 1029 203 969 81 l 1108 147 q 1002 28 1074 72 q 838 -17 931 -17 q 734 -1 781 -17 q 653 40 688 15 q 599 92 619 64 q 572 144 578 121 l 564 144 q 540 93 560 121 q 486 41 519 65 q 406 0 453 17 q 299 -17 358 -17 q 126 41 190 -17 q 61 197 61 99 q 138 358 61 301 q 367 414 214 414 l 508 414 l 508 481 q 467 597 508 557 q 343 638 425 638 q 231 610 274 638 q 157 532 188 582 l 90 593 q 183 692 118 650 q 346 733 247 733 q 448 716 407 733 q 515 674 489 699 q 553 622 540 650 q 571 574 565 594 l 579 574 q 606 625 585 597 q 660 677 626 653 q 738 717 693 701 q 838 733 783 733 q 960 707 906 733 q 1054 634 1015 681 q 1114 524 1093 588 q 1135 383 1135 460 l 1135 331 l 619 331 l 619 297 q 634 212 619 251 q 676 143 649 172 q 742 97 703 114 q 832 81 782 81 m 585 813 l 513 846 l 631 1082 l 732 1033 l 585 813 z "},"ć":{"ha":699,"x_min":65,"x_max":660,"o":"m 385 -17 q 250 10 310 -17 q 149 85 190 36 q 87 203 108 133 q 65 358 65 272 q 87 514 65 444 q 149 632 108 583 q 250 707 190 681 q 385 733 310 733 q 556 687 492 733 q 653 565 621 640 l 560 518 q 496 604 540 574 q 385 635 451 635 q 297 619 335 635 q 235 574 260 603 q 197 506 210 546 q 185 419 185 467 l 185 297 q 235 142 185 203 q 385 82 286 82 q 579 207 519 82 l 660 153 q 556 29 625 75 q 385 -17 488 -17 m 394 813 l 322 846 l 440 1082 l 542 1033 l 394 813 z "},"č":{"ha":699,"x_min":65,"x_max":660,"o":"m 385 -17 q 250 10 310 -17 q 149 85 190 36 q 87 203 108 133 q 65 358 65 272 q 87 514 65 444 q 149 632 108 583 q 250 707 190 681 q 385 733 310 733 q 556 687 492 733 q 653 565 621 640 l 560 518 q 496 604 540 574 q 385 635 451 635 q 297 619 335 635 q 235 574 260 603 q 197 506 210 546 q 185 419 185 467 l 185 297 q 235 142 185 203 q 385 82 286 82 q 579 207 519 82 l 660 153 q 556 29 625 75 q 385 -17 488 -17 m 315 832 l 161 1031 l 222 1074 l 385 911 l 547 1074 l 608 1031 l 454 832 l 315 832 z "},"ç":{"ha":699,"x_min":65,"x_max":660,"o":"m 385 733 q 556 687 492 733 q 653 567 621 640 l 560 518 q 496 604 540 574 q 385 635 451 635 q 297 619 335 635 q 235 574 260 603 q 197 506 210 546 q 185 419 185 467 l 185 297 q 235 142 185 203 q 385 82 286 82 q 579 207 519 82 l 660 153 q 567 37 628 82 q 415 -15 506 -8 l 401 -85 l 406 -89 q 460 -81 432 -81 q 527 -104 500 -81 q 554 -172 554 -128 q 542 -224 554 -201 q 508 -260 529 -246 q 458 -281 486 -274 q 400 -287 431 -287 q 310 -269 343 -287 q 263 -231 278 -250 l 315 -174 q 349 -201 328 -189 q 400 -212 369 -212 q 444 -202 426 -212 q 461 -169 461 -192 q 443 -135 461 -150 q 367 -112 425 -121 l 328 -107 l 346 -15 q 138 99 211 -1 q 65 358 65 199 q 87 514 65 444 q 149 632 108 583 q 250 707 190 681 q 385 733 310 733 z "},"ĉ":{"ha":699,"x_min":65,"x_max":660,"o":"m 385 -17 q 250 10 310 -17 q 149 85 190 36 q 87 203 108 133 q 65 358 65 272 q 87 514 65 444 q 149 632 108 583 q 250 707 190 681 q 385 733 310 733 q 556 687 492 733 q 653 565 621 640 l 560 518 q 496 604 540 574 q 385 635 451 635 q 297 619 335 635 q 235 574 260 603 q 197 506 210 546 q 185 419 185 467 l 185 297 q 235 142 185 203 q 385 82 286 82 q 579 207 519 82 l 660 153 q 556 29 625 75 q 385 -17 488 -17 m 454 1063 l 608 864 l 547 821 l 385 983 l 222 821 l 161 864 l 315 1063 l 454 1063 z "},"ċ":{"ha":699,"x_min":65,"x_max":660,"o":"m 385 -17 q 250 10 310 -17 q 149 85 190 36 q 87 203 108 133 q 65 358 65 272 q 87 514 65 444 q 149 632 108 583 q 250 707 190 681 q 385 733 310 733 q 556 687 492 733 q 653 565 621 640 l 560 518 q 496 604 540 574 q 385 635 451 635 q 297 619 335 635 q 235 574 260 603 q 197 506 210 546 q 185 419 185 467 l 185 297 q 235 142 185 203 q 385 82 286 82 q 579 207 519 82 l 660 153 q 556 29 625 75 q 385 -17 488 -17 m 385 856 q 331 873 349 856 q 314 919 314 890 l 314 935 q 331 981 314 964 q 385 999 349 999 q 438 981 421 999 q 456 935 456 964 l 456 919 q 438 873 456 890 q 385 856 421 856 z "},"ď":{"ha":838,"x_min":69,"x_max":911,"o":"m 839 771 l 765 771 l 782 1028 l 911 1028 l 839 771 m 576 117 l 571 117 q 361 -17 506 -17 q 240 10 294 -17 q 148 85 186 36 q 90 203 110 133 q 69 358 69 272 q 90 514 69 444 q 148 632 110 583 q 240 707 186 681 q 361 733 294 733 q 490 701 436 733 q 571 600 543 668 l 576 600 l 576 1028 l 688 1028 l 688 0 l 576 0 l 576 117 m 392 83 q 463 93 429 83 q 522 122 497 103 q 562 167 547 140 q 576 229 576 194 l 576 496 q 562 551 576 525 q 522 594 547 576 q 463 623 497 613 q 392 633 429 633 q 243 574 297 633 q 189 419 189 515 l 189 297 q 243 142 189 201 q 392 83 297 83 z "},"đ":{"ha":810,"x_min":69,"x_max":776,"o":"m 576 117 l 571 117 q 361 -17 506 -17 q 240 10 294 -17 q 148 85 186 36 q 90 203 110 133 q 69 358 69 272 q 90 514 69 444 q 148 632 110 583 q 240 707 186 681 q 361 733 294 733 q 490 701 436 733 q 571 600 543 668 l 576 600 l 576 844 l 368 844 l 368 931 l 576 931 l 576 1028 l 688 1028 l 688 931 l 776 931 l 776 844 l 688 844 l 688 0 l 576 0 l 576 117 m 392 83 q 463 93 429 83 q 522 122 497 103 q 562 167 547 140 q 576 229 576 194 l 576 496 q 562 551 576 525 q 522 594 547 576 q 463 623 497 613 q 392 633 429 633 q 243 574 297 633 q 189 419 189 515 l 189 297 q 243 142 189 201 q 392 83 297 83 z "},"ð":{"ha":771,"x_min":65,"x_max":701,"o":"m 581 989 l 472 911 q 557 814 515 868 q 631 693 599 760 q 682 547 663 626 q 701 376 701 468 q 678 206 701 279 q 612 83 654 132 q 511 8 569 33 q 383 -17 453 -17 q 251 10 310 -17 q 151 83 192 36 q 88 197 110 131 q 65 342 65 263 q 88 487 65 421 q 151 600 110 553 q 251 674 192 647 q 383 700 310 700 q 497 664 451 700 q 564 564 543 628 l 569 567 q 506 719 554 646 q 392 854 458 792 l 282 776 l 239 833 l 336 903 q 246 969 292 939 q 154 1028 200 1000 l 325 1028 q 369 999 346 1015 q 417 961 393 982 l 535 1046 l 581 989 m 383 79 q 528 138 474 79 q 582 296 582 196 l 582 388 q 528 546 582 488 q 383 604 474 604 q 239 546 293 604 q 185 388 185 488 l 185 296 q 239 138 185 196 q 383 79 293 79 z "},"é":{"ha":763,"x_min":65,"x_max":697,"o":"m 388 -17 q 255 10 314 -17 q 153 85 196 36 q 88 203 111 135 q 65 358 65 272 q 88 513 65 443 q 153 631 111 582 q 255 707 196 681 q 388 733 314 733 q 517 707 460 733 q 614 634 574 681 q 676 524 654 588 q 697 383 697 460 l 697 331 l 182 331 l 182 297 q 197 212 182 251 q 238 143 211 172 q 305 97 265 114 q 394 81 344 81 q 513 113 463 81 q 592 204 564 144 l 671 147 q 563 28 636 74 q 388 -17 489 -17 m 388 640 q 304 624 342 640 q 240 579 267 608 q 197 510 213 550 q 182 424 182 471 l 182 414 l 578 414 l 578 429 q 526 583 578 525 q 388 640 474 640 m 399 813 l 326 846 l 444 1082 l 546 1033 l 399 813 z "},"ĕ":{"ha":763,"x_min":65,"x_max":697,"o":"m 388 -17 q 255 10 314 -17 q 153 85 196 36 q 88 203 111 135 q 65 358 65 272 q 88 513 65 443 q 153 631 111 582 q 255 707 196 681 q 388 733 314 733 q 517 707 460 733 q 614 634 574 681 q 676 524 654 588 q 697 383 697 460 l 697 331 l 182 331 l 182 297 q 197 212 182 251 q 238 143 211 172 q 305 97 265 114 q 394 81 344 81 q 513 113 463 81 q 592 204 564 144 l 671 147 q 563 28 636 74 q 388 -17 489 -17 m 388 640 q 304 624 342 640 q 240 579 267 608 q 197 510 213 550 q 182 424 182 471 l 182 414 l 578 414 l 578 429 q 526 583 578 525 q 388 640 474 640 m 389 828 q 297 844 333 828 q 237 886 260 861 q 201 942 214 911 q 178 1001 188 972 l 240 1032 l 269 986 q 312 935 288 956 q 389 915 336 915 q 434 921 415 915 q 466 935 453 926 q 489 958 479 944 q 508 986 499 971 l 538 1032 l 600 1001 q 577 942 590 972 q 541 886 564 911 q 481 844 518 861 q 389 828 444 828 z "},"ě":{"ha":763,"x_min":65,"x_max":697,"o":"m 388 -17 q 255 10 314 -17 q 153 85 196 36 q 88 203 111 135 q 65 358 65 272 q 88 513 65 443 q 153 631 111 582 q 255 707 196 681 q 388 733 314 733 q 517 707 460 733 q 614 634 574 681 q 676 524 654 588 q 697 383 697 460 l 697 331 l 182 331 l 182 297 q 197 212 182 251 q 238 143 211 172 q 305 97 265 114 q 394 81 344 81 q 513 113 463 81 q 592 204 564 144 l 671 147 q 563 28 636 74 q 388 -17 489 -17 m 388 640 q 304 624 342 640 q 240 579 267 608 q 197 510 213 550 q 182 424 182 471 l 182 414 l 578 414 l 578 429 q 526 583 578 525 q 388 640 474 640 m 319 832 l 165 1031 l 226 1074 l 389 911 l 551 1074 l 613 1031 l 458 832 l 319 832 z "},"ê":{"ha":763,"x_min":65,"x_max":697,"o":"m 388 -17 q 255 10 314 -17 q 153 85 196 36 q 88 203 111 135 q 65 358 65 272 q 88 513 65 443 q 153 631 111 582 q 255 707 196 681 q 388 733 314 733 q 517 707 460 733 q 614 634 574 681 q 676 524 654 588 q 697 383 697 460 l 697 331 l 182 331 l 182 297 q 197 212 182 251 q 238 143 211 172 q 305 97 265 114 q 394 81 344 81 q 513 113 463 81 q 592 204 564 144 l 671 147 q 563 28 636 74 q 388 -17 489 -17 m 388 640 q 304 624 342 640 q 240 579 267 608 q 197 510 213 550 q 182 424 182 471 l 182 414 l 578 414 l 578 429 q 526 583 578 525 q 388 640 474 640 m 458 1063 l 613 864 l 551 821 l 389 983 l 226 821 l 165 864 l 319 1063 l 458 1063 z "},"ë":{"ha":763,"x_min":65,"x_max":697,"o":"m 388 -17 q 255 10 314 -17 q 153 85 196 36 q 88 203 111 135 q 65 358 65 272 q 88 513 65 443 q 153 631 111 582 q 255 707 196 681 q 388 733 314 733 q 517 707 460 733 q 614 634 574 681 q 676 524 654 588 q 697 383 697 460 l 697 331 l 182 331 l 182 297 q 197 212 182 251 q 238 143 211 172 q 305 97 265 114 q 394 81 344 81 q 513 113 463 81 q 592 204 564 144 l 671 147 q 563 28 636 74 q 388 -17 489 -17 m 388 640 q 304 624 342 640 q 240 579 267 608 q 197 510 213 550 q 182 424 182 471 l 182 414 l 578 414 l 578 429 q 526 583 578 525 q 388 640 474 640 m 260 858 q 208 876 224 858 q 192 922 192 893 l 192 938 q 208 984 192 967 q 260 1001 224 1001 q 312 984 296 1001 q 328 938 328 967 l 328 922 q 312 876 328 893 q 260 858 296 858 m 518 858 q 466 876 482 858 q 450 922 450 893 l 450 938 q 466 984 450 967 q 518 1001 482 1001 q 570 984 554 1001 q 586 938 586 967 l 586 922 q 570 876 586 893 q 518 858 554 858 z "},"ė":{"ha":763,"x_min":65,"x_max":697,"o":"m 388 -17 q 255 10 314 -17 q 153 85 196 36 q 88 203 111 135 q 65 358 65 272 q 88 513 65 443 q 153 631 111 582 q 255 707 196 681 q 388 733 314 733 q 517 707 460 733 q 614 634 574 681 q 676 524 654 588 q 697 383 697 460 l 697 331 l 182 331 l 182 297 q 197 212 182 251 q 238 143 211 172 q 305 97 265 114 q 394 81 344 81 q 513 113 463 81 q 592 204 564 144 l 671 147 q 563 28 636 74 q 388 -17 489 -17 m 388 640 q 304 624 342 640 q 240 579 267 608 q 197 510 213 550 q 182 424 182 471 l 182 414 l 578 414 l 578 429 q 526 583 578 525 q 388 640 474 640 m 389 856 q 335 873 353 856 q 318 919 318 890 l 318 935 q 335 981 318 964 q 389 999 353 999 q 442 981 425 999 q 460 935 460 964 l 460 919 q 442 873 460 890 q 389 856 425 856 z "},"ẹ":{"ha":763,"x_min":65,"x_max":697,"o":"m 388 -17 q 255 10 314 -17 q 153 85 196 36 q 88 203 111 135 q 65 358 65 272 q 88 513 65 443 q 153 631 111 582 q 255 707 196 681 q 388 733 314 733 q 517 707 460 733 q 614 634 574 681 q 676 524 654 588 q 697 383 697 460 l 697 331 l 182 331 l 182 297 q 197 212 182 251 q 238 143 211 172 q 305 97 265 114 q 394 81 344 81 q 513 113 463 81 q 592 204 564 144 l 671 147 q 563 28 636 74 q 388 -17 489 -17 m 388 640 q 304 624 342 640 q 240 579 267 608 q 197 510 213 550 q 182 424 182 471 l 182 414 l 578 414 l 578 429 q 526 583 578 525 q 388 640 474 640 m 393 -235 q 340 -217 357 -235 q 322 -171 322 -200 l 322 -156 q 340 -109 322 -126 q 393 -92 357 -92 q 447 -109 429 -92 q 464 -156 464 -126 l 464 -171 q 447 -217 464 -200 q 393 -235 429 -235 z "},"è":{"ha":763,"x_min":65,"x_max":697,"o":"m 388 -17 q 255 10 314 -17 q 153 85 196 36 q 88 203 111 135 q 65 358 65 272 q 88 513 65 443 q 153 631 111 582 q 255 707 196 681 q 388 733 314 733 q 517 707 460 733 q 614 634 574 681 q 676 524 654 588 q 697 383 697 460 l 697 331 l 182 331 l 182 297 q 197 212 182 251 q 238 143 211 172 q 305 97 265 114 q 394 81 344 81 q 513 113 463 81 q 592 204 564 144 l 671 147 q 563 28 636 74 q 388 -17 489 -17 m 388 640 q 304 624 342 640 q 240 579 267 608 q 197 510 213 550 q 182 424 182 471 l 182 414 l 578 414 l 578 429 q 526 583 578 525 q 388 640 474 640 m 232 1033 l 333 1082 l 451 846 l 379 813 l 232 1033 z "},"ẻ":{"ha":763,"x_min":65,"x_max":697,"o":"m 388 -17 q 255 10 314 -17 q 153 85 196 36 q 88 203 111 135 q 65 358 65 272 q 88 513 65 443 q 153 631 111 582 q 255 707 196 681 q 388 733 314 733 q 517 707 460 733 q 614 634 574 681 q 676 524 654 588 q 697 383 697 460 l 697 331 l 182 331 l 182 297 q 197 212 182 251 q 238 143 211 172 q 305 97 265 114 q 394 81 344 81 q 513 113 463 81 q 592 204 564 144 l 671 147 q 563 28 636 74 q 388 -17 489 -17 m 388 640 q 304 624 342 640 q 240 579 267 608 q 197 510 213 550 q 182 424 182 471 l 182 414 l 578 414 l 578 429 q 526 583 578 525 q 388 640 474 640 m 271 1063 l 422 1063 q 497 1040 475 1063 q 519 986 519 1018 q 501 919 519 956 q 451 843 483 883 l 418 801 l 354 833 l 435 978 l 271 978 l 271 1063 z "},"ē":{"ha":763,"x_min":65,"x_max":697,"o":"m 388 -17 q 255 10 314 -17 q 153 85 196 36 q 88 203 111 135 q 65 358 65 272 q 88 513 65 443 q 153 631 111 582 q 255 707 196 681 q 388 733 314 733 q 517 707 460 733 q 614 634 574 681 q 676 524 654 588 q 697 383 697 460 l 697 331 l 182 331 l 182 297 q 197 212 182 251 q 238 143 211 172 q 305 97 265 114 q 394 81 344 81 q 513 113 463 81 q 592 204 564 144 l 671 147 q 563 28 636 74 q 388 -17 489 -17 m 388 640 q 304 624 342 640 q 240 579 267 608 q 197 510 213 550 q 182 424 182 471 l 182 414 l 578 414 l 578 429 q 526 583 578 525 q 388 640 474 640 m 194 979 l 583 979 l 583 885 l 194 885 l 194 979 z "},"ę":{"ha":763,"x_min":65,"x_max":697,"o":"m 494 -287 q 402 -262 440 -287 q 364 -181 364 -237 q 376 -124 364 -150 q 410 -75 389 -97 q 456 -35 431 -53 q 506 0 481 -17 l 500 7 q 455 -10 482 -3 q 388 -17 428 -17 q 255 10 314 -17 q 153 85 196 36 q 88 203 111 135 q 65 358 65 272 q 88 513 65 443 q 153 631 111 582 q 255 707 196 681 q 388 733 314 733 q 517 707 460 733 q 614 634 574 681 q 676 524 654 588 q 697 383 697 460 l 697 331 l 182 331 l 182 297 q 197 212 182 251 q 238 143 211 172 q 305 97 265 114 q 394 81 344 81 q 513 113 463 81 q 592 204 564 144 l 671 147 q 649 108 660 124 q 624 74 639 92 q 574 18 603 47 q 517 -42 544 -11 q 472 -106 490 -74 q 453 -169 453 -139 q 465 -203 453 -193 q 496 -212 476 -212 q 563 -179 536 -212 l 617 -233 q 574 -272 604 -256 q 494 -287 543 -287 m 578 414 l 578 429 q 526 583 578 525 q 388 640 474 640 q 304 624 342 640 q 240 579 267 608 q 197 510 213 550 q 182 424 182 471 l 182 414 l 578 414 z "},"ẽ":{"ha":763,"x_min":65,"x_max":697,"o":"m 388 -17 q 255 10 314 -17 q 153 85 196 36 q 88 203 111 135 q 65 358 65 272 q 88 513 65 443 q 153 631 111 582 q 255 707 196 681 q 388 733 314 733 q 517 707 460 733 q 614 634 574 681 q 676 524 654 588 q 697 383 697 460 l 697 331 l 182 331 l 182 297 q 197 212 182 251 q 238 143 211 172 q 305 97 265 114 q 394 81 344 81 q 513 113 463 81 q 592 204 564 144 l 671 147 q 563 28 636 74 q 388 -17 489 -17 m 388 640 q 304 624 342 640 q 240 579 267 608 q 197 510 213 550 q 182 424 182 471 l 182 414 l 578 414 l 578 429 q 526 583 578 525 q 388 640 474 640 m 490 850 q 428 863 454 850 q 379 886 401 875 q 323 912 346 904 q 282 919 300 919 q 240 910 258 919 q 201 882 222 900 l 156 938 q 207 988 175 965 q 288 1011 239 1011 q 350 999 324 1011 q 399 975 376 986 q 455 949 432 957 q 496 942 478 942 q 538 951 519 942 q 576 979 556 961 l 622 924 q 571 873 603 896 q 490 850 539 850 z "},"ế":{"ha":763,"x_min":65,"x_max":749,"o":"m 388 -17 q 255 10 314 -17 q 153 85 196 36 q 88 203 111 135 q 65 358 65 272 q 88 513 65 443 q 153 631 111 582 q 255 707 196 681 q 388 733 314 733 q 517 707 460 733 q 614 634 574 681 q 676 524 654 588 q 697 383 697 460 l 697 331 l 182 331 l 182 297 q 197 212 182 251 q 238 143 211 172 q 305 97 265 114 q 394 81 344 81 q 513 113 463 81 q 592 204 564 144 l 671 147 q 563 28 636 74 q 388 -17 489 -17 m 388 640 q 304 624 342 640 q 240 579 267 608 q 197 510 213 550 q 182 424 182 471 l 182 414 l 578 414 l 578 429 q 526 583 578 525 q 388 640 474 640 m 601 969 l 533 1001 l 651 1238 l 749 1190 l 601 969 m 457 1035 l 610 849 l 553 807 l 388 963 l 222 807 l 165 849 l 318 1035 l 457 1035 z "},"ệ":{"ha":763,"x_min":65,"x_max":697,"o":"m 388 -17 q 255 10 314 -17 q 153 85 196 36 q 88 203 111 135 q 65 358 65 272 q 88 513 65 443 q 153 631 111 582 q 255 707 196 681 q 388 733 314 733 q 517 707 460 733 q 614 634 574 681 q 676 524 654 588 q 697 383 697 460 l 697 331 l 182 331 l 182 297 q 197 212 182 251 q 238 143 211 172 q 305 97 265 114 q 394 81 344 81 q 513 113 463 81 q 592 204 564 144 l 671 147 q 563 28 636 74 q 388 -17 489 -17 m 388 640 q 304 624 342 640 q 240 579 267 608 q 197 510 213 550 q 182 424 182 471 l 182 414 l 578 414 l 578 429 q 526 583 578 525 q 388 640 474 640 m 458 1063 l 613 864 l 551 821 l 389 983 l 226 821 l 165 864 l 319 1063 l 458 1063 m 393 -235 q 340 -217 357 -235 q 322 -171 322 -200 l 322 -156 q 340 -109 322 -126 q 393 -92 357 -92 q 447 -109 429 -92 q 464 -156 464 -126 l 464 -171 q 447 -217 464 -200 q 393 -235 429 -235 z "},"ề":{"ha":763,"x_min":26,"x_max":697,"o":"m 388 -17 q 255 10 314 -17 q 153 85 196 36 q 88 203 111 135 q 65 358 65 272 q 88 513 65 443 q 153 631 111 582 q 255 707 196 681 q 388 733 314 733 q 517 707 460 733 q 614 634 574 681 q 676 524 654 588 q 697 383 697 460 l 697 331 l 182 331 l 182 297 q 197 212 182 251 q 238 143 211 172 q 305 97 265 114 q 394 81 344 81 q 513 113 463 81 q 592 204 564 144 l 671 147 q 563 28 636 74 q 388 -17 489 -17 m 388 640 q 304 624 342 640 q 240 579 267 608 q 197 510 213 550 q 182 424 182 471 l 182 414 l 578 414 l 578 429 q 526 583 578 525 q 388 640 474 640 m 26 1190 l 124 1238 l 242 1001 l 174 969 l 26 1190 m 457 1035 l 610 849 l 553 807 l 388 963 l 222 807 l 165 849 l 318 1035 l 457 1035 z "},"ể":{"ha":763,"x_min":65,"x_max":706,"o":"m 388 -17 q 255 10 314 -17 q 153 85 196 36 q 88 203 111 135 q 65 358 65 272 q 88 513 65 443 q 153 631 111 582 q 255 707 196 681 q 388 733 314 733 q 517 707 460 733 q 614 634 574 681 q 676 524 654 588 q 697 383 697 460 l 697 331 l 182 331 l 182 297 q 197 212 182 251 q 238 143 211 172 q 305 97 265 114 q 394 81 344 81 q 513 113 463 81 q 592 204 564 144 l 671 147 q 563 28 636 74 q 388 -17 489 -17 m 388 640 q 304 624 342 640 q 240 579 267 608 q 197 510 213 550 q 182 424 182 471 l 182 414 l 578 414 l 578 429 q 526 583 578 525 q 388 640 474 640 m 457 1222 l 608 1222 q 683 1200 661 1222 q 706 1146 706 1178 q 688 1079 706 1115 q 638 1003 669 1043 l 604 961 l 543 993 l 626 1142 l 457 1142 l 457 1222 m 457 1035 l 610 849 l 553 807 l 388 963 l 222 807 l 165 849 l 318 1035 l 457 1035 z "},"ễ":{"ha":763,"x_min":65,"x_max":697,"o":"m 388 -17 q 255 10 314 -17 q 153 85 196 36 q 88 203 111 135 q 65 358 65 272 q 88 513 65 443 q 153 631 111 582 q 255 707 196 681 q 388 733 314 733 q 517 707 460 733 q 614 634 574 681 q 676 524 654 588 q 697 383 697 460 l 697 331 l 182 331 l 182 297 q 197 212 182 251 q 238 143 211 172 q 305 97 265 114 q 394 81 344 81 q 513 113 463 81 q 592 204 564 144 l 671 147 q 563 28 636 74 q 388 -17 489 -17 m 388 640 q 304 624 342 640 q 240 579 267 608 q 197 510 213 550 q 182 424 182 471 l 182 414 l 578 414 l 578 429 q 526 583 578 525 q 388 640 474 640 m 288 1228 q 350 1215 324 1228 q 399 1192 376 1203 q 455 1166 432 1174 q 496 1158 478 1158 q 538 1168 519 1158 q 576 1196 556 1178 l 619 1146 q 568 1095 600 1118 q 488 1072 536 1072 q 425 1085 451 1072 q 376 1108 399 1097 q 320 1134 343 1126 q 279 1142 297 1142 q 238 1132 256 1142 q 199 1104 219 1122 l 156 1154 q 207 1205 175 1182 q 288 1228 239 1228 m 457 1035 l 610 849 l 553 807 l 388 963 l 222 807 l 165 849 l 318 1035 l 457 1035 z "},"ə":{"ha":763,"x_min":65,"x_max":697,"o":"m 581 386 l 581 419 q 566 505 581 465 q 524 574 551 544 q 458 619 497 603 q 368 636 418 636 q 249 604 300 636 q 171 513 199 572 l 92 569 q 200 688 126 643 q 375 733 274 733 q 507 707 447 733 q 609 631 567 681 q 674 513 651 582 q 697 358 697 443 q 674 203 697 272 q 609 85 651 135 q 507 10 567 36 q 375 -17 447 -17 q 246 10 303 -17 q 149 83 189 36 q 87 193 108 129 q 65 333 65 257 l 65 386 l 581 386 m 185 288 q 237 134 185 192 q 375 76 289 76 q 458 92 421 76 q 523 138 496 108 q 565 206 550 167 q 581 293 581 246 l 581 303 l 185 303 l 185 288 z "},"ğ":{"ha":738,"x_min":60,"x_max":722,"o":"m 722 -79 q 635 -242 722 -190 q 375 -294 549 -294 q 133 -249 207 -294 q 60 -118 60 -203 q 90 -27 60 -60 q 174 21 121 6 l 174 36 q 110 136 110 67 q 144 219 110 190 q 233 261 179 247 l 233 267 q 134 354 169 297 q 99 486 99 411 q 118 586 99 540 q 173 665 138 632 q 258 715 208 697 q 368 733 307 733 q 476 717 428 733 l 700 717 l 700 628 l 589 628 q 626 565 613 600 q 640 486 640 531 q 621 386 640 432 q 566 308 601 340 q 481 257 531 275 q 369 239 431 239 q 300 246 335 239 q 235 217 264 236 q 206 165 206 199 q 236 122 206 133 q 315 111 267 111 l 468 111 q 662 60 601 111 q 722 -79 722 10 m 369 328 q 482 362 440 328 q 524 467 524 396 l 524 506 q 482 610 524 576 q 369 644 440 644 q 257 610 299 644 q 215 506 215 576 l 215 467 q 257 362 215 396 q 369 328 299 328 m 618 -87 q 585 -19 618 -44 q 469 7 553 7 l 231 7 q 164 -90 164 -24 q 199 -171 164 -137 q 319 -204 235 -204 l 422 -204 q 567 -175 515 -204 q 618 -87 618 -146 m 368 828 q 276 844 313 828 q 216 886 239 861 q 180 942 193 911 q 157 1001 167 972 l 219 1032 l 249 986 q 291 935 267 956 q 368 915 315 915 q 413 921 394 915 q 445 935 432 926 q 468 958 458 944 q 488 986 478 971 l 517 1032 l 579 1001 q 556 942 569 972 q 520 886 543 911 q 460 844 497 861 q 368 828 424 828 z "},"ĝ":{"ha":738,"x_min":60,"x_max":722,"o":"m 722 -79 q 635 -242 722 -190 q 375 -294 549 -294 q 133 -249 207 -294 q 60 -118 60 -203 q 90 -27 60 -60 q 174 21 121 6 l 174 36 q 110 136 110 67 q 144 219 110 190 q 233 261 179 247 l 233 267 q 134 354 169 297 q 99 486 99 411 q 118 586 99 540 q 173 665 138 632 q 258 715 208 697 q 368 733 307 733 q 476 717 428 733 l 700 717 l 700 628 l 589 628 q 626 565 613 600 q 640 486 640 531 q 621 386 640 432 q 566 308 601 340 q 481 257 531 275 q 369 239 431 239 q 300 246 335 239 q 235 217 264 236 q 206 165 206 199 q 236 122 206 133 q 315 111 267 111 l 468 111 q 662 60 601 111 q 722 -79 722 10 m 369 328 q 482 362 440 328 q 524 467 524 396 l 524 506 q 482 610 524 576 q 369 644 440 644 q 257 610 299 644 q 215 506 215 576 l 215 467 q 257 362 215 396 q 369 328 299 328 m 618 -87 q 585 -19 618 -44 q 469 7 553 7 l 231 7 q 164 -90 164 -24 q 199 -171 164 -137 q 319 -204 235 -204 l 422 -204 q 567 -175 515 -204 q 618 -87 618 -146 m 440 1063 l 594 864 l 533 821 l 371 983 l 208 821 l 147 864 l 301 1063 l 440 1063 z "},"ģ":{"ha":738,"x_min":60,"x_max":722,"o":"m 722 -79 q 635 -242 722 -190 q 375 -294 549 -294 q 133 -249 207 -294 q 60 -118 60 -203 q 90 -27 60 -60 q 174 21 121 6 l 174 36 q 110 136 110 67 q 144 219 110 190 q 233 261 179 247 l 233 267 q 134 354 169 297 q 99 486 99 411 q 118 586 99 540 q 173 665 138 632 q 258 715 208 697 q 368 733 307 733 q 476 717 428 733 l 700 717 l 700 628 l 589 628 q 626 565 613 600 q 640 486 640 531 q 621 386 640 432 q 566 308 601 340 q 481 257 531 275 q 369 239 431 239 q 300 246 335 239 q 235 217 264 236 q 206 165 206 199 q 236 122 206 133 q 315 111 267 111 l 468 111 q 662 60 601 111 q 722 -79 722 10 m 369 328 q 482 362 440 328 q 524 467 524 396 l 524 506 q 482 610 524 576 q 369 644 440 644 q 257 610 299 644 q 215 506 215 576 l 215 467 q 257 362 215 396 q 369 328 299 328 m 618 -87 q 585 -19 618 -44 q 469 7 553 7 l 231 7 q 164 -90 164 -24 q 199 -171 164 -137 q 319 -204 235 -204 l 422 -204 q 567 -175 515 -204 q 618 -87 618 -146 m 372 826 q 319 844 338 826 q 301 892 301 861 l 301 907 q 326 999 301 956 q 385 1075 351 1043 l 465 1075 q 421 1022 438 1046 q 394 967 404 999 q 431 945 418 961 q 443 906 443 929 l 443 892 q 425 844 443 861 q 372 826 407 826 z "},"ġ":{"ha":738,"x_min":60,"x_max":722,"o":"m 722 -79 q 635 -242 722 -190 q 375 -294 549 -294 q 133 -249 207 -294 q 60 -118 60 -203 q 90 -27 60 -60 q 174 21 121 6 l 174 36 q 110 136 110 67 q 144 219 110 190 q 233 261 179 247 l 233 267 q 134 354 169 297 q 99 486 99 411 q 118 586 99 540 q 173 665 138 632 q 258 715 208 697 q 368 733 307 733 q 476 717 428 733 l 700 717 l 700 628 l 589 628 q 626 565 613 600 q 640 486 640 531 q 621 386 640 432 q 566 308 601 340 q 481 257 531 275 q 369 239 431 239 q 300 246 335 239 q 235 217 264 236 q 206 165 206 199 q 236 122 206 133 q 315 111 267 111 l 468 111 q 662 60 601 111 q 722 -79 722 10 m 369 328 q 482 362 440 328 q 524 467 524 396 l 524 506 q 482 610 524 576 q 369 644 440 644 q 257 610 299 644 q 215 506 215 576 l 215 467 q 257 362 215 396 q 369 328 299 328 m 618 -87 q 585 -19 618 -44 q 469 7 553 7 l 231 7 q 164 -90 164 -24 q 199 -171 164 -137 q 319 -204 235 -204 l 422 -204 q 567 -175 515 -204 q 618 -87 618 -146 m 371 856 q 317 873 335 856 q 300 919 300 890 l 300 935 q 317 981 300 964 q 371 999 335 999 q 424 981 407 999 q 442 935 442 964 l 442 919 q 424 873 442 890 q 371 856 407 856 z "},"ħ":{"ha":789,"x_min":29,"x_max":678,"o":"m 118 0 l 118 844 l 29 844 l 29 931 l 118 931 l 118 1028 l 229 1028 l 229 931 l 438 931 l 438 844 l 229 844 l 229 600 l 235 600 q 309 697 261 661 q 438 733 357 733 q 613 662 549 733 q 678 460 678 590 l 678 0 l 567 0 l 567 440 q 404 633 567 633 q 340 625 371 633 q 283 600 308 617 q 244 558 258 583 q 229 497 229 532 l 229 0 l 118 0 z "},"ĥ":{"ha":789,"x_min":-46,"x_max":678,"o":"m 118 1028 l 229 1028 l 229 600 l 235 600 q 309 697 261 661 q 438 733 357 733 q 613 662 549 733 q 678 460 678 590 l 678 0 l 567 0 l 567 440 q 404 633 567 633 q 340 625 371 633 q 283 600 308 617 q 244 558 258 583 q 229 497 229 532 l 229 0 l 118 0 l 118 1028 m 247 1282 l 401 1083 l 340 1040 l 178 1203 l 15 1040 l -46 1083 l 108 1282 l 247 1282 z "},"ı":{"ha":347,"x_min":118,"x_max":229,"o":"m 118 0 l 118 717 l 229 717 l 229 0 l 118 0 z "},"í":{"ha":347,"x_min":113,"x_max":332,"o":"m 118 0 l 118 717 l 229 717 l 229 0 l 118 0 m 185 813 l 113 846 l 231 1082 l 332 1033 l 185 813 z "},"ĭ":{"ha":347,"x_min":-36,"x_max":386,"o":"m 118 0 l 118 717 l 229 717 l 229 0 l 118 0 m 175 828 q 83 844 119 828 q 23 886 46 861 q -13 942 0 911 q -36 1001 -26 972 l 26 1032 l 56 986 q 98 935 74 956 q 175 915 122 915 q 220 921 201 915 q 252 935 239 926 q 275 958 265 944 q 294 986 285 971 l 324 1032 l 386 1001 q 363 942 376 972 q 327 886 350 911 q 267 844 304 861 q 175 828 231 828 z "},"î":{"ha":347,"x_min":-49,"x_max":399,"o":"m 118 0 l 118 717 l 229 717 l 229 0 l 118 0 m 244 1063 l 399 864 l 338 821 l 175 983 l 13 821 l -49 864 l 106 1063 l 244 1063 z "},"ï":{"ha":347,"x_min":-22,"x_max":372,"o":"m 118 0 l 118 717 l 229 717 l 229 0 l 118 0 m 46 858 q -6 876 10 858 q -22 922 -22 893 l -22 938 q -6 984 -22 967 q 46 1001 10 1001 q 98 984 82 1001 q 114 938 114 967 l 114 922 q 98 876 114 893 q 46 858 82 858 m 304 858 q 252 876 268 858 q 236 922 236 893 l 236 938 q 252 984 236 967 q 304 1001 268 1001 q 356 984 340 1001 q 372 938 372 967 l 372 922 q 356 876 372 893 q 304 858 340 858 z "},"ị":{"ha":347,"x_min":103,"x_max":244,"o":"m 174 885 q 122 902 138 885 q 106 947 106 919 l 106 965 q 122 1010 106 993 q 174 1028 138 1028 q 226 1010 210 1028 q 242 965 242 993 l 242 947 q 226 902 242 919 q 174 885 210 885 m 118 717 l 229 717 l 229 0 l 118 0 l 118 717 m 174 -235 q 120 -217 138 -235 q 103 -171 103 -200 l 103 -156 q 120 -109 103 -126 q 174 -92 138 -92 q 227 -109 210 -92 q 244 -156 244 -126 l 244 -171 q 227 -217 244 -200 q 174 -235 210 -235 z "},"ì":{"ha":347,"x_min":18,"x_max":238,"o":"m 118 0 l 118 717 l 229 717 l 229 0 l 118 0 m 18 1033 l 119 1082 l 238 846 l 165 813 l 18 1033 z "},"ỉ":{"ha":347,"x_min":57,"x_max":306,"o":"m 118 0 l 118 717 l 229 717 l 229 0 l 118 0 m 57 1063 l 208 1063 q 283 1040 261 1063 q 306 986 306 1018 q 288 919 306 956 q 238 843 269 883 l 204 801 l 140 833 l 221 978 l 57 978 l 57 1063 z "},"ī":{"ha":347,"x_min":-19,"x_max":369,"o":"m 118 0 l 118 717 l 229 717 l 229 0 l 118 0 m -19 979 l 369 979 l 369 885 l -19 885 l -19 979 z "},"į":{"ha":347,"x_min":4,"x_max":258,"o":"m 118 717 l 229 717 l 229 0 q 158 -68 185 -40 q 117 -115 132 -96 q 98 -147 103 -133 q 93 -171 93 -160 q 105 -203 93 -194 q 136 -212 117 -212 q 203 -179 176 -212 l 258 -233 q 215 -272 246 -256 q 136 -287 185 -287 q 43 -262 82 -287 q 4 -182 4 -237 q 16 -132 4 -156 q 47 -87 28 -108 q 92 -47 67 -67 q 146 -6 118 -26 l 143 0 l 118 0 l 118 717 m 174 885 q 122 902 138 885 q 106 947 106 919 l 106 965 q 122 1010 106 993 q 174 1028 138 1028 q 226 1010 210 1028 q 242 965 242 993 l 242 947 q 226 902 242 919 q 174 885 210 885 z "},"ĩ":{"ha":347,"x_min":-58,"x_max":408,"o":"m 118 0 l 118 717 l 229 717 l 229 0 l 118 0 m 276 850 q 214 863 240 850 q 165 886 188 875 q 109 912 132 904 q 68 919 86 919 q 26 910 44 919 q -12 882 8 900 l -58 938 q -7 988 -39 965 q 74 1011 25 1011 q 136 999 110 1011 q 185 975 163 986 q 241 949 218 957 q 282 942 264 942 q 324 951 306 942 q 363 979 342 961 l 408 924 q 357 873 389 896 q 276 850 325 850 z "},"ĳ":{"ha":689,"x_min":106,"x_max":583,"o":"m 174 885 q 122 902 138 885 q 106 947 106 919 l 106 965 q 122 1010 106 993 q 174 1028 138 1028 q 226 1010 210 1028 q 242 965 242 993 l 242 947 q 226 902 242 919 q 174 885 210 885 m 118 717 l 229 717 l 229 0 l 118 0 l 118 717 m 460 717 l 571 717 l 571 -111 q 533 -232 571 -186 q 415 -278 496 -278 l 343 -278 l 343 -181 l 460 -181 l 460 717 m 515 885 q 463 902 479 885 q 447 947 447 919 l 447 965 q 463 1010 447 993 q 515 1028 479 1028 q 567 1010 551 1028 q 583 965 583 993 l 583 947 q 567 902 583 919 q 515 885 551 885 z "},"ȷ":{"ha":347,"x_min":1,"x_max":229,"o":"m 1 -181 l 118 -181 l 118 717 l 229 717 l 229 -111 q 192 -232 229 -186 q 74 -278 154 -278 l 1 -278 l 1 -181 z "},"ĵ":{"ha":347,"x_min":-49,"x_max":399,"o":"m 1 -181 l 118 -181 l 118 717 l 229 717 l 229 -111 q 192 -232 229 -186 q 74 -278 154 -278 l 1 -278 l 1 -181 m 244 1063 l 399 864 l 338 821 l 175 983 l 13 821 l -49 864 l 106 1063 l 244 1063 z "},"ķ":{"ha":732,"x_min":118,"x_max":708,"o":"m 118 1028 l 229 1028 l 229 376 l 235 376 l 344 499 l 547 717 l 682 717 l 417 433 l 708 0 l 574 0 l 336 365 l 229 256 l 229 0 l 118 0 l 118 1028 m 406 -92 q 458 -109 440 -92 q 476 -157 476 -126 l 476 -172 q 451 -265 476 -221 q 393 -340 426 -308 l 313 -340 q 357 -287 340 -311 q 383 -232 374 -264 q 347 -210 360 -226 q 335 -171 335 -194 l 335 -157 q 353 -109 335 -126 q 406 -92 371 -92 z "},"ĸ":{"ha":732,"x_min":118,"x_max":708,"o":"m 336 365 l 229 256 l 229 0 l 118 0 l 118 717 l 229 717 l 229 379 l 235 379 l 346 501 l 550 717 l 686 717 l 417 436 l 708 0 l 574 0 l 336 365 z "},"ĺ":{"ha":378,"x_min":113,"x_max":335,"o":"m 236 0 q 148 33 178 0 q 118 115 118 65 l 118 1028 l 229 1028 l 229 97 l 335 97 l 335 0 l 236 0 m 185 1090 l 113 1124 l 231 1360 l 332 1311 l 185 1090 z "},"ľ":{"ha":381,"x_min":118,"x_max":453,"o":"m 381 771 l 307 771 l 324 1028 l 453 1028 l 381 771 m 236 0 q 148 33 178 0 q 118 115 118 65 l 118 1028 l 229 1028 l 229 97 l 335 97 l 335 0 l 236 0 z "},"ļ":{"ha":378,"x_min":118,"x_max":335,"o":"m 236 0 q 148 33 178 0 q 118 115 118 65 l 118 1028 l 229 1028 l 229 97 l 335 97 l 335 0 l 236 0 m 228 -92 q 281 -109 263 -92 q 299 -157 299 -126 l 299 -172 q 274 -265 299 -221 q 215 -340 249 -308 l 135 -340 q 179 -287 163 -311 q 206 -232 196 -264 q 169 -210 182 -226 q 157 -171 157 -194 l 157 -157 q 175 -109 157 -126 q 228 -92 193 -92 z "},"ŀ":{"ha":497,"x_min":118,"x_max":493,"o":"m 236 0 q 148 33 178 0 q 118 115 118 65 l 118 1028 l 229 1028 l 229 97 l 335 97 l 335 0 l 236 0 m 422 353 q 369 370 386 353 q 351 417 351 388 l 351 432 q 369 478 351 461 q 422 496 386 496 q 476 478 458 496 q 493 432 493 461 l 493 417 q 476 370 493 388 q 422 353 458 353 z "},"ł":{"ha":386,"x_min":25,"x_max":376,"o":"m 339 0 l 240 0 q 152 33 182 0 q 122 115 122 65 l 122 451 l 25 419 l 25 514 l 122 546 l 122 1028 l 233 1028 l 233 583 l 376 631 l 376 536 l 233 489 l 233 97 l 339 97 l 339 0 z "},"ń":{"ha":789,"x_min":118,"x_max":678,"o":"m 118 0 l 118 717 l 229 717 l 229 600 l 235 600 q 309 697 261 661 q 438 733 357 733 q 613 662 549 733 q 678 460 678 590 l 678 0 l 567 0 l 567 440 q 404 633 567 633 q 340 625 371 633 q 283 600 308 617 q 244 558 258 583 q 229 497 229 532 l 229 0 l 118 0 m 411 813 l 339 846 l 457 1082 l 558 1033 l 411 813 z "},"ň":{"ha":789,"x_min":118,"x_max":678,"o":"m 118 0 l 118 717 l 229 717 l 229 600 l 235 600 q 309 697 261 661 q 438 733 357 733 q 613 662 549 733 q 678 460 678 590 l 678 0 l 567 0 l 567 440 q 404 633 567 633 q 340 625 371 633 q 283 600 308 617 q 244 558 258 583 q 229 497 229 532 l 229 0 l 118 0 m 332 832 l 178 1031 l 239 1074 l 401 911 l 564 1074 l 625 1031 l 471 832 l 332 832 z "},"ņ":{"ha":789,"x_min":118,"x_max":678,"o":"m 118 0 l 118 717 l 229 717 l 229 600 l 235 600 q 309 697 261 661 q 438 733 357 733 q 613 662 549 733 q 678 460 678 590 l 678 0 l 567 0 l 567 440 q 404 633 567 633 q 340 625 371 633 q 283 600 308 617 q 244 558 258 583 q 229 497 229 532 l 229 0 l 118 0 m 399 -92 q 451 -109 433 -92 q 469 -157 469 -126 l 469 -172 q 444 -265 469 -221 q 386 -340 419 -308 l 306 -340 q 350 -287 333 -311 q 376 -232 367 -264 q 340 -210 353 -226 q 328 -171 328 -194 l 328 -157 q 346 -109 328 -126 q 399 -92 364 -92 z "},"ñ":{"ha":789,"x_min":118,"x_max":678,"o":"m 118 0 l 118 717 l 229 717 l 229 600 l 235 600 q 309 697 261 661 q 438 733 357 733 q 613 662 549 733 q 678 460 678 590 l 678 0 l 567 0 l 567 440 q 404 633 567 633 q 340 625 371 633 q 283 600 308 617 q 244 558 258 583 q 229 497 229 532 l 229 0 l 118 0 m 503 850 q 440 863 467 850 q 392 886 414 875 q 335 912 358 904 q 294 919 313 919 q 253 910 271 919 q 214 882 235 900 l 168 938 q 219 988 188 965 q 300 1011 251 1011 q 363 999 336 1011 q 411 975 389 986 q 467 949 444 957 q 508 942 490 942 q 550 951 532 942 q 589 979 568 961 l 635 924 q 583 873 615 896 q 503 850 551 850 z "},"ŉ":{"ha":1128,"x_min":63,"x_max":1017,"o":"m 197 1042 q 262 1019 242 1042 q 282 960 282 996 l 282 940 q 249 815 282 883 q 156 694 215 746 l 63 694 q 130 778 104 739 q 167 867 156 818 q 126 893 139 874 q 113 940 113 913 l 113 960 q 133 1019 113 996 q 197 1042 153 1042 m 457 0 l 457 717 l 568 717 l 568 600 l 574 600 q 648 697 600 661 q 776 733 696 733 q 952 662 888 733 q 1017 460 1017 590 l 1017 0 l 906 0 l 906 440 q 743 633 906 633 q 678 625 710 633 q 622 600 647 617 q 583 558 597 583 q 568 497 568 532 l 568 0 l 457 0 z "},"ŋ":{"ha":789,"x_min":118,"x_max":678,"o":"m 450 -181 l 567 -181 l 567 440 q 404 633 567 633 q 340 625 371 633 q 283 600 308 617 q 244 558 258 583 q 229 497 229 532 l 229 0 l 118 0 l 118 717 l 229 717 l 229 600 l 235 600 q 309 697 261 661 q 438 733 357 733 q 613 662 549 733 q 678 460 678 590 l 678 -114 q 640 -233 678 -189 q 524 -278 603 -278 l 450 -278 l 450 -181 z "},"ó":{"ha":778,"x_min":65,"x_max":713,"o":"m 389 -17 q 257 10 317 -17 q 155 85 197 36 q 89 203 113 135 q 65 358 65 272 q 89 513 65 443 q 155 631 113 582 q 257 707 197 681 q 389 733 317 733 q 520 707 461 733 q 622 631 579 681 q 689 513 665 582 q 713 358 713 443 q 689 203 713 272 q 622 85 665 135 q 520 10 579 36 q 389 -17 461 -17 m 389 82 q 536 138 479 82 q 593 307 593 193 l 593 410 q 536 579 593 524 q 389 635 479 635 q 242 579 299 635 q 185 410 185 524 l 185 307 q 242 138 185 193 q 389 82 299 82 m 400 813 l 328 846 l 446 1082 l 547 1033 l 400 813 z "},"ŏ":{"ha":778,"x_min":65,"x_max":713,"o":"m 389 -17 q 257 10 317 -17 q 155 85 197 36 q 89 203 113 135 q 65 358 65 272 q 89 513 65 443 q 155 631 113 582 q 257 707 197 681 q 389 733 317 733 q 520 707 461 733 q 622 631 579 681 q 689 513 665 582 q 713 358 713 443 q 689 203 713 272 q 622 85 665 135 q 520 10 579 36 q 389 -17 461 -17 m 389 82 q 536 138 479 82 q 593 307 593 193 l 593 410 q 536 579 593 524 q 389 635 479 635 q 242 579 299 635 q 185 410 185 524 l 185 307 q 242 138 185 193 q 389 82 299 82 m 390 828 q 298 844 335 828 q 238 886 261 861 q 202 942 215 911 q 179 1001 189 972 l 242 1032 l 271 986 q 313 935 289 956 q 390 915 338 915 q 435 921 417 915 q 467 935 454 926 q 490 958 481 944 q 510 986 500 971 l 539 1032 l 601 1001 q 578 942 592 972 q 542 886 565 911 q 483 844 519 861 q 390 828 446 828 z "},"ô":{"ha":778,"x_min":65,"x_max":713,"o":"m 389 -17 q 257 10 317 -17 q 155 85 197 36 q 89 203 113 135 q 65 358 65 272 q 89 513 65 443 q 155 631 113 582 q 257 707 197 681 q 389 733 317 733 q 520 707 461 733 q 622 631 579 681 q 689 513 665 582 q 713 358 713 443 q 689 203 713 272 q 622 85 665 135 q 520 10 579 36 q 389 -17 461 -17 m 389 82 q 536 138 479 82 q 593 307 593 193 l 593 410 q 536 579 593 524 q 389 635 479 635 q 242 579 299 635 q 185 410 185 524 l 185 307 q 242 138 185 193 q 389 82 299 82 m 460 1063 l 614 864 l 553 821 l 390 983 l 228 821 l 167 864 l 321 1063 l 460 1063 z "},"ö":{"ha":778,"x_min":65,"x_max":713,"o":"m 389 -17 q 257 10 317 -17 q 155 85 197 36 q 89 203 113 135 q 65 358 65 272 q 89 513 65 443 q 155 631 113 582 q 257 707 197 681 q 389 733 317 733 q 520 707 461 733 q 622 631 579 681 q 689 513 665 582 q 713 358 713 443 q 689 203 713 272 q 622 85 665 135 q 520 10 579 36 q 389 -17 461 -17 m 389 82 q 536 138 479 82 q 593 307 593 193 l 593 410 q 536 579 593 524 q 389 635 479 635 q 242 579 299 635 q 185 410 185 524 l 185 307 q 242 138 185 193 q 389 82 299 82 m 261 858 q 209 876 225 858 q 193 922 193 893 l 193 938 q 209 984 193 967 q 261 1001 225 1001 q 313 984 297 1001 q 329 938 329 967 l 329 922 q 313 876 329 893 q 261 858 297 858 m 519 858 q 467 876 483 858 q 451 922 451 893 l 451 938 q 467 984 451 967 q 519 1001 483 1001 q 572 984 556 1001 q 588 938 588 967 l 588 922 q 572 876 588 893 q 519 858 556 858 z "},"ọ":{"ha":778,"x_min":65,"x_max":713,"o":"m 389 -17 q 257 10 317 -17 q 155 85 197 36 q 89 203 113 135 q 65 358 65 272 q 89 513 65 443 q 155 631 113 582 q 257 707 197 681 q 389 733 317 733 q 520 707 461 733 q 622 631 579 681 q 689 513 665 582 q 713 358 713 443 q 689 203 713 272 q 622 85 665 135 q 520 10 579 36 q 389 -17 461 -17 m 389 82 q 536 138 479 82 q 593 307 593 193 l 593 410 q 536 579 593 524 q 389 635 479 635 q 242 579 299 635 q 185 410 185 524 l 185 307 q 242 138 185 193 q 389 82 299 82 m 389 -235 q 335 -217 353 -235 q 318 -171 318 -200 l 318 -156 q 335 -109 318 -126 q 389 -92 353 -92 q 442 -109 425 -92 q 460 -156 460 -126 l 460 -171 q 442 -217 460 -200 q 389 -235 425 -235 z "},"ò":{"ha":778,"x_min":65,"x_max":713,"o":"m 389 -17 q 257 10 317 -17 q 155 85 197 36 q 89 203 113 135 q 65 358 65 272 q 89 513 65 443 q 155 631 113 582 q 257 707 197 681 q 389 733 317 733 q 520 707 461 733 q 622 631 579 681 q 689 513 665 582 q 713 358 713 443 q 689 203 713 272 q 622 85 665 135 q 520 10 579 36 q 389 -17 461 -17 m 389 82 q 536 138 479 82 q 593 307 593 193 l 593 410 q 536 579 593 524 q 389 635 479 635 q 242 579 299 635 q 185 410 185 524 l 185 307 q 242 138 185 193 q 389 82 299 82 m 233 1033 l 335 1082 l 453 846 l 381 813 l 233 1033 z "},"ỏ":{"ha":778,"x_min":65,"x_max":713,"o":"m 389 -17 q 257 10 317 -17 q 155 85 197 36 q 89 203 113 135 q 65 358 65 272 q 89 513 65 443 q 155 631 113 582 q 257 707 197 681 q 389 733 317 733 q 520 707 461 733 q 622 631 579 681 q 689 513 665 582 q 713 358 713 443 q 689 203 713 272 q 622 85 665 135 q 520 10 579 36 q 389 -17 461 -17 m 389 82 q 536 138 479 82 q 593 307 593 193 l 593 410 q 536 579 593 524 q 389 635 479 635 q 242 579 299 635 q 185 410 185 524 l 185 307 q 242 138 185 193 q 389 82 299 82 m 272 1063 l 424 1063 q 499 1040 476 1063 q 521 986 521 1018 q 503 919 521 956 q 453 843 485 883 l 419 801 l 356 833 l 436 978 l 272 978 l 272 1063 z "},"ő":{"ha":778,"x_min":65,"x_max":713,"o":"m 389 -17 q 257 10 317 -17 q 155 85 197 36 q 89 203 113 135 q 65 358 65 272 q 89 513 65 443 q 155 631 113 582 q 257 707 197 681 q 389 733 317 733 q 520 707 461 733 q 622 631 579 681 q 689 513 665 582 q 713 358 713 443 q 689 203 713 272 q 622 85 665 135 q 520 10 579 36 q 389 -17 461 -17 m 389 82 q 536 138 479 82 q 593 307 593 193 l 593 410 q 536 579 593 524 q 389 635 479 635 q 242 579 299 635 q 185 410 185 524 l 185 307 q 242 138 185 193 q 389 82 299 82 m 289 814 l 222 844 l 340 1081 l 436 1035 l 289 814 m 511 814 l 444 844 l 563 1081 l 658 1035 l 511 814 z "},"ō":{"ha":778,"x_min":65,"x_max":713,"o":"m 389 -17 q 257 10 317 -17 q 155 85 197 36 q 89 203 113 135 q 65 358 65 272 q 89 513 65 443 q 155 631 113 582 q 257 707 197 681 q 389 733 317 733 q 520 707 461 733 q 622 631 579 681 q 689 513 665 582 q 713 358 713 443 q 689 203 713 272 q 622 85 665 135 q 520 10 579 36 q 389 -17 461 -17 m 389 82 q 536 138 479 82 q 593 307 593 193 l 593 410 q 536 579 593 524 q 389 635 479 635 q 242 579 299 635 q 185 410 185 524 l 185 307 q 242 138 185 193 q 389 82 299 82 m 196 979 l 585 979 l 585 885 l 196 885 l 196 979 z "},"ø":{"ha":789,"x_min":49,"x_max":740,"o":"m 49 -8 l 142 108 q 71 358 71 207 q 94 513 71 443 q 160 631 118 582 q 263 707 203 681 q 394 733 322 733 q 502 715 453 733 q 592 665 551 697 l 678 772 l 740 725 l 647 607 q 699 497 681 560 q 718 358 718 433 q 694 203 718 272 q 628 85 671 135 q 526 10 585 36 q 394 -17 467 -17 q 197 50 279 -17 l 111 -56 l 49 -8 m 394 82 q 542 138 485 82 q 599 307 599 193 l 599 410 q 593 471 599 443 q 578 522 588 499 l 258 128 q 394 82 310 82 m 190 307 q 211 193 190 240 l 531 589 q 394 635 476 635 q 247 579 304 635 q 190 410 190 524 l 190 307 z "},"ǿ":{"ha":789,"x_min":49,"x_max":740,"o":"m 49 -8 l 142 108 q 71 358 71 207 q 94 513 71 443 q 160 631 118 582 q 263 707 203 681 q 394 733 322 733 q 502 715 453 733 q 592 665 551 697 l 678 772 l 740 725 l 647 607 q 699 497 681 560 q 718 358 718 433 q 694 203 718 272 q 628 85 671 135 q 526 10 585 36 q 394 -17 467 -17 q 197 50 279 -17 l 111 -56 l 49 -8 m 394 82 q 542 138 485 82 q 599 307 599 193 l 599 410 q 593 471 599 443 q 578 522 588 499 l 258 128 q 394 82 310 82 m 190 307 q 211 193 190 240 l 531 589 q 394 635 476 635 q 247 579 304 635 q 190 410 190 524 l 190 307 m 406 813 l 333 846 l 451 1082 l 553 1033 l 406 813 z "},"õ":{"ha":778,"x_min":65,"x_max":713,"o":"m 389 -17 q 257 10 317 -17 q 155 85 197 36 q 89 203 113 135 q 65 358 65 272 q 89 513 65 443 q 155 631 113 582 q 257 707 197 681 q 389 733 317 733 q 520 707 461 733 q 622 631 579 681 q 689 513 665 582 q 713 358 713 443 q 689 203 713 272 q 622 85 665 135 q 520 10 579 36 q 389 -17 461 -17 m 389 82 q 536 138 479 82 q 593 307 593 193 l 593 410 q 536 579 593 524 q 389 635 479 635 q 242 579 299 635 q 185 410 185 524 l 185 307 q 242 138 185 193 q 389 82 299 82 m 492 850 q 429 863 456 850 q 381 886 403 875 q 324 912 347 904 q 283 919 301 919 q 242 910 260 919 q 203 882 224 900 l 157 938 q 208 988 176 965 q 289 1011 240 1011 q 351 999 325 1011 q 400 975 378 986 q 456 949 433 957 q 497 942 479 942 q 539 951 521 942 q 578 979 557 961 l 624 924 q 572 873 604 896 q 492 850 540 850 z "},"ơ":{"ha":778,"x_min":65,"x_max":721,"o":"m 721 872 l 721 736 q 703 674 721 699 q 635 649 686 649 l 606 649 q 690 514 667 586 q 713 358 713 442 q 689 203 713 272 q 622 85 665 135 q 520 10 579 36 q 389 -17 461 -17 q 257 10 317 -17 q 155 85 197 36 q 89 203 113 135 q 65 358 65 272 q 89 513 65 443 q 155 631 113 582 q 257 707 197 681 q 389 733 317 733 q 494 717 446 733 l 622 717 l 622 872 l 721 872 m 389 82 q 536 138 479 82 q 593 307 593 193 l 593 410 q 536 579 593 524 q 389 635 479 635 q 242 579 299 635 q 185 410 185 524 l 185 307 q 242 138 185 193 q 389 82 299 82 z "},"ớ":{"ha":778,"x_min":65,"x_max":721,"o":"m 721 872 l 721 736 q 703 674 721 699 q 635 649 686 649 l 606 649 q 690 514 667 586 q 713 358 713 442 q 689 203 713 272 q 622 85 665 135 q 520 10 579 36 q 389 -17 461 -17 q 257 10 317 -17 q 155 85 197 36 q 89 203 113 135 q 65 358 65 272 q 89 513 65 443 q 155 631 113 582 q 257 707 197 681 q 389 733 317 733 q 494 717 446 733 l 622 717 l 622 872 l 721 872 m 389 82 q 536 138 479 82 q 593 307 593 193 l 593 410 q 536 579 593 524 q 389 635 479 635 q 242 579 299 635 q 185 410 185 524 l 185 307 q 242 138 185 193 q 389 82 299 82 m 400 813 l 328 846 l 446 1082 l 547 1033 l 400 813 z "},"ợ":{"ha":778,"x_min":65,"x_max":721,"o":"m 721 872 l 721 736 q 703 674 721 699 q 635 649 686 649 l 606 649 q 690 514 667 586 q 713 358 713 442 q 689 203 713 272 q 622 85 665 135 q 520 10 579 36 q 389 -17 461 -17 q 257 10 317 -17 q 155 85 197 36 q 89 203 113 135 q 65 358 65 272 q 89 513 65 443 q 155 631 113 582 q 257 707 197 681 q 389 733 317 733 q 494 717 446 733 l 622 717 l 622 872 l 721 872 m 389 82 q 536 138 479 82 q 593 307 593 193 l 593 410 q 536 579 593 524 q 389 635 479 635 q 242 579 299 635 q 185 410 185 524 l 185 307 q 242 138 185 193 q 389 82 299 82 m 389 -235 q 335 -217 353 -235 q 318 -171 318 -200 l 318 -156 q 335 -109 318 -126 q 389 -92 353 -92 q 442 -109 425 -92 q 460 -156 460 -126 l 460 -171 q 442 -217 460 -200 q 389 -235 425 -235 z "},"ờ":{"ha":778,"x_min":65,"x_max":721,"o":"m 721 872 l 721 736 q 703 674 721 699 q 635 649 686 649 l 606 649 q 690 514 667 586 q 713 358 713 442 q 689 203 713 272 q 622 85 665 135 q 520 10 579 36 q 389 -17 461 -17 q 257 10 317 -17 q 155 85 197 36 q 89 203 113 135 q 65 358 65 272 q 89 513 65 443 q 155 631 113 582 q 257 707 197 681 q 389 733 317 733 q 494 717 446 733 l 622 717 l 622 872 l 721 872 m 389 82 q 536 138 479 82 q 593 307 593 193 l 593 410 q 536 579 593 524 q 389 635 479 635 q 242 579 299 635 q 185 410 185 524 l 185 307 q 242 138 185 193 q 389 82 299 82 m 233 1033 l 335 1082 l 453 846 l 381 813 l 233 1033 z "},"ở":{"ha":778,"x_min":65,"x_max":721,"o":"m 721 872 l 721 736 q 703 674 721 699 q 635 649 686 649 l 606 649 q 690 514 667 586 q 713 358 713 442 q 689 203 713 272 q 622 85 665 135 q 520 10 579 36 q 389 -17 461 -17 q 257 10 317 -17 q 155 85 197 36 q 89 203 113 135 q 65 358 65 272 q 89 513 65 443 q 155 631 113 582 q 257 707 197 681 q 389 733 317 733 q 494 717 446 733 l 622 717 l 622 872 l 721 872 m 389 82 q 536 138 479 82 q 593 307 593 193 l 593 410 q 536 579 593 524 q 389 635 479 635 q 242 579 299 635 q 185 410 185 524 l 185 307 q 242 138 185 193 q 389 82 299 82 m 272 1063 l 424 1063 q 499 1040 476 1063 q 521 986 521 1018 q 503 919 521 956 q 453 843 485 883 l 419 801 l 356 833 l 436 978 l 272 978 l 272 1063 z "},"ỡ":{"ha":778,"x_min":65,"x_max":721,"o":"m 721 872 l 721 736 q 703 674 721 699 q 635 649 686 649 l 606 649 q 690 514 667 586 q 713 358 713 442 q 689 203 713 272 q 622 85 665 135 q 520 10 579 36 q 389 -17 461 -17 q 257 10 317 -17 q 155 85 197 36 q 89 203 113 135 q 65 358 65 272 q 89 513 65 443 q 155 631 113 582 q 257 707 197 681 q 389 733 317 733 q 494 717 446 733 l 622 717 l 622 872 l 721 872 m 389 82 q 536 138 479 82 q 593 307 593 193 l 593 410 q 536 579 593 524 q 389 635 479 635 q 242 579 299 635 q 185 410 185 524 l 185 307 q 242 138 185 193 q 389 82 299 82 m 478 856 q 423 866 446 856 q 381 886 400 876 q 338 907 354 900 q 301 914 321 914 q 260 904 279 914 q 222 876 242 894 l 176 932 q 227 983 196 960 q 303 1006 258 1006 q 358 995 335 1006 q 400 975 381 985 q 443 954 426 961 q 479 947 460 947 q 520 957 501 947 q 558 985 539 967 l 604 929 q 553 878 585 901 q 478 856 522 856 z "},"ố":{"ha":778,"x_min":65,"x_max":750,"o":"m 389 -17 q 257 10 317 -17 q 155 85 197 36 q 89 203 113 135 q 65 358 65 272 q 89 513 65 443 q 155 631 113 582 q 257 707 197 681 q 389 733 317 733 q 520 707 461 733 q 622 631 579 681 q 689 513 665 582 q 713 358 713 443 q 689 203 713 272 q 622 85 665 135 q 520 10 579 36 q 389 -17 461 -17 m 389 82 q 536 138 479 82 q 593 307 593 193 l 593 410 q 536 579 593 524 q 389 635 479 635 q 242 579 299 635 q 185 410 185 524 l 185 307 q 242 138 185 193 q 389 82 299 82 m 603 969 l 535 1001 l 653 1238 l 750 1190 l 603 969 m 458 1035 l 611 849 l 554 807 l 389 963 l 224 807 l 167 849 l 319 1035 l 458 1035 z "},"ộ":{"ha":778,"x_min":65,"x_max":713,"o":"m 389 -17 q 257 10 317 -17 q 155 85 197 36 q 89 203 113 135 q 65 358 65 272 q 89 513 65 443 q 155 631 113 582 q 257 707 197 681 q 389 733 317 733 q 520 707 461 733 q 622 631 579 681 q 689 513 665 582 q 713 358 713 443 q 689 203 713 272 q 622 85 665 135 q 520 10 579 36 q 389 -17 461 -17 m 389 82 q 536 138 479 82 q 593 307 593 193 l 593 410 q 536 579 593 524 q 389 635 479 635 q 242 579 299 635 q 185 410 185 524 l 185 307 q 242 138 185 193 q 389 82 299 82 m 460 1063 l 614 864 l 553 821 l 390 983 l 228 821 l 167 864 l 321 1063 l 460 1063 m 389 -235 q 335 -217 353 -235 q 318 -171 318 -200 l 318 -156 q 335 -109 318 -126 q 389 -92 353 -92 q 442 -109 425 -92 q 460 -156 460 -126 l 460 -171 q 442 -217 460 -200 q 389 -235 425 -235 z "},"ồ":{"ha":778,"x_min":28,"x_max":713,"o":"m 389 -17 q 257 10 317 -17 q 155 85 197 36 q 89 203 113 135 q 65 358 65 272 q 89 513 65 443 q 155 631 113 582 q 257 707 197 681 q 389 733 317 733 q 520 707 461 733 q 622 631 579 681 q 689 513 665 582 q 713 358 713 443 q 689 203 713 272 q 622 85 665 135 q 520 10 579 36 q 389 -17 461 -17 m 389 82 q 536 138 479 82 q 593 307 593 193 l 593 410 q 536 579 593 524 q 389 635 479 635 q 242 579 299 635 q 185 410 185 524 l 185 307 q 242 138 185 193 q 389 82 299 82 m 28 1190 l 125 1238 l 243 1001 l 175 969 l 28 1190 m 458 1035 l 611 849 l 554 807 l 389 963 l 224 807 l 167 849 l 319 1035 l 458 1035 z "},"ổ":{"ha":778,"x_min":65,"x_max":713,"o":"m 389 -17 q 257 10 317 -17 q 155 85 197 36 q 89 203 113 135 q 65 358 65 272 q 89 513 65 443 q 155 631 113 582 q 257 707 197 681 q 389 733 317 733 q 520 707 461 733 q 622 631 579 681 q 689 513 665 582 q 713 358 713 443 q 689 203 713 272 q 622 85 665 135 q 520 10 579 36 q 389 -17 461 -17 m 389 82 q 536 138 479 82 q 593 307 593 193 l 593 410 q 536 579 593 524 q 389 635 479 635 q 242 579 299 635 q 185 410 185 524 l 185 307 q 242 138 185 193 q 389 82 299 82 m 458 1222 l 610 1222 q 685 1200 663 1222 q 707 1146 707 1178 q 689 1079 707 1115 q 639 1003 671 1043 l 606 961 l 544 993 l 628 1142 l 458 1142 l 458 1222 m 458 1035 l 611 849 l 554 807 l 389 963 l 224 807 l 167 849 l 319 1035 l 458 1035 z "},"ỗ":{"ha":778,"x_min":65,"x_max":713,"o":"m 389 -17 q 257 10 317 -17 q 155 85 197 36 q 89 203 113 135 q 65 358 65 272 q 89 513 65 443 q 155 631 113 582 q 257 707 197 681 q 389 733 317 733 q 520 707 461 733 q 622 631 579 681 q 689 513 665 582 q 713 358 713 443 q 689 203 713 272 q 622 85 665 135 q 520 10 579 36 q 389 -17 461 -17 m 389 82 q 536 138 479 82 q 593 307 593 193 l 593 410 q 536 579 593 524 q 389 635 479 635 q 242 579 299 635 q 185 410 185 524 l 185 307 q 242 138 185 193 q 389 82 299 82 m 289 1228 q 351 1215 325 1228 q 400 1192 378 1203 q 456 1166 433 1174 q 497 1158 479 1158 q 539 1168 521 1158 q 578 1196 557 1178 l 621 1146 q 569 1095 601 1118 q 489 1072 538 1072 q 426 1085 453 1072 q 378 1108 400 1097 q 322 1134 344 1126 q 281 1142 299 1142 q 239 1132 257 1142 q 200 1104 221 1122 l 157 1154 q 208 1205 176 1182 q 289 1228 240 1228 m 458 1035 l 611 849 l 554 807 l 389 963 l 224 807 l 167 849 l 319 1035 l 458 1035 z "},"œ":{"ha":1293,"x_min":65,"x_max":1228,"o":"m 389 82 q 536 138 479 82 q 593 307 593 193 l 593 410 q 536 579 593 524 q 389 635 479 635 q 242 579 299 635 q 185 410 185 524 l 185 307 q 242 138 185 193 q 389 82 299 82 m 1108 414 l 1108 429 q 1056 583 1108 525 q 918 640 1004 640 q 835 624 872 640 q 770 579 797 608 q 728 510 743 550 q 713 424 713 471 l 713 414 l 1108 414 m 926 -17 q 831 -4 874 -17 q 756 31 789 8 q 697 82 722 53 q 657 143 672 111 l 650 143 q 549 28 618 74 q 389 -17 479 -17 q 257 10 317 -17 q 155 85 197 36 q 89 203 113 135 q 65 358 65 272 q 89 513 65 443 q 155 631 113 582 q 257 707 197 681 q 389 733 317 733 q 549 692 481 733 q 650 574 617 651 l 658 574 q 756 690 689 647 q 918 733 822 733 q 1046 708 989 733 q 1144 635 1103 682 q 1206 524 1185 589 q 1228 383 1228 460 l 1228 331 l 713 331 l 713 297 q 727 212 713 251 q 769 143 742 172 q 835 97 796 114 q 925 81 875 81 q 1044 113 994 81 q 1124 204 1094 144 l 1201 147 q 1097 28 1167 74 q 926 -17 1026 -17 z "},"ŕ":{"ha":510,"x_min":118,"x_max":486,"o":"m 118 0 l 118 717 l 229 717 l 229 585 l 236 585 q 306 676 256 636 q 443 717 356 717 l 486 717 l 486 606 l 421 606 q 280 572 331 606 q 229 486 229 538 l 229 0 l 118 0 m 315 813 l 243 846 l 361 1082 l 463 1033 l 315 813 z "},"ř":{"ha":510,"x_min":82,"x_max":529,"o":"m 118 0 l 118 717 l 229 717 l 229 585 l 236 585 q 306 676 256 636 q 443 717 356 717 l 486 717 l 486 606 l 421 606 q 280 572 331 606 q 229 486 229 538 l 229 0 l 118 0 m 236 832 l 82 1031 l 143 1074 l 306 911 l 468 1074 l 529 1031 l 375 832 l 236 832 z "},"ŗ":{"ha":510,"x_min":83,"x_max":486,"o":"m 118 0 l 118 717 l 229 717 l 229 585 l 236 585 q 306 676 256 636 q 443 717 356 717 l 486 717 l 486 606 l 421 606 q 280 572 331 606 q 229 486 229 538 l 229 0 l 118 0 m 176 -92 q 229 -109 211 -92 q 247 -157 247 -126 l 247 -172 q 222 -265 247 -221 q 164 -340 197 -308 l 83 -340 q 128 -287 111 -311 q 154 -232 144 -264 q 118 -210 131 -226 q 106 -171 106 -194 l 106 -157 q 124 -109 106 -126 q 176 -92 142 -92 z "},"ś":{"ha":676,"x_min":50,"x_max":599,"o":"m 333 -17 q 166 22 233 -17 q 50 124 99 60 l 129 188 q 222 106 171 135 q 342 78 274 78 q 452 108 413 78 q 492 194 492 139 q 465 266 492 236 q 367 307 438 296 l 310 315 q 218 337 260 322 q 145 376 176 351 q 97 436 114 400 q 79 522 79 472 q 99 615 79 575 q 152 681 118 654 q 233 720 186 707 q 335 733 281 733 q 481 703 422 733 q 585 618 540 672 l 511 551 q 442 612 488 585 q 326 639 396 639 q 222 609 257 639 q 186 528 186 579 q 222 451 186 475 q 324 417 257 428 l 379 408 q 549 340 499 390 q 599 207 599 289 q 528 43 599 103 q 333 -17 457 -17 m 342 813 l 269 846 l 388 1082 l 489 1033 l 342 813 z "},"š":{"ha":676,"x_min":50,"x_max":599,"o":"m 333 -17 q 166 22 233 -17 q 50 124 99 60 l 129 188 q 222 106 171 135 q 342 78 274 78 q 452 108 413 78 q 492 194 492 139 q 465 266 492 236 q 367 307 438 296 l 310 315 q 218 337 260 322 q 145 376 176 351 q 97 436 114 400 q 79 522 79 472 q 99 615 79 575 q 152 681 118 654 q 233 720 186 707 q 335 733 281 733 q 481 703 422 733 q 585 618 540 672 l 511 551 q 442 612 488 585 q 326 639 396 639 q 222 609 257 639 q 186 528 186 579 q 222 451 186 475 q 324 417 257 428 l 379 408 q 549 340 499 390 q 599 207 599 289 q 528 43 599 103 q 333 -17 457 -17 m 263 832 l 108 1031 l 169 1074 l 332 911 l 494 1074 l 556 1031 l 401 832 l 263 832 z "},"ş":{"ha":676,"x_min":50,"x_max":599,"o":"m 350 -287 q 260 -269 293 -287 q 213 -231 228 -250 l 265 -174 q 299 -201 278 -189 q 350 -212 319 -212 q 394 -202 376 -212 q 411 -169 411 -192 q 393 -135 411 -150 q 317 -112 375 -121 l 278 -107 l 296 -15 q 153 28 213 -8 q 50 124 93 65 l 129 188 q 222 106 171 135 q 342 78 274 78 q 452 108 413 78 q 492 194 492 139 q 465 266 492 236 q 367 307 438 296 l 310 315 q 218 337 260 322 q 145 376 176 351 q 97 436 114 400 q 79 522 79 472 q 99 615 79 575 q 152 681 118 654 q 233 720 186 707 q 335 733 281 733 q 481 703 422 733 q 585 618 540 672 l 511 551 q 442 612 488 585 q 326 639 396 639 q 222 609 257 639 q 186 528 186 579 q 222 451 186 475 q 324 417 257 428 l 379 408 q 549 340 499 390 q 599 207 599 289 q 536 51 599 110 q 365 -15 474 -8 l 351 -85 l 356 -89 q 410 -81 382 -81 q 477 -104 450 -81 q 504 -172 504 -128 q 492 -224 504 -201 q 458 -260 479 -246 q 408 -281 436 -274 q 350 -287 381 -287 z "},"ŝ":{"ha":676,"x_min":50,"x_max":599,"o":"m 333 -17 q 166 22 233 -17 q 50 124 99 60 l 129 188 q 222 106 171 135 q 342 78 274 78 q 452 108 413 78 q 492 194 492 139 q 465 266 492 236 q 367 307 438 296 l 310 315 q 218 337 260 322 q 145 376 176 351 q 97 436 114 400 q 79 522 79 472 q 99 615 79 575 q 152 681 118 654 q 233 720 186 707 q 335 733 281 733 q 481 703 422 733 q 585 618 540 672 l 511 551 q 442 612 488 585 q 326 639 396 639 q 222 609 257 639 q 186 528 186 579 q 222 451 186 475 q 324 417 257 428 l 379 408 q 549 340 499 390 q 599 207 599 289 q 528 43 599 103 q 333 -17 457 -17 m 401 1063 l 556 864 l 494 821 l 332 983 l 169 821 l 108 864 l 263 1063 l 401 1063 z "},"ș":{"ha":676,"x_min":50,"x_max":599,"o":"m 333 -17 q 166 22 233 -17 q 50 124 99 60 l 129 188 q 222 106 171 135 q 342 78 274 78 q 452 108 413 78 q 492 194 492 139 q 465 266 492 236 q 367 307 438 296 l 310 315 q 218 337 260 322 q 145 376 176 351 q 97 436 114 400 q 79 522 79 472 q 99 615 79 575 q 152 681 118 654 q 233 720 186 707 q 335 733 281 733 q 481 703 422 733 q 585 618 540 672 l 511 551 q 442 612 488 585 q 326 639 396 639 q 222 609 257 639 q 186 528 186 579 q 222 451 186 475 q 324 417 257 428 l 379 408 q 549 340 499 390 q 599 207 599 289 q 528 43 599 103 q 333 -17 457 -17 m 333 -92 q 386 -109 368 -92 q 404 -157 404 -126 l 404 -172 q 379 -265 404 -221 q 321 -340 354 -308 l 240 -340 q 285 -287 268 -311 q 311 -232 301 -264 q 275 -210 288 -226 q 263 -171 263 -194 l 263 -157 q 281 -109 263 -126 q 333 -92 299 -92 z "},"ß":{"ha":889,"x_min":40,"x_max":851,"o":"m 851 207 q 785 43 851 103 q 600 -17 718 -17 q 457 14 517 -17 q 354 100 397 44 l 429 167 q 608 78 501 78 q 709 108 674 78 q 744 194 744 139 q 725 265 744 236 q 647 307 706 294 l 604 317 q 524 341 561 326 q 460 379 488 356 q 417 438 433 403 q 401 522 401 472 q 468 670 401 618 q 649 725 535 722 l 649 732 q 602 897 649 843 q 457 950 556 950 q 313 897 358 950 q 268 732 268 843 l 268 0 l 157 0 l 157 619 l 40 619 l 40 717 l 157 717 l 157 724 q 177 856 157 796 q 235 957 197 915 q 329 1022 274 999 q 457 1044 385 1044 q 584 1022 528 1044 q 678 957 640 999 q 737 856 717 915 q 757 724 757 796 l 757 639 l 692 639 q 556 613 604 639 q 508 528 508 588 q 537 451 508 475 q 618 415 565 428 l 660 406 q 807 335 763 382 q 851 207 851 288 z "},"ŧ":{"ha":496,"x_min":44,"x_max":431,"o":"m 419 0 l 281 0 q 192 32 222 0 q 163 117 163 64 l 163 344 l 74 344 l 74 431 l 163 431 l 163 619 l 44 619 l 44 717 l 111 717 q 160 731 147 717 q 174 782 174 746 l 174 915 l 274 915 l 274 717 l 431 717 l 431 619 l 274 619 l 274 431 l 400 431 l 400 344 l 274 344 l 274 97 l 419 97 l 419 0 z "},"ť":{"ha":488,"x_min":40,"x_max":513,"o":"m 276 0 q 188 33 218 0 q 158 118 158 65 l 158 619 l 40 619 l 40 717 l 107 717 q 156 731 143 717 q 169 782 169 746 l 169 915 l 269 915 l 269 717 l 426 717 l 426 619 l 269 619 l 269 97 l 415 97 l 415 0 l 276 0 m 440 786 l 367 786 l 383 1043 l 513 1043 l 440 786 z "},"ț":{"ha":488,"x_min":40,"x_max":426,"o":"m 276 0 q 188 33 218 0 q 158 118 158 65 l 158 619 l 40 619 l 40 717 l 107 717 q 156 731 143 717 q 169 782 169 746 l 169 915 l 269 915 l 269 717 l 426 717 l 426 619 l 269 619 l 269 97 l 415 97 l 415 0 l 276 0 m 296 -92 q 349 -109 331 -92 q 367 -157 367 -126 l 367 -172 q 342 -265 367 -221 q 283 -340 317 -308 l 203 -340 q 247 -287 231 -311 q 274 -232 264 -264 q 238 -210 250 -226 q 225 -171 225 -194 l 225 -157 q 243 -109 225 -126 q 296 -92 261 -92 z "},"ţ":{"ha":488,"x_min":40,"x_max":426,"o":"m 276 0 q 188 33 218 0 q 158 118 158 65 l 158 619 l 40 619 l 40 717 l 107 717 q 156 731 143 717 q 169 782 169 746 l 169 915 l 269 915 l 269 717 l 426 717 l 426 619 l 269 619 l 269 97 l 415 97 l 415 0 l 276 0 m 296 -92 q 349 -109 331 -92 q 367 -157 367 -126 l 367 -172 q 342 -265 367 -221 q 283 -340 317 -308 l 203 -340 q 247 -287 231 -311 q 274 -232 264 -264 q 238 -210 250 -226 q 225 -171 225 -194 l 225 -157 q 243 -109 225 -126 q 296 -92 261 -92 z "},"þ":{"ha":806,"x_min":118,"x_max":736,"o":"m 118 1028 l 229 1028 l 229 600 l 235 600 q 316 701 263 668 q 444 733 369 733 q 565 707 511 733 q 658 632 619 681 q 716 514 696 583 q 736 358 736 444 q 716 203 736 272 q 658 85 696 133 q 565 10 619 36 q 444 -17 511 -17 q 235 117 299 -17 l 229 117 l 229 -278 l 118 -278 l 118 1028 m 414 83 q 563 142 508 83 q 617 297 617 201 l 617 419 q 563 574 617 515 q 414 633 508 633 q 342 623 376 633 q 283 594 308 613 q 244 551 258 576 q 229 496 229 525 l 229 229 q 244 167 229 194 q 283 122 258 140 q 342 93 308 103 q 414 83 376 83 z "},"ú":{"ha":789,"x_min":111,"x_max":671,"o":"m 560 117 l 554 117 q 527 67 543 92 q 488 24 511 43 q 431 -6 464 6 q 353 -17 397 -17 q 176 55 242 -17 q 111 257 111 126 l 111 717 l 222 717 l 222 276 q 386 83 222 83 q 451 92 419 83 q 506 117 482 100 q 545 159 531 133 q 560 221 560 185 l 560 717 l 671 717 l 671 0 l 560 0 l 560 117 m 403 813 l 331 846 l 449 1082 l 550 1033 l 403 813 z "},"ŭ":{"ha":789,"x_min":111,"x_max":671,"o":"m 560 117 l 554 117 q 527 67 543 92 q 488 24 511 43 q 431 -6 464 6 q 353 -17 397 -17 q 176 55 242 -17 q 111 257 111 126 l 111 717 l 222 717 l 222 276 q 386 83 222 83 q 451 92 419 83 q 506 117 482 100 q 545 159 531 133 q 560 221 560 185 l 560 717 l 671 717 l 671 0 l 560 0 l 560 117 m 393 828 q 301 844 338 828 q 241 886 264 861 q 205 942 218 911 q 182 1001 192 972 l 244 1032 l 274 986 q 316 935 292 956 q 393 915 340 915 q 438 921 419 915 q 470 935 457 926 q 493 958 483 944 q 513 986 503 971 l 542 1032 l 604 1001 q 581 942 594 972 q 545 886 568 911 q 485 844 522 861 q 393 828 449 828 z "},"û":{"ha":789,"x_min":111,"x_max":671,"o":"m 560 117 l 554 117 q 527 67 543 92 q 488 24 511 43 q 431 -6 464 6 q 353 -17 397 -17 q 176 55 242 -17 q 111 257 111 126 l 111 717 l 222 717 l 222 276 q 386 83 222 83 q 451 92 419 83 q 506 117 482 100 q 545 159 531 133 q 560 221 560 185 l 560 717 l 671 717 l 671 0 l 560 0 l 560 117 m 463 1063 l 617 864 l 556 821 l 393 983 l 231 821 l 169 864 l 324 1063 l 463 1063 z "},"ü":{"ha":789,"x_min":111,"x_max":671,"o":"m 560 117 l 554 117 q 527 67 543 92 q 488 24 511 43 q 431 -6 464 6 q 353 -17 397 -17 q 176 55 242 -17 q 111 257 111 126 l 111 717 l 222 717 l 222 276 q 386 83 222 83 q 451 92 419 83 q 506 117 482 100 q 545 159 531 133 q 560 221 560 185 l 560 717 l 671 717 l 671 0 l 560 0 l 560 117 m 264 858 q 212 876 228 858 q 196 922 196 893 l 196 938 q 212 984 196 967 q 264 1001 228 1001 q 316 984 300 1001 q 332 938 332 967 l 332 922 q 316 876 332 893 q 264 858 300 858 m 522 858 q 470 876 486 858 q 454 922 454 893 l 454 938 q 470 984 454 967 q 522 1001 486 1001 q 574 984 558 1001 q 590 938 590 967 l 590 922 q 574 876 590 893 q 522 858 558 858 z "},"ụ":{"ha":789,"x_min":111,"x_max":671,"o":"m 560 117 l 554 117 q 527 67 543 92 q 488 24 511 43 q 431 -6 464 6 q 353 -17 397 -17 q 176 55 242 -17 q 111 257 111 126 l 111 717 l 222 717 l 222 276 q 386 83 222 83 q 451 92 419 83 q 506 117 482 100 q 545 159 531 133 q 560 221 560 185 l 560 717 l 671 717 l 671 0 l 560 0 l 560 117 m 386 -235 q 333 -217 350 -235 q 315 -171 315 -200 l 315 -156 q 333 -109 315 -126 q 386 -92 350 -92 q 440 -109 422 -92 q 457 -156 457 -126 l 457 -171 q 440 -217 457 -200 q 386 -235 422 -235 z "},"ù":{"ha":789,"x_min":111,"x_max":671,"o":"m 560 117 l 554 117 q 527 67 543 92 q 488 24 511 43 q 431 -6 464 6 q 353 -17 397 -17 q 176 55 242 -17 q 111 257 111 126 l 111 717 l 222 717 l 222 276 q 386 83 222 83 q 451 92 419 83 q 506 117 482 100 q 545 159 531 133 q 560 221 560 185 l 560 717 l 671 717 l 671 0 l 560 0 l 560 117 m 236 1033 l 338 1082 l 456 846 l 383 813 l 236 1033 z "},"ủ":{"ha":789,"x_min":111,"x_max":671,"o":"m 560 117 l 554 117 q 527 67 543 92 q 488 24 511 43 q 431 -6 464 6 q 353 -17 397 -17 q 176 55 242 -17 q 111 257 111 126 l 111 717 l 222 717 l 222 276 q 386 83 222 83 q 451 92 419 83 q 506 117 482 100 q 545 159 531 133 q 560 221 560 185 l 560 717 l 671 717 l 671 0 l 560 0 l 560 117 m 275 1063 l 426 1063 q 501 1040 479 1063 q 524 986 524 1018 q 506 919 524 956 q 456 843 488 883 l 422 801 l 358 833 l 439 978 l 275 978 l 275 1063 z "},"ű":{"ha":789,"x_min":111,"x_max":671,"o":"m 560 117 l 554 117 q 527 67 543 92 q 488 24 511 43 q 431 -6 464 6 q 353 -17 397 -17 q 176 55 242 -17 q 111 257 111 126 l 111 717 l 222 717 l 222 276 q 386 83 222 83 q 451 92 419 83 q 506 117 482 100 q 545 159 531 133 q 560 221 560 185 l 560 717 l 671 717 l 671 0 l 560 0 l 560 117 m 292 814 l 225 844 l 343 1081 l 439 1035 l 292 814 m 514 814 l 447 844 l 565 1081 l 661 1035 l 514 814 z "},"ū":{"ha":789,"x_min":111,"x_max":671,"o":"m 560 117 l 554 117 q 527 67 543 92 q 488 24 511 43 q 431 -6 464 6 q 353 -17 397 -17 q 176 55 242 -17 q 111 257 111 126 l 111 717 l 222 717 l 222 276 q 386 83 222 83 q 451 92 419 83 q 506 117 482 100 q 545 159 531 133 q 560 221 560 185 l 560 717 l 671 717 l 671 0 l 560 0 l 560 117 m 199 979 l 588 979 l 588 885 l 199 885 l 199 979 z "},"ų":{"ha":789,"x_min":111,"x_max":700,"o":"m 671 0 q 600 -68 626 -40 q 559 -115 574 -96 q 540 -147 544 -133 q 535 -171 535 -160 q 547 -203 535 -194 q 578 -212 558 -212 q 644 -179 618 -212 l 700 -233 q 657 -272 688 -256 q 578 -287 626 -287 q 485 -262 524 -287 q 446 -182 446 -237 q 487 -87 446 -129 q 586 -4 528 -44 l 585 0 l 560 0 l 560 117 l 554 117 q 527 67 543 92 q 488 24 511 43 q 431 -6 464 6 q 353 -17 397 -17 q 176 55 242 -17 q 111 257 111 126 l 111 717 l 222 717 l 222 276 q 386 83 222 83 q 451 92 419 83 q 506 117 482 100 q 545 159 531 133 q 560 221 560 185 l 560 717 l 671 717 l 671 0 z "},"ů":{"ha":789,"x_min":111,"x_max":671,"o":"m 560 117 l 554 117 q 527 67 543 92 q 488 24 511 43 q 431 -6 464 6 q 353 -17 397 -17 q 176 55 242 -17 q 111 257 111 126 l 111 717 l 222 717 l 222 276 q 386 83 222 83 q 451 92 419 83 q 506 117 482 100 q 545 159 531 133 q 560 221 560 185 l 560 717 l 671 717 l 671 0 l 560 0 l 560 117 m 393 800 q 330 812 360 800 q 278 845 300 824 q 244 896 257 867 q 232 960 232 925 q 244 1024 232 994 q 278 1074 257 1053 q 330 1108 300 1096 q 393 1119 360 1119 q 456 1108 426 1119 q 508 1074 486 1096 q 542 1024 529 1053 q 554 960 554 994 q 542 896 554 925 q 508 845 529 867 q 456 812 486 824 q 393 800 426 800 m 393 868 q 452 888 431 868 q 474 944 474 908 l 474 975 q 452 1031 474 1011 q 393 1051 431 1051 q 334 1031 356 1051 q 313 975 313 1011 l 313 944 q 334 888 313 908 q 393 868 356 868 z "},"ũ":{"ha":789,"x_min":111,"x_max":671,"o":"m 560 117 l 554 117 q 527 67 543 92 q 488 24 511 43 q 431 -6 464 6 q 353 -17 397 -17 q 176 55 242 -17 q 111 257 111 126 l 111 717 l 222 717 l 222 276 q 386 83 222 83 q 451 92 419 83 q 506 117 482 100 q 545 159 531 133 q 560 221 560 185 l 560 717 l 671 717 l 671 0 l 560 0 l 560 117 m 494 850 q 432 863 458 850 q 383 886 406 875 q 327 912 350 904 q 286 919 304 919 q 244 910 263 919 q 206 882 226 900 l 160 938 q 211 988 179 965 q 292 1011 243 1011 q 354 999 328 1011 q 403 975 381 986 q 459 949 436 957 q 500 942 482 942 q 542 951 524 942 q 581 979 560 961 l 626 924 q 575 873 607 896 q 494 850 543 850 z "},"ư":{"ha":789,"x_min":111,"x_max":786,"o":"m 786 731 q 769 669 786 694 q 699 643 751 643 l 671 643 l 671 0 l 560 0 l 560 117 l 554 117 q 527 67 543 92 q 488 24 511 43 q 431 -6 464 6 q 353 -17 397 -17 q 176 55 242 -17 q 111 257 111 126 l 111 717 l 222 717 l 222 276 q 386 83 222 83 q 451 92 419 83 q 506 117 482 100 q 545 159 531 133 q 560 221 560 185 l 560 717 l 688 717 l 688 872 l 786 872 l 786 731 z "},"ứ":{"ha":789,"x_min":111,"x_max":786,"o":"m 786 731 q 769 669 786 694 q 699 643 751 643 l 671 643 l 671 0 l 560 0 l 560 117 l 554 117 q 527 67 543 92 q 488 24 511 43 q 431 -6 464 6 q 353 -17 397 -17 q 176 55 242 -17 q 111 257 111 126 l 111 717 l 222 717 l 222 276 q 386 83 222 83 q 451 92 419 83 q 506 117 482 100 q 545 159 531 133 q 560 221 560 185 l 560 717 l 688 717 l 688 872 l 786 872 l 786 731 m 403 813 l 331 846 l 449 1082 l 550 1033 l 403 813 z "},"ự":{"ha":789,"x_min":111,"x_max":786,"o":"m 786 731 q 769 669 786 694 q 699 643 751 643 l 671 643 l 671 0 l 560 0 l 560 117 l 554 117 q 527 67 543 92 q 488 24 511 43 q 431 -6 464 6 q 353 -17 397 -17 q 176 55 242 -17 q 111 257 111 126 l 111 717 l 222 717 l 222 276 q 386 83 222 83 q 451 92 419 83 q 506 117 482 100 q 545 159 531 133 q 560 221 560 185 l 560 717 l 688 717 l 688 872 l 786 872 l 786 731 m 386 -235 q 333 -217 350 -235 q 315 -171 315 -200 l 315 -156 q 333 -109 315 -126 q 386 -92 350 -92 q 440 -109 422 -92 q 457 -156 457 -126 l 457 -171 q 440 -217 457 -200 q 386 -235 422 -235 z "},"ừ":{"ha":789,"x_min":111,"x_max":786,"o":"m 786 731 q 769 669 786 694 q 699 643 751 643 l 671 643 l 671 0 l 560 0 l 560 117 l 554 117 q 527 67 543 92 q 488 24 511 43 q 431 -6 464 6 q 353 -17 397 -17 q 176 55 242 -17 q 111 257 111 126 l 111 717 l 222 717 l 222 276 q 386 83 222 83 q 451 92 419 83 q 506 117 482 100 q 545 159 531 133 q 560 221 560 185 l 560 717 l 688 717 l 688 872 l 786 872 l 786 731 m 236 1033 l 338 1082 l 456 846 l 383 813 l 236 1033 z "},"ử":{"ha":789,"x_min":111,"x_max":786,"o":"m 786 731 q 769 669 786 694 q 699 643 751 643 l 671 643 l 671 0 l 560 0 l 560 117 l 554 117 q 527 67 543 92 q 488 24 511 43 q 431 -6 464 6 q 353 -17 397 -17 q 176 55 242 -17 q 111 257 111 126 l 111 717 l 222 717 l 222 276 q 386 83 222 83 q 451 92 419 83 q 506 117 482 100 q 545 159 531 133 q 560 221 560 185 l 560 717 l 688 717 l 688 872 l 786 872 l 786 731 m 275 1063 l 426 1063 q 501 1040 479 1063 q 524 986 524 1018 q 506 919 524 956 q 456 843 488 883 l 422 801 l 358 833 l 439 978 l 275 978 l 275 1063 z "},"ữ":{"ha":789,"x_min":111,"x_max":786,"o":"m 786 731 q 769 669 786 694 q 699 643 751 643 l 671 643 l 671 0 l 560 0 l 560 117 l 554 117 q 527 67 543 92 q 488 24 511 43 q 431 -6 464 6 q 353 -17 397 -17 q 176 55 242 -17 q 111 257 111 126 l 111 717 l 222 717 l 222 276 q 386 83 222 83 q 451 92 419 83 q 506 117 482 100 q 545 159 531 133 q 560 221 560 185 l 560 717 l 688 717 l 688 872 l 786 872 l 786 731 m 481 856 q 426 866 449 856 q 383 886 403 876 q 340 907 357 900 q 304 914 324 914 q 263 904 282 914 q 225 876 244 894 l 179 932 q 230 983 199 960 q 306 1006 261 1006 q 360 995 338 1006 q 403 975 383 985 q 446 954 429 961 q 482 947 463 947 q 523 957 504 947 q 561 985 542 967 l 607 929 q 556 878 588 901 q 481 856 525 856 z "},"ẃ":{"ha":1067,"x_min":43,"x_max":1024,"o":"m 43 717 l 151 717 l 228 407 l 304 93 l 307 93 l 394 407 l 485 717 l 583 717 l 676 407 l 765 93 l 768 93 l 842 407 l 919 717 l 1024 717 l 833 0 l 696 0 l 596 344 l 533 563 l 531 563 l 469 344 l 369 0 l 235 0 l 43 717 m 543 813 l 471 846 l 589 1082 l 690 1033 l 543 813 z "},"ŵ":{"ha":1067,"x_min":43,"x_max":1024,"o":"m 43 717 l 151 717 l 228 407 l 304 93 l 307 93 l 394 407 l 485 717 l 583 717 l 676 407 l 765 93 l 768 93 l 842 407 l 919 717 l 1024 717 l 833 0 l 696 0 l 596 344 l 533 563 l 531 563 l 469 344 l 369 0 l 235 0 l 43 717 m 603 1063 l 757 864 l 696 821 l 533 983 l 371 821 l 310 864 l 464 1063 l 603 1063 z "},"ẅ":{"ha":1067,"x_min":43,"x_max":1024,"o":"m 43 717 l 151 717 l 228 407 l 304 93 l 307 93 l 394 407 l 485 717 l 583 717 l 676 407 l 765 93 l 768 93 l 842 407 l 919 717 l 1024 717 l 833 0 l 696 0 l 596 344 l 533 563 l 531 563 l 469 344 l 369 0 l 235 0 l 43 717 m 404 858 q 352 876 368 858 q 336 922 336 893 l 336 938 q 352 984 336 967 q 404 1001 368 1001 q 456 984 440 1001 q 472 938 472 967 l 472 922 q 456 876 472 893 q 404 858 440 858 m 663 858 q 610 876 626 858 q 594 922 594 893 l 594 938 q 610 984 594 967 q 663 1001 626 1001 q 715 984 699 1001 q 731 938 731 967 l 731 922 q 715 876 731 893 q 663 858 699 858 z "},"ẁ":{"ha":1067,"x_min":43,"x_max":1024,"o":"m 43 717 l 151 717 l 228 407 l 304 93 l 307 93 l 394 407 l 485 717 l 583 717 l 676 407 l 765 93 l 768 93 l 842 407 l 919 717 l 1024 717 l 833 0 l 696 0 l 596 344 l 533 563 l 531 563 l 469 344 l 369 0 l 235 0 l 43 717 m 376 1033 l 478 1082 l 596 846 l 524 813 l 376 1033 z "},"ý":{"ha":693,"x_min":24,"x_max":669,"o":"m 560 717 l 669 717 l 349 -167 q 324 -220 336 -199 q 293 -254 311 -242 q 248 -272 275 -267 q 182 -278 221 -278 l 125 -278 l 125 -181 l 238 -181 l 292 -28 l 24 717 l 135 717 l 307 229 l 340 113 l 347 113 l 386 229 l 560 717 m 358 813 l 286 846 l 404 1082 l 506 1033 l 358 813 z "},"ŷ":{"ha":693,"x_min":24,"x_max":669,"o":"m 560 717 l 669 717 l 349 -167 q 324 -220 336 -199 q 293 -254 311 -242 q 248 -272 275 -267 q 182 -278 221 -278 l 125 -278 l 125 -181 l 238 -181 l 292 -28 l 24 717 l 135 717 l 307 229 l 340 113 l 347 113 l 386 229 l 560 717 m 418 1063 l 572 864 l 511 821 l 349 983 l 186 821 l 125 864 l 279 1063 l 418 1063 z "},"ÿ":{"ha":693,"x_min":24,"x_max":669,"o":"m 560 717 l 669 717 l 349 -167 q 324 -220 336 -199 q 293 -254 311 -242 q 248 -272 275 -267 q 182 -278 221 -278 l 125 -278 l 125 -181 l 238 -181 l 292 -28 l 24 717 l 135 717 l 307 229 l 340 113 l 347 113 l 386 229 l 560 717 m 219 858 q 167 876 183 858 q 151 922 151 893 l 151 938 q 167 984 151 967 q 219 1001 183 1001 q 272 984 256 1001 q 288 938 288 967 l 288 922 q 272 876 288 893 q 219 858 256 858 m 478 858 q 426 876 442 858 q 410 922 410 893 l 410 938 q 426 984 410 967 q 478 1001 442 1001 q 530 984 514 1001 q 546 938 546 967 l 546 922 q 530 876 546 893 q 478 858 514 858 z "},"ỵ":{"ha":693,"x_min":24,"x_max":669,"o":"m 560 717 l 669 717 l 349 -167 q 324 -220 336 -199 q 293 -254 311 -242 q 248 -272 275 -267 q 182 -278 221 -278 l 125 -278 l 125 -181 l 238 -181 l 292 -28 l 24 717 l 135 717 l 307 229 l 340 113 l 347 113 l 386 229 l 560 717 m 544 -235 q 491 -217 508 -235 q 474 -171 474 -200 l 474 -156 q 491 -109 474 -126 q 544 -92 508 -92 q 598 -109 581 -92 q 615 -156 615 -126 l 615 -171 q 598 -217 615 -200 q 544 -235 581 -235 z "},"ỳ":{"ha":693,"x_min":24,"x_max":669,"o":"m 560 717 l 669 717 l 349 -167 q 324 -220 336 -199 q 293 -254 311 -242 q 248 -272 275 -267 q 182 -278 221 -278 l 125 -278 l 125 -181 l 238 -181 l 292 -28 l 24 717 l 135 717 l 307 229 l 340 113 l 347 113 l 386 229 l 560 717 m 192 1033 l 293 1082 l 411 846 l 339 813 l 192 1033 z "},"ỷ":{"ha":693,"x_min":24,"x_max":669,"o":"m 560 717 l 669 717 l 349 -167 q 324 -220 336 -199 q 293 -254 311 -242 q 248 -272 275 -267 q 182 -278 221 -278 l 125 -278 l 125 -181 l 238 -181 l 292 -28 l 24 717 l 135 717 l 307 229 l 340 113 l 347 113 l 386 229 l 560 717 m 231 1063 l 382 1063 q 457 1040 435 1063 q 479 986 479 1018 q 461 919 479 956 q 411 843 443 883 l 378 801 l 314 833 l 394 978 l 231 978 l 231 1063 z "},"ỹ":{"ha":693,"x_min":24,"x_max":669,"o":"m 560 717 l 669 717 l 349 -167 q 324 -220 336 -199 q 293 -254 311 -242 q 248 -272 275 -267 q 182 -278 221 -278 l 125 -278 l 125 -181 l 238 -181 l 292 -28 l 24 717 l 135 717 l 307 229 l 340 113 l 347 113 l 386 229 l 560 717 m 450 850 q 388 863 414 850 q 339 886 361 875 q 283 912 306 904 q 242 919 260 919 q 200 910 218 919 q 161 882 182 900 l 115 938 q 167 988 135 965 q 247 1011 199 1011 q 310 999 283 1011 q 358 975 336 986 q 415 949 392 957 q 456 942 438 942 q 497 951 479 942 q 536 979 515 961 l 582 924 q 531 873 563 896 q 450 850 499 850 z "},"ź":{"ha":644,"x_min":46,"x_max":599,"o":"m 46 0 l 46 93 l 453 619 l 58 619 l 58 717 l 588 717 l 588 633 l 172 97 l 599 97 l 599 0 l 46 0 m 333 813 l 261 846 l 379 1082 l 481 1033 l 333 813 z "},"ž":{"ha":644,"x_min":46,"x_max":599,"o":"m 46 0 l 46 93 l 453 619 l 58 619 l 58 717 l 588 717 l 588 633 l 172 97 l 599 97 l 599 0 l 46 0 m 254 832 l 100 1031 l 161 1074 l 324 911 l 486 1074 l 547 1031 l 393 832 l 254 832 z "},"ż":{"ha":644,"x_min":46,"x_max":599,"o":"m 46 0 l 46 93 l 453 619 l 58 619 l 58 717 l 588 717 l 588 633 l 172 97 l 599 97 l 599 0 l 46 0 m 324 856 q 270 873 288 856 q 253 919 253 890 l 253 935 q 270 981 253 964 q 324 999 288 999 q 377 981 360 999 q 394 935 394 964 l 394 919 q 377 873 394 890 q 324 856 360 856 z "},"Á":{"ha":890,"x_min":32,"x_max":858,"o":"m 736 0 l 639 286 l 247 286 l 150 0 l 32 0 l 371 969 l 519 969 l 858 0 l 736 0 m 446 861 l 439 861 l 275 389 l 610 389 l 446 861 m 457 1049 l 385 1082 l 503 1318 l 604 1269 l 457 1049 z "},"Ă":{"ha":890,"x_min":32,"x_max":858,"o":"m 736 0 l 639 286 l 247 286 l 150 0 l 32 0 l 371 969 l 519 969 l 858 0 l 736 0 m 446 861 l 439 861 l 275 389 l 610 389 l 446 861 m 447 1064 q 355 1081 392 1064 q 295 1122 318 1097 q 259 1178 272 1147 q 236 1238 246 1208 l 299 1268 l 328 1222 q 370 1172 346 1192 q 447 1151 394 1151 q 492 1157 474 1151 q 524 1172 511 1163 q 547 1194 538 1181 q 567 1222 557 1207 l 596 1268 l 658 1238 q 635 1178 649 1208 q 599 1122 622 1147 q 540 1081 576 1097 q 447 1064 503 1064 z "},"Â":{"ha":890,"x_min":32,"x_max":858,"o":"m 736 0 l 639 286 l 247 286 l 150 0 l 32 0 l 371 969 l 519 969 l 858 0 l 736 0 m 446 861 l 439 861 l 275 389 l 610 389 l 446 861 m 517 1299 l 671 1100 l 610 1057 l 447 1219 l 285 1057 l 224 1100 l 378 1299 l 517 1299 z "},"Ä":{"ha":890,"x_min":32,"x_max":858,"o":"m 736 0 l 639 286 l 247 286 l 150 0 l 32 0 l 371 969 l 519 969 l 858 0 l 736 0 m 446 861 l 439 861 l 275 389 l 610 389 l 446 861 m 318 1094 q 265 1113 282 1094 q 249 1160 249 1131 l 249 1176 q 265 1224 249 1206 q 318 1242 282 1242 q 371 1224 354 1242 q 388 1176 388 1206 l 388 1160 q 371 1113 388 1131 q 318 1094 354 1094 m 576 1094 q 524 1113 540 1094 q 507 1160 507 1131 l 507 1176 q 524 1224 507 1206 q 576 1242 540 1242 q 629 1224 613 1242 q 646 1176 646 1206 l 646 1160 q 629 1113 646 1131 q 576 1094 613 1094 z "},"Ạ":{"ha":890,"x_min":32,"x_max":858,"o":"m 736 0 l 639 286 l 247 286 l 150 0 l 32 0 l 371 969 l 519 969 l 858 0 l 736 0 m 446 861 l 439 861 l 275 389 l 610 389 l 446 861 m 447 -235 q 394 -217 411 -235 q 376 -171 376 -200 l 376 -156 q 394 -109 376 -126 q 447 -92 411 -92 q 501 -109 483 -92 q 518 -156 518 -126 l 518 -171 q 501 -217 518 -200 q 447 -235 483 -235 z "},"À":{"ha":890,"x_min":32,"x_max":858,"o":"m 736 0 l 639 286 l 247 286 l 150 0 l 32 0 l 371 969 l 519 969 l 858 0 l 736 0 m 446 861 l 439 861 l 275 389 l 610 389 l 446 861 m 290 1269 l 392 1318 l 510 1082 l 438 1049 l 290 1269 z "},"Ả":{"ha":890,"x_min":32,"x_max":858,"o":"m 736 0 l 639 286 l 247 286 l 150 0 l 32 0 l 371 969 l 519 969 l 858 0 l 736 0 m 446 861 l 439 861 l 275 389 l 610 389 l 446 861 m 331 1299 l 482 1299 q 557 1276 535 1299 q 579 1222 579 1254 q 561 1156 579 1192 q 511 1079 543 1119 l 478 1038 l 414 1069 l 494 1214 l 331 1214 l 331 1299 z "},"Ā":{"ha":890,"x_min":32,"x_max":858,"o":"m 736 0 l 639 286 l 247 286 l 150 0 l 32 0 l 371 969 l 519 969 l 858 0 l 736 0 m 446 861 l 439 861 l 275 389 l 610 389 l 446 861 m 253 1215 l 642 1215 l 642 1121 l 253 1121 l 253 1215 z "},"Ą":{"ha":890,"x_min":32,"x_max":888,"o":"m 371 969 l 519 969 l 858 0 q 788 -68 814 -40 q 747 -115 761 -96 q 727 -147 732 -133 q 722 -171 722 -160 q 734 -203 722 -194 q 765 -212 746 -212 q 832 -179 806 -212 l 888 -233 q 844 -272 875 -256 q 765 -287 814 -287 q 672 -262 711 -287 q 633 -182 633 -237 q 644 -132 633 -156 q 675 -87 656 -108 q 720 -47 694 -67 q 774 -6 746 -26 l 772 0 l 736 0 l 639 286 l 247 286 l 150 0 l 32 0 l 371 969 m 446 861 l 439 861 l 275 389 l 610 389 l 446 861 z "},"Å":{"ha":890,"x_min":32,"x_max":858,"o":"m 736 0 l 639 286 l 247 286 l 150 0 l 32 0 l 371 969 l 519 969 l 858 0 l 736 0 m 446 861 l 439 861 l 275 389 l 610 389 l 446 861 m 447 1036 q 384 1048 414 1036 q 333 1081 354 1060 q 299 1132 311 1103 q 286 1196 286 1161 q 299 1260 286 1231 q 333 1310 311 1289 q 384 1344 354 1332 q 447 1356 414 1356 q 510 1344 481 1356 q 562 1310 540 1332 q 596 1260 583 1289 q 608 1196 608 1231 q 596 1132 608 1161 q 562 1081 583 1103 q 510 1048 540 1060 q 447 1036 481 1036 m 447 1104 q 506 1124 485 1104 q 528 1181 528 1144 l 528 1211 q 506 1267 528 1247 q 447 1288 485 1288 q 388 1267 410 1288 q 367 1211 367 1247 l 367 1181 q 388 1124 367 1144 q 447 1104 410 1104 z "},"Ǻ":{"ha":890,"x_min":32,"x_max":858,"o":"m 736 0 l 639 286 l 247 286 l 150 0 l 32 0 l 371 969 l 519 969 l 858 0 l 736 0 m 446 861 l 439 861 l 275 389 l 610 389 l 446 861 m 467 1371 l 401 1397 l 503 1554 l 600 1519 l 467 1371 m 447 1022 q 384 1034 414 1022 q 333 1067 354 1046 q 299 1118 311 1089 q 286 1182 286 1147 q 299 1246 286 1217 q 333 1297 311 1275 q 384 1330 354 1318 q 447 1342 414 1342 q 510 1330 481 1342 q 562 1297 540 1318 q 596 1246 583 1275 q 608 1182 608 1217 q 596 1118 608 1147 q 562 1067 583 1089 q 510 1034 540 1046 q 447 1022 481 1022 m 447 1090 q 506 1110 485 1090 q 528 1167 528 1131 l 528 1197 q 506 1253 528 1233 q 447 1274 485 1274 q 388 1253 410 1274 q 367 1197 367 1233 l 367 1167 q 388 1110 367 1131 q 447 1090 410 1090 z "},"Ã":{"ha":890,"x_min":32,"x_max":858,"o":"m 736 0 l 639 286 l 247 286 l 150 0 l 32 0 l 371 969 l 519 969 l 858 0 l 736 0 m 446 861 l 439 861 l 275 389 l 610 389 l 446 861 m 549 1086 q 486 1099 513 1086 q 438 1122 460 1111 q 381 1148 404 1140 q 340 1156 358 1156 q 299 1146 317 1156 q 260 1118 281 1136 l 214 1174 q 265 1224 233 1201 q 346 1247 297 1247 q 408 1235 382 1247 q 457 1211 435 1222 q 513 1185 490 1193 q 554 1178 536 1178 q 596 1188 578 1178 q 635 1215 614 1197 l 681 1160 q 629 1109 661 1132 q 549 1086 597 1086 z "},"Ắ":{"ha":890,"x_min":32,"x_max":858,"o":"m 736 0 l 639 286 l 247 286 l 150 0 l 32 0 l 371 969 l 519 969 l 858 0 l 736 0 m 446 861 l 439 861 l 275 389 l 610 389 l 446 861 m 447 1050 q 355 1067 392 1050 q 295 1108 318 1083 q 259 1164 272 1133 q 236 1224 246 1194 l 299 1254 l 328 1201 q 369 1151 344 1171 q 447 1131 394 1131 q 525 1151 500 1131 q 567 1201 550 1171 l 596 1254 l 658 1224 q 635 1164 649 1194 q 599 1108 622 1133 q 540 1067 576 1083 q 447 1050 503 1050 m 453 1206 l 385 1238 l 503 1474 l 600 1426 l 453 1206 z "},"Ặ":{"ha":890,"x_min":32,"x_max":858,"o":"m 736 0 l 639 286 l 247 286 l 150 0 l 32 0 l 371 969 l 519 969 l 858 0 l 736 0 m 446 861 l 439 861 l 275 389 l 610 389 l 446 861 m 447 1064 q 355 1081 392 1064 q 295 1122 318 1097 q 259 1178 272 1147 q 236 1238 246 1208 l 299 1268 l 328 1222 q 370 1172 346 1192 q 447 1151 394 1151 q 492 1157 474 1151 q 524 1172 511 1163 q 547 1194 538 1181 q 567 1222 557 1207 l 596 1268 l 658 1238 q 635 1178 649 1208 q 599 1122 622 1147 q 540 1081 576 1097 q 447 1064 503 1064 m 447 -235 q 394 -217 411 -235 q 376 -171 376 -200 l 376 -156 q 394 -109 376 -126 q 447 -92 411 -92 q 501 -109 483 -92 q 518 -156 518 -126 l 518 -171 q 501 -217 518 -200 q 447 -235 483 -235 z "},"Ằ":{"ha":890,"x_min":32,"x_max":858,"o":"m 736 0 l 639 286 l 247 286 l 150 0 l 32 0 l 371 969 l 519 969 l 858 0 l 736 0 m 446 861 l 439 861 l 275 389 l 610 389 l 446 861 m 447 1050 q 355 1067 392 1050 q 295 1108 318 1083 q 259 1164 272 1133 q 236 1224 246 1194 l 299 1254 l 328 1201 q 369 1151 344 1171 q 447 1131 394 1131 q 525 1151 500 1131 q 567 1201 550 1171 l 596 1254 l 658 1224 q 635 1164 649 1194 q 599 1108 622 1133 q 540 1067 576 1083 q 447 1050 503 1050 m 294 1426 l 392 1474 l 510 1238 l 442 1206 l 294 1426 z "},"Ẳ":{"ha":890,"x_min":32,"x_max":858,"o":"m 736 0 l 639 286 l 247 286 l 150 0 l 32 0 l 371 969 l 519 969 l 858 0 l 736 0 m 446 861 l 439 861 l 275 389 l 610 389 l 446 861 m 324 1458 l 454 1458 q 529 1436 507 1458 q 551 1382 551 1414 q 533 1315 551 1351 q 483 1239 515 1279 l 450 1197 l 389 1229 l 472 1378 l 324 1378 l 324 1458 m 447 1050 q 355 1067 392 1050 q 295 1108 318 1083 q 259 1164 272 1133 q 236 1224 246 1194 l 299 1254 l 328 1201 q 369 1151 344 1171 q 447 1131 394 1131 q 525 1151 500 1131 q 567 1201 550 1171 l 596 1254 l 658 1224 q 635 1164 649 1194 q 599 1108 622 1133 q 540 1067 576 1083 q 447 1050 503 1050 z "},"Ẵ":{"ha":890,"x_min":32,"x_max":858,"o":"m 736 0 l 639 286 l 247 286 l 150 0 l 32 0 l 371 969 l 519 969 l 858 0 l 736 0 m 446 861 l 439 861 l 275 389 l 610 389 l 446 861 m 547 1308 q 485 1321 511 1308 q 436 1344 458 1333 q 380 1370 403 1363 q 339 1378 357 1378 q 297 1368 315 1378 q 258 1340 279 1358 l 215 1390 q 267 1441 235 1418 q 347 1464 299 1464 q 410 1451 383 1464 q 458 1428 436 1439 q 515 1402 492 1410 q 556 1394 538 1394 q 597 1404 579 1394 q 636 1432 615 1414 l 679 1382 q 628 1331 660 1354 q 547 1308 596 1308 m 447 1050 q 355 1067 392 1050 q 295 1108 318 1083 q 259 1164 272 1133 q 236 1224 246 1194 l 299 1254 l 328 1201 q 369 1151 344 1171 q 447 1131 394 1131 q 525 1151 500 1131 q 567 1201 550 1171 l 596 1254 l 658 1224 q 635 1164 649 1194 q 599 1108 622 1133 q 540 1067 576 1083 q 447 1050 503 1050 z "},"Ấ":{"ha":890,"x_min":32,"x_max":858,"o":"m 736 0 l 639 286 l 247 286 l 150 0 l 32 0 l 371 969 l 519 969 l 858 0 l 736 0 m 446 861 l 439 861 l 275 389 l 610 389 l 446 861 m 661 1206 l 593 1238 l 711 1474 l 808 1426 l 661 1206 m 517 1271 l 669 1085 l 613 1043 l 447 1199 l 282 1043 l 225 1085 l 378 1271 l 517 1271 z "},"Ậ":{"ha":890,"x_min":32,"x_max":858,"o":"m 736 0 l 639 286 l 247 286 l 150 0 l 32 0 l 371 969 l 519 969 l 858 0 l 736 0 m 446 861 l 439 861 l 275 389 l 610 389 l 446 861 m 517 1299 l 671 1100 l 610 1057 l 447 1219 l 285 1057 l 224 1100 l 378 1299 l 517 1299 m 447 -235 q 394 -217 411 -235 q 376 -171 376 -200 l 376 -156 q 394 -109 376 -126 q 447 -92 411 -92 q 501 -109 483 -92 q 518 -156 518 -126 l 518 -171 q 501 -217 518 -200 q 447 -235 483 -235 z "},"Ầ":{"ha":890,"x_min":32,"x_max":858,"o":"m 736 0 l 639 286 l 247 286 l 150 0 l 32 0 l 371 969 l 519 969 l 858 0 l 736 0 m 446 861 l 439 861 l 275 389 l 610 389 l 446 861 m 86 1426 l 183 1474 l 301 1238 l 233 1206 l 86 1426 m 517 1271 l 669 1085 l 613 1043 l 447 1199 l 282 1043 l 225 1085 l 378 1271 l 517 1271 z "},"Ẩ":{"ha":890,"x_min":32,"x_max":858,"o":"m 736 0 l 639 286 l 247 286 l 150 0 l 32 0 l 371 969 l 519 969 l 858 0 l 736 0 m 446 861 l 439 861 l 275 389 l 610 389 l 446 861 m 517 1458 l 668 1458 q 743 1436 721 1458 q 765 1382 765 1414 q 747 1315 765 1351 q 697 1239 729 1279 l 664 1197 l 603 1229 l 686 1378 l 517 1378 l 517 1458 m 517 1271 l 669 1085 l 613 1043 l 447 1199 l 282 1043 l 225 1085 l 378 1271 l 517 1271 z "},"Ẫ":{"ha":890,"x_min":32,"x_max":858,"o":"m 736 0 l 639 286 l 247 286 l 150 0 l 32 0 l 371 969 l 519 969 l 858 0 l 736 0 m 446 861 l 439 861 l 275 389 l 610 389 l 446 861 m 347 1464 q 410 1451 383 1464 q 458 1428 436 1439 q 515 1402 492 1410 q 556 1394 538 1394 q 597 1404 579 1394 q 636 1432 615 1414 l 679 1382 q 628 1331 660 1354 q 547 1308 596 1308 q 485 1321 511 1308 q 436 1344 458 1333 q 380 1370 403 1363 q 339 1378 357 1378 q 297 1368 315 1378 q 258 1340 279 1358 l 215 1390 q 267 1441 235 1418 q 347 1464 299 1464 m 517 1271 l 669 1085 l 613 1043 l 447 1199 l 282 1043 l 225 1085 l 378 1271 l 517 1271 z "},"Æ":{"ha":1260,"x_min":6,"x_max":1171,"o":"m 579 285 l 267 285 l 125 0 l 6 0 l 501 969 l 1171 969 l 1171 867 l 694 867 l 694 542 l 1143 542 l 1143 439 l 694 439 l 694 103 l 1171 103 l 1171 0 l 579 0 l 579 285 m 561 867 l 315 388 l 579 388 l 579 867 l 561 867 z "},"Ǽ":{"ha":1260,"x_min":6,"x_max":1171,"o":"m 579 285 l 267 285 l 125 0 l 6 0 l 501 969 l 1171 969 l 1171 867 l 694 867 l 694 542 l 1143 542 l 1143 439 l 694 439 l 694 103 l 1171 103 l 1171 0 l 579 0 l 579 285 m 561 867 l 315 388 l 579 388 l 579 867 l 561 867 m 831 1049 l 758 1082 l 876 1318 l 978 1269 l 831 1049 z "},"Ć":{"ha":863,"x_min":81,"x_max":811,"o":"m 471 -17 q 183 109 286 -17 q 81 479 81 235 q 183 855 81 724 q 471 986 286 986 q 676 931 593 986 q 804 774 758 875 l 710 717 q 621 837 681 792 q 471 882 561 882 q 359 858 408 882 q 276 791 310 835 q 224 687 242 747 q 206 551 206 626 l 206 407 q 275 172 206 257 q 471 88 344 88 q 626 135 564 88 q 718 263 689 183 l 811 204 q 679 42 765 101 q 471 -17 593 -17 m 479 1049 l 407 1082 l 525 1318 l 626 1269 l 479 1049 z "},"Č":{"ha":863,"x_min":81,"x_max":811,"o":"m 471 -17 q 183 109 286 -17 q 81 479 81 235 q 183 855 81 724 q 471 986 286 986 q 676 931 593 986 q 804 774 758 875 l 710 717 q 621 837 681 792 q 471 882 561 882 q 359 858 408 882 q 276 791 310 835 q 224 687 242 747 q 206 551 206 626 l 206 407 q 275 172 206 257 q 471 88 344 88 q 626 135 564 88 q 718 263 689 183 l 811 204 q 679 42 765 101 q 471 -17 593 -17 m 400 1068 l 246 1267 l 307 1310 l 469 1147 l 632 1310 l 693 1267 l 539 1068 l 400 1068 z "},"Ç":{"ha":863,"x_min":81,"x_max":811,"o":"m 471 882 q 359 858 408 882 q 276 791 310 835 q 224 687 242 747 q 206 551 206 626 l 206 407 q 275 172 206 257 q 471 88 344 88 q 626 135 564 88 q 718 263 689 183 l 811 204 q 690 50 768 108 q 501 -15 611 -8 l 488 -85 l 492 -89 q 546 -81 518 -81 q 613 -104 586 -81 q 640 -172 640 -128 q 628 -224 640 -201 q 594 -260 615 -246 q 544 -281 572 -274 q 486 -287 517 -287 q 397 -269 429 -287 q 349 -231 364 -250 l 401 -174 q 435 -201 414 -189 q 486 -212 456 -212 q 530 -202 513 -212 q 547 -169 547 -192 q 529 -135 547 -150 q 453 -112 511 -121 l 414 -107 l 432 -15 q 173 122 265 -3 q 81 479 81 247 q 183 855 81 724 q 471 986 286 986 q 676 931 593 986 q 804 774 758 875 l 710 717 q 621 837 681 792 q 471 882 561 882 z "},"Ĉ":{"ha":863,"x_min":81,"x_max":811,"o":"m 471 -17 q 183 109 286 -17 q 81 479 81 235 q 183 855 81 724 q 471 986 286 986 q 676 931 593 986 q 804 774 758 875 l 710 717 q 621 837 681 792 q 471 882 561 882 q 359 858 408 882 q 276 791 310 835 q 224 687 242 747 q 206 551 206 626 l 206 407 q 275 172 206 257 q 471 88 344 88 q 626 135 564 88 q 718 263 689 183 l 811 204 q 679 42 765 101 q 471 -17 593 -17 m 539 1299 l 693 1100 l 632 1057 l 469 1219 l 307 1057 l 246 1100 l 400 1299 l 539 1299 z "},"Ċ":{"ha":863,"x_min":81,"x_max":811,"o":"m 471 -17 q 183 109 286 -17 q 81 479 81 235 q 183 855 81 724 q 471 986 286 986 q 676 931 593 986 q 804 774 758 875 l 710 717 q 621 837 681 792 q 471 882 561 882 q 359 858 408 882 q 276 791 310 835 q 224 687 242 747 q 206 551 206 626 l 206 407 q 275 172 206 257 q 471 88 344 88 q 626 135 564 88 q 718 263 689 183 l 811 204 q 679 42 765 101 q 471 -17 593 -17 m 469 1083 q 410 1103 429 1083 q 392 1157 392 1124 l 392 1176 q 410 1230 392 1210 q 469 1250 429 1250 q 528 1230 510 1250 q 547 1176 547 1210 l 547 1157 q 528 1103 547 1124 q 469 1083 510 1083 z "},"Ď":{"ha":932,"x_min":129,"x_max":851,"o":"m 129 969 l 454 969 q 618 939 544 969 q 744 848 692 908 q 824 697 796 788 q 851 485 851 606 q 824 273 851 364 q 744 122 796 182 q 618 31 692 61 q 454 0 544 0 l 129 0 l 129 969 m 454 103 q 564 123 514 103 q 650 182 614 143 q 706 277 686 221 q 726 406 726 333 l 726 564 q 706 692 726 636 q 650 788 686 749 q 564 847 614 826 q 454 867 514 867 l 246 867 l 246 103 l 454 103 m 357 1068 l 203 1267 l 264 1310 l 426 1147 l 589 1310 l 650 1267 l 496 1068 l 357 1068 z "},"Đ":{"ha":936,"x_min":24,"x_max":856,"o":"m 133 468 l 24 468 l 24 557 l 133 557 l 133 969 l 458 969 q 622 939 549 969 q 748 848 696 908 q 828 697 800 788 q 856 485 856 606 q 828 273 856 364 q 748 122 800 182 q 622 31 696 61 q 458 0 549 0 l 133 0 l 133 468 m 458 103 q 568 123 518 103 q 654 182 618 143 q 710 277 690 221 q 731 406 731 333 l 731 564 q 710 692 731 636 q 654 788 690 749 q 568 847 618 826 q 458 867 518 867 l 250 867 l 250 557 l 440 557 l 440 468 l 250 468 l 250 103 l 458 103 z "},"Ð":{"ha":936,"x_min":24,"x_max":856,"o":"m 133 468 l 24 468 l 24 557 l 133 557 l 133 969 l 458 969 q 622 939 549 969 q 748 848 696 908 q 828 697 800 788 q 856 485 856 606 q 828 273 856 364 q 748 122 800 182 q 622 31 696 61 q 458 0 549 0 l 133 0 l 133 468 m 458 103 q 568 123 518 103 q 654 182 618 143 q 710 277 690 221 q 731 406 731 333 l 731 564 q 710 692 731 636 q 654 788 690 749 q 568 847 618 826 q 458 867 518 867 l 250 867 l 250 557 l 440 557 l 440 468 l 250 468 l 250 103 l 458 103 z "},"É":{"ha":810,"x_min":129,"x_max":721,"o":"m 129 0 l 129 969 l 721 969 l 721 867 l 246 867 l 246 542 l 693 542 l 693 439 l 246 439 l 246 103 l 721 103 l 721 0 l 129 0 m 432 1049 l 360 1082 l 478 1318 l 579 1269 l 432 1049 z "},"Ĕ":{"ha":810,"x_min":129,"x_max":721,"o":"m 129 0 l 129 969 l 721 969 l 721 867 l 246 867 l 246 542 l 693 542 l 693 439 l 246 439 l 246 103 l 721 103 l 721 0 l 129 0 m 422 1064 q 330 1081 367 1064 q 270 1122 293 1097 q 234 1178 247 1147 q 211 1238 221 1208 l 274 1268 l 303 1222 q 345 1172 321 1192 q 422 1151 369 1151 q 467 1157 449 1151 q 499 1172 486 1163 q 522 1194 513 1181 q 542 1222 532 1207 l 571 1268 l 633 1238 q 610 1178 624 1208 q 574 1122 597 1147 q 515 1081 551 1097 q 422 1064 478 1064 z "},"Ě":{"ha":810,"x_min":129,"x_max":721,"o":"m 129 0 l 129 969 l 721 969 l 721 867 l 246 867 l 246 542 l 693 542 l 693 439 l 246 439 l 246 103 l 721 103 l 721 0 l 129 0 m 353 1068 l 199 1267 l 260 1310 l 422 1147 l 585 1310 l 646 1267 l 492 1068 l 353 1068 z "},"Ê":{"ha":810,"x_min":129,"x_max":721,"o":"m 129 0 l 129 969 l 721 969 l 721 867 l 246 867 l 246 542 l 693 542 l 693 439 l 246 439 l 246 103 l 721 103 l 721 0 l 129 0 m 492 1299 l 646 1100 l 585 1057 l 422 1219 l 260 1057 l 199 1100 l 353 1299 l 492 1299 z "},"Ë":{"ha":810,"x_min":129,"x_max":721,"o":"m 129 0 l 129 969 l 721 969 l 721 867 l 246 867 l 246 542 l 693 542 l 693 439 l 246 439 l 246 103 l 721 103 l 721 0 l 129 0 m 293 1094 q 240 1113 257 1094 q 224 1160 224 1131 l 224 1176 q 240 1224 224 1206 q 293 1242 257 1242 q 346 1224 329 1242 q 363 1176 363 1206 l 363 1160 q 346 1113 363 1131 q 293 1094 329 1094 m 551 1094 q 499 1113 515 1094 q 482 1160 482 1131 l 482 1176 q 499 1224 482 1206 q 551 1242 515 1242 q 604 1224 588 1242 q 621 1176 621 1206 l 621 1160 q 604 1113 621 1131 q 551 1094 588 1094 z "},"Ė":{"ha":810,"x_min":129,"x_max":721,"o":"m 129 0 l 129 969 l 721 969 l 721 867 l 246 867 l 246 542 l 693 542 l 693 439 l 246 439 l 246 103 l 721 103 l 721 0 l 129 0 m 422 1083 q 363 1103 382 1083 q 344 1157 344 1124 l 344 1176 q 363 1230 344 1210 q 422 1250 382 1250 q 481 1230 463 1250 q 500 1176 500 1210 l 500 1157 q 481 1103 500 1124 q 422 1083 463 1083 z "},"Ẹ":{"ha":810,"x_min":129,"x_max":721,"o":"m 129 0 l 129 969 l 721 969 l 721 867 l 246 867 l 246 542 l 693 542 l 693 439 l 246 439 l 246 103 l 721 103 l 721 0 l 129 0 m 422 -235 q 369 -217 386 -235 q 351 -171 351 -200 l 351 -156 q 369 -109 351 -126 q 422 -92 386 -92 q 476 -109 458 -92 q 493 -156 493 -126 l 493 -171 q 476 -217 493 -200 q 422 -235 458 -235 z "},"È":{"ha":810,"x_min":129,"x_max":721,"o":"m 129 0 l 129 969 l 721 969 l 721 867 l 246 867 l 246 542 l 693 542 l 693 439 l 246 439 l 246 103 l 721 103 l 721 0 l 129 0 m 265 1269 l 367 1318 l 485 1082 l 413 1049 l 265 1269 z "},"Ẻ":{"ha":810,"x_min":129,"x_max":721,"o":"m 129 0 l 129 969 l 721 969 l 721 867 l 246 867 l 246 542 l 693 542 l 693 439 l 246 439 l 246 103 l 721 103 l 721 0 l 129 0 m 306 1299 l 457 1299 q 532 1276 510 1299 q 554 1222 554 1254 q 536 1156 554 1192 q 486 1079 518 1119 l 453 1038 l 389 1069 l 469 1214 l 306 1214 l 306 1299 z "},"Ē":{"ha":810,"x_min":129,"x_max":721,"o":"m 129 0 l 129 969 l 721 969 l 721 867 l 246 867 l 246 542 l 693 542 l 693 439 l 246 439 l 246 103 l 721 103 l 721 0 l 129 0 m 228 1215 l 617 1215 l 617 1121 l 228 1121 l 228 1215 z "},"Ę":{"ha":810,"x_min":129,"x_max":750,"o":"m 129 969 l 721 969 l 721 867 l 246 867 l 246 542 l 693 542 l 693 439 l 246 439 l 246 103 l 721 103 l 721 0 q 650 -68 676 -40 q 609 -115 624 -96 q 590 -147 594 -133 q 585 -171 585 -160 q 597 -203 585 -194 q 628 -212 608 -212 q 694 -179 668 -212 l 750 -233 q 707 -272 738 -256 q 628 -287 676 -287 q 535 -262 574 -287 q 496 -182 496 -237 q 537 -87 496 -129 q 636 -7 578 -46 l 635 0 l 129 0 l 129 969 z "},"Ẽ":{"ha":810,"x_min":129,"x_max":721,"o":"m 129 0 l 129 969 l 721 969 l 721 867 l 246 867 l 246 542 l 693 542 l 693 439 l 246 439 l 246 103 l 721 103 l 721 0 l 129 0 m 524 1086 q 461 1099 488 1086 q 413 1122 435 1111 q 356 1148 379 1140 q 315 1156 333 1156 q 274 1146 292 1156 q 235 1118 256 1136 l 189 1174 q 240 1224 208 1201 q 321 1247 272 1247 q 383 1235 357 1247 q 432 1211 410 1222 q 488 1185 465 1193 q 529 1178 511 1178 q 571 1188 553 1178 q 610 1215 589 1197 l 656 1160 q 604 1109 636 1132 q 524 1086 572 1086 z "},"Ế":{"ha":810,"x_min":129,"x_max":783,"o":"m 129 0 l 129 969 l 721 969 l 721 867 l 246 867 l 246 542 l 693 542 l 693 439 l 246 439 l 246 103 l 721 103 l 721 0 l 129 0 m 636 1206 l 568 1238 l 686 1474 l 783 1426 l 636 1206 m 492 1271 l 644 1085 l 588 1043 l 422 1199 l 257 1043 l 200 1085 l 353 1271 l 492 1271 z "},"Ệ":{"ha":810,"x_min":129,"x_max":721,"o":"m 129 0 l 129 969 l 721 969 l 721 867 l 246 867 l 246 542 l 693 542 l 693 439 l 246 439 l 246 103 l 721 103 l 721 0 l 129 0 m 492 1299 l 646 1100 l 585 1057 l 422 1219 l 260 1057 l 199 1100 l 353 1299 l 492 1299 m 422 -235 q 369 -217 386 -235 q 351 -171 351 -200 l 351 -156 q 369 -109 351 -126 q 422 -92 386 -92 q 476 -109 458 -92 q 493 -156 493 -126 l 493 -171 q 476 -217 493 -200 q 422 -235 458 -235 z "},"Ề":{"ha":810,"x_min":61,"x_max":721,"o":"m 129 0 l 129 969 l 721 969 l 721 867 l 246 867 l 246 542 l 693 542 l 693 439 l 246 439 l 246 103 l 721 103 l 721 0 l 129 0 m 61 1426 l 158 1474 l 276 1238 l 208 1206 l 61 1426 m 492 1271 l 644 1085 l 588 1043 l 422 1199 l 257 1043 l 200 1085 l 353 1271 l 492 1271 z "},"Ể":{"ha":810,"x_min":129,"x_max":740,"o":"m 129 0 l 129 969 l 721 969 l 721 867 l 246 867 l 246 542 l 693 542 l 693 439 l 246 439 l 246 103 l 721 103 l 721 0 l 129 0 m 492 1458 l 643 1458 q 718 1436 696 1458 q 740 1382 740 1414 q 722 1315 740 1351 q 672 1239 704 1279 l 639 1197 l 578 1229 l 661 1378 l 492 1378 l 492 1458 m 492 1271 l 644 1085 l 588 1043 l 422 1199 l 257 1043 l 200 1085 l 353 1271 l 492 1271 z "},"Ễ":{"ha":810,"x_min":129,"x_max":721,"o":"m 129 0 l 129 969 l 721 969 l 721 867 l 246 867 l 246 542 l 693 542 l 693 439 l 246 439 l 246 103 l 721 103 l 721 0 l 129 0 m 322 1464 q 385 1451 358 1464 q 433 1428 411 1439 q 490 1402 467 1410 q 531 1394 513 1394 q 572 1404 554 1394 q 611 1432 590 1414 l 654 1382 q 603 1331 635 1354 q 522 1308 571 1308 q 460 1321 486 1308 q 411 1344 433 1333 q 355 1370 378 1363 q 314 1378 332 1378 q 272 1368 290 1378 q 233 1340 254 1358 l 190 1390 q 242 1441 210 1418 q 322 1464 274 1464 m 492 1271 l 644 1085 l 588 1043 l 422 1199 l 257 1043 l 200 1085 l 353 1271 l 492 1271 z "},"Ə":{"ha":983,"x_min":81,"x_max":903,"o":"m 81 515 l 779 515 l 779 557 q 759 694 779 633 q 702 796 739 754 q 614 860 665 838 q 499 882 563 882 q 331 831 404 882 q 221 692 257 779 l 124 739 q 181 837 144 792 q 265 915 217 882 q 373 967 314 949 q 500 986 432 986 q 672 951 597 986 q 799 852 747 917 q 876 694 850 788 q 903 485 903 601 q 874 274 903 367 q 792 116 846 181 q 663 17 739 51 q 490 -17 586 -17 q 190 109 299 -17 q 81 485 81 235 l 81 515 m 490 88 q 603 110 550 88 q 695 176 656 133 q 757 279 735 219 q 779 413 779 339 l 779 419 l 201 419 l 201 413 q 224 279 201 339 q 285 176 246 219 q 377 110 325 133 q 490 88 429 88 z "},"Ğ":{"ha":965,"x_min":81,"x_max":865,"o":"m 757 142 l 753 142 q 665 28 735 74 q 483 -17 594 -17 q 320 16 394 -17 q 193 112 246 49 q 110 269 140 175 q 81 485 81 363 q 110 699 81 606 q 193 856 139 793 q 324 953 247 919 q 493 986 400 986 q 711 928 624 986 q 846 774 799 869 l 750 715 q 651 838 717 793 q 493 882 585 882 q 376 859 429 882 q 285 794 324 836 q 226 694 247 753 q 206 564 206 636 l 206 407 q 226 276 206 335 q 285 175 247 217 q 379 110 324 133 q 504 88 435 88 q 599 101 554 88 q 678 140 644 114 q 732 206 713 167 q 751 300 751 246 l 751 396 l 538 396 l 538 499 l 865 499 l 865 0 l 757 0 l 757 142 m 493 1064 q 401 1081 438 1064 q 341 1122 364 1097 q 305 1178 318 1147 q 282 1238 292 1208 l 344 1268 l 374 1222 q 416 1172 392 1192 q 493 1151 440 1151 q 538 1157 519 1151 q 570 1172 557 1163 q 593 1194 583 1181 q 613 1222 603 1207 l 642 1268 l 704 1238 q 681 1178 694 1208 q 645 1122 668 1147 q 585 1081 622 1097 q 493 1064 549 1064 z "},"Ĝ":{"ha":965,"x_min":81,"x_max":865,"o":"m 757 142 l 753 142 q 665 28 735 74 q 483 -17 594 -17 q 320 16 394 -17 q 193 112 246 49 q 110 269 140 175 q 81 485 81 363 q 110 699 81 606 q 193 856 139 793 q 324 953 247 919 q 493 986 400 986 q 711 928 624 986 q 846 774 799 869 l 750 715 q 651 838 717 793 q 493 882 585 882 q 376 859 429 882 q 285 794 324 836 q 226 694 247 753 q 206 564 206 636 l 206 407 q 226 276 206 335 q 285 175 247 217 q 379 110 324 133 q 504 88 435 88 q 599 101 554 88 q 678 140 644 114 q 732 206 713 167 q 751 300 751 246 l 751 396 l 538 396 l 538 499 l 865 499 l 865 0 l 757 0 l 757 142 m 563 1299 l 717 1100 l 656 1057 l 493 1219 l 331 1057 l 269 1100 l 424 1299 l 563 1299 z "},"Ģ":{"ha":965,"x_min":81,"x_max":865,"o":"m 757 142 l 753 142 q 665 28 735 74 q 483 -17 594 -17 q 320 16 394 -17 q 193 112 246 49 q 110 269 140 175 q 81 485 81 363 q 110 699 81 606 q 193 856 139 793 q 324 953 247 919 q 493 986 400 986 q 711 928 624 986 q 846 774 799 869 l 750 715 q 651 838 717 793 q 493 882 585 882 q 376 859 429 882 q 285 794 324 836 q 226 694 247 753 q 206 564 206 636 l 206 407 q 226 276 206 335 q 285 175 247 217 q 379 110 324 133 q 504 88 435 88 q 599 101 554 88 q 678 140 644 114 q 732 206 713 167 q 751 300 751 246 l 751 396 l 538 396 l 538 499 l 865 499 l 865 0 l 757 0 l 757 142 m 483 -92 q 536 -109 518 -92 q 554 -157 554 -126 l 554 -172 q 529 -265 554 -221 q 471 -340 504 -308 l 390 -340 q 435 -287 418 -311 q 461 -232 451 -264 q 425 -210 438 -226 q 413 -171 413 -194 l 413 -157 q 431 -109 413 -126 q 483 -92 449 -92 z "},"Ġ":{"ha":965,"x_min":81,"x_max":865,"o":"m 757 142 l 753 142 q 665 28 735 74 q 483 -17 594 -17 q 320 16 394 -17 q 193 112 246 49 q 110 269 140 175 q 81 485 81 363 q 110 699 81 606 q 193 856 139 793 q 324 953 247 919 q 493 986 400 986 q 711 928 624 986 q 846 774 799 869 l 750 715 q 651 838 717 793 q 493 882 585 882 q 376 859 429 882 q 285 794 324 836 q 226 694 247 753 q 206 564 206 636 l 206 407 q 226 276 206 335 q 285 175 247 217 q 379 110 324 133 q 504 88 435 88 q 599 101 554 88 q 678 140 644 114 q 732 206 713 167 q 751 300 751 246 l 751 396 l 538 396 l 538 499 l 865 499 l 865 0 l 757 0 l 757 142 m 493 1083 q 434 1103 453 1083 q 415 1157 415 1124 l 415 1176 q 434 1230 415 1210 q 493 1250 453 1250 q 552 1230 533 1250 q 571 1176 571 1210 l 571 1157 q 552 1103 571 1124 q 493 1083 533 1083 z "},"Ħ":{"ha":990,"x_min":38,"x_max":953,"o":"m 740 439 l 250 439 l 250 0 l 133 0 l 133 719 l 38 719 l 38 808 l 133 808 l 133 969 l 250 969 l 250 808 l 740 808 l 740 969 l 857 969 l 857 808 l 953 808 l 953 719 l 857 719 l 857 0 l 740 0 l 740 439 m 740 542 l 740 719 l 250 719 l 250 542 l 740 542 z "},"Ĥ":{"ha":982,"x_min":129,"x_max":853,"o":"m 736 439 l 246 439 l 246 0 l 129 0 l 129 969 l 246 969 l 246 542 l 736 542 l 736 969 l 853 969 l 853 0 l 736 0 l 736 439 m 561 1299 l 715 1100 l 654 1057 l 492 1219 l 329 1057 l 268 1100 l 422 1299 l 561 1299 z "},"Í":{"ha":556,"x_min":83,"x_max":472,"o":"m 83 0 l 83 97 l 219 97 l 219 872 l 83 872 l 83 969 l 472 969 l 472 872 l 336 872 l 336 97 l 472 97 l 472 0 l 83 0 m 289 1049 l 217 1082 l 335 1318 l 436 1269 l 289 1049 z "},"Ĭ":{"ha":556,"x_min":68,"x_max":490,"o":"m 83 0 l 83 97 l 219 97 l 219 872 l 83 872 l 83 969 l 472 969 l 472 872 l 336 872 l 336 97 l 472 97 l 472 0 l 83 0 m 279 1064 q 187 1081 224 1064 q 127 1122 150 1097 q 91 1178 104 1147 q 68 1238 78 1208 l 131 1268 l 160 1222 q 202 1172 178 1192 q 279 1151 226 1151 q 324 1157 306 1151 q 356 1172 343 1163 q 379 1194 369 1181 q 399 1222 389 1207 l 428 1268 l 490 1238 q 467 1178 481 1208 q 431 1122 454 1147 q 372 1081 408 1097 q 279 1064 335 1064 z "},"Î":{"ha":556,"x_min":56,"x_max":503,"o":"m 83 0 l 83 97 l 219 97 l 219 872 l 83 872 l 83 969 l 472 969 l 472 872 l 336 872 l 336 97 l 472 97 l 472 0 l 83 0 m 349 1299 l 503 1100 l 442 1057 l 279 1219 l 117 1057 l 56 1100 l 210 1299 l 349 1299 z "},"Ï":{"ha":556,"x_min":81,"x_max":478,"o":"m 83 0 l 83 97 l 219 97 l 219 872 l 83 872 l 83 969 l 472 969 l 472 872 l 336 872 l 336 97 l 472 97 l 472 0 l 83 0 m 150 1094 q 97 1113 114 1094 q 81 1160 81 1131 l 81 1176 q 97 1224 81 1206 q 150 1242 114 1242 q 203 1224 186 1242 q 219 1176 219 1206 l 219 1160 q 203 1113 219 1131 q 150 1094 186 1094 m 408 1094 q 356 1113 372 1094 q 339 1160 339 1131 l 339 1176 q 356 1224 339 1206 q 408 1242 372 1242 q 461 1224 444 1242 q 478 1176 478 1206 l 478 1160 q 461 1113 478 1131 q 408 1094 444 1094 z "},"İ":{"ha":556,"x_min":83,"x_max":472,"o":"m 83 0 l 83 97 l 219 97 l 219 872 l 83 872 l 83 969 l 472 969 l 472 872 l 336 872 l 336 97 l 472 97 l 472 0 l 83 0 m 279 1083 q 220 1103 239 1083 q 201 1157 201 1124 l 201 1176 q 220 1230 201 1210 q 279 1250 239 1250 q 338 1230 319 1250 q 357 1176 357 1210 l 357 1157 q 338 1103 357 1124 q 279 1083 319 1083 z "},"Ị":{"ha":556,"x_min":83,"x_max":472,"o":"m 83 0 l 83 97 l 219 97 l 219 872 l 83 872 l 83 969 l 472 969 l 472 872 l 336 872 l 336 97 l 472 97 l 472 0 l 83 0 m 278 -235 q 224 -217 242 -235 q 207 -171 207 -200 l 207 -156 q 224 -109 207 -126 q 278 -92 242 -92 q 331 -109 314 -92 q 349 -156 349 -126 l 349 -171 q 331 -217 349 -200 q 278 -235 314 -235 z "},"Ì":{"ha":556,"x_min":83,"x_max":472,"o":"m 83 0 l 83 97 l 219 97 l 219 872 l 83 872 l 83 969 l 472 969 l 472 872 l 336 872 l 336 97 l 472 97 l 472 0 l 83 0 m 122 1269 l 224 1318 l 342 1082 l 269 1049 l 122 1269 z "},"Ỉ":{"ha":556,"x_min":83,"x_max":472,"o":"m 83 0 l 83 97 l 219 97 l 219 872 l 83 872 l 83 969 l 472 969 l 472 872 l 336 872 l 336 97 l 472 97 l 472 0 l 83 0 m 161 1299 l 313 1299 q 388 1276 365 1299 q 410 1222 410 1254 q 392 1156 410 1192 q 342 1079 374 1119 l 308 1038 l 244 1069 l 325 1214 l 161 1214 l 161 1299 z "},"Ī":{"ha":556,"x_min":83,"x_max":474,"o":"m 83 0 l 83 97 l 219 97 l 219 872 l 83 872 l 83 969 l 472 969 l 472 872 l 336 872 l 336 97 l 472 97 l 472 0 l 83 0 m 85 1215 l 474 1215 l 474 1121 l 85 1121 l 85 1215 z "},"Į":{"ha":556,"x_min":83,"x_max":501,"o":"m 83 97 l 219 97 l 219 872 l 83 872 l 83 969 l 472 969 l 472 872 l 336 872 l 336 97 l 472 97 l 472 0 q 401 -68 428 -40 q 360 -115 375 -96 q 341 -147 346 -133 q 336 -171 336 -160 q 348 -203 336 -194 q 379 -212 360 -212 q 446 -179 419 -212 l 501 -233 q 458 -272 489 -256 q 379 -287 428 -287 q 286 -262 325 -287 q 247 -182 247 -237 q 284 -90 247 -129 q 388 -7 321 -51 l 386 0 l 83 0 l 83 97 z "},"Ĩ":{"ha":556,"x_min":46,"x_max":513,"o":"m 83 0 l 83 97 l 219 97 l 219 872 l 83 872 l 83 969 l 472 969 l 472 872 l 336 872 l 336 97 l 472 97 l 472 0 l 83 0 m 381 1086 q 318 1099 344 1086 q 269 1122 292 1111 q 213 1148 236 1140 q 172 1156 190 1156 q 131 1146 149 1156 q 92 1118 113 1136 l 46 1174 q 97 1224 65 1201 q 178 1247 129 1247 q 240 1235 214 1247 q 289 1211 267 1222 q 345 1185 322 1193 q 386 1178 368 1178 q 428 1188 410 1178 q 467 1215 446 1197 l 513 1160 q 461 1109 493 1132 q 381 1086 429 1086 z "},"Ĳ":{"ha":896,"x_min":122,"x_max":774,"o":"m 774 969 l 774 313 q 687 71 774 158 q 444 -17 600 -17 q 321 1 375 -17 q 228 49 267 18 q 164 122 189 81 q 129 214 139 164 l 235 239 q 259 179 243 207 q 301 131 275 151 q 363 99 326 111 q 449 88 400 88 q 601 136 546 88 q 657 289 657 185 l 657 865 l 446 865 l 446 969 l 774 969 m 122 969 l 239 969 l 239 403 l 122 403 l 122 969 z "},"Ĵ":{"ha":708,"x_min":39,"x_max":590,"o":"m 586 969 l 586 251 q 566 140 586 190 q 509 56 546 90 q 421 2 472 21 q 308 -17 369 -17 q 127 44 196 -17 q 39 204 58 104 l 144 229 q 197 127 158 167 q 311 88 236 88 q 428 133 386 88 q 469 272 469 179 l 469 867 l 136 867 l 136 969 l 586 969 m 436 1299 l 590 1100 l 529 1057 l 367 1219 l 204 1057 l 143 1100 l 297 1299 l 436 1299 z "},"Ķ":{"ha":881,"x_min":129,"x_max":850,"o":"m 383 476 l 246 324 l 246 0 l 129 0 l 129 969 l 246 969 l 246 454 l 250 454 l 389 622 l 682 969 l 825 969 l 464 554 l 850 0 l 706 0 l 383 476 m 467 -92 q 519 -109 501 -92 q 538 -157 538 -126 l 538 -172 q 513 -265 538 -221 q 454 -340 488 -308 l 374 -340 q 418 -287 401 -311 q 444 -232 435 -264 q 408 -210 421 -226 q 396 -171 396 -194 l 396 -157 q 414 -109 396 -126 q 467 -92 432 -92 z "},"Ĺ":{"ha":696,"x_min":126,"x_max":658,"o":"m 129 0 l 129 969 l 246 969 l 246 103 l 658 103 l 658 0 l 129 0 m 199 1049 l 126 1082 l 244 1318 l 346 1269 l 199 1049 z "},"Ľ":{"ha":696,"x_min":129,"x_max":658,"o":"m 129 0 l 129 969 l 246 969 l 246 103 l 658 103 l 658 0 l 129 0 m 429 771 l 356 771 l 372 1028 l 501 1028 l 429 771 z "},"Ļ":{"ha":696,"x_min":129,"x_max":658,"o":"m 129 0 l 129 969 l 246 969 l 246 103 l 658 103 l 658 0 l 129 0 m 414 -92 q 467 -109 449 -92 q 485 -157 485 -126 l 485 -172 q 460 -265 485 -221 q 401 -340 435 -308 l 321 -340 q 365 -287 349 -311 q 392 -232 382 -264 q 356 -210 368 -226 q 343 -171 343 -194 l 343 -157 q 361 -109 343 -126 q 414 -92 379 -92 z "},"Ŀ":{"ha":696,"x_min":129,"x_max":658,"o":"m 129 0 l 129 969 l 246 969 l 246 103 l 658 103 l 658 0 l 129 0 m 535 407 q 481 424 499 407 q 464 471 464 442 l 464 486 q 481 533 464 515 q 535 550 499 550 q 588 533 571 550 q 606 486 606 515 l 606 471 q 588 424 606 442 q 535 407 571 407 z "},"Ł":{"ha":706,"x_min":-10,"x_max":663,"o":"m 663 0 l 133 0 l 133 376 l -10 329 l -10 422 l 133 471 l 133 969 l 250 969 l 250 510 l 501 594 l 501 496 l 250 414 l 250 104 l 663 104 l 663 0 z "},"Ń":{"ha":982,"x_min":129,"x_max":853,"o":"m 364 592 l 247 807 l 243 807 l 243 0 l 129 0 l 129 969 l 264 969 l 618 378 l 735 163 l 739 163 l 739 969 l 853 969 l 853 0 l 718 0 l 364 592 m 500 1049 l 428 1082 l 546 1318 l 647 1269 l 500 1049 z "},"Ň":{"ha":982,"x_min":129,"x_max":853,"o":"m 364 592 l 247 807 l 243 807 l 243 0 l 129 0 l 129 969 l 264 969 l 618 378 l 735 163 l 739 163 l 739 969 l 853 969 l 853 0 l 718 0 l 364 592 m 421 1068 l 267 1267 l 328 1310 l 490 1147 l 653 1310 l 714 1267 l 560 1068 l 421 1068 z "},"Ņ":{"ha":982,"x_min":129,"x_max":853,"o":"m 364 592 l 247 807 l 243 807 l 243 0 l 129 0 l 129 969 l 264 969 l 618 378 l 735 163 l 739 163 l 739 969 l 853 969 l 853 0 l 718 0 l 364 592 m 490 -92 q 543 -109 525 -92 q 561 -157 561 -126 l 561 -172 q 536 -265 561 -221 q 478 -340 511 -308 l 397 -340 q 442 -287 425 -311 q 468 -232 458 -264 q 432 -210 444 -226 q 419 -171 419 -194 l 419 -157 q 438 -109 419 -126 q 490 -92 456 -92 z "},"Ñ":{"ha":982,"x_min":129,"x_max":853,"o":"m 364 592 l 247 807 l 243 807 l 243 0 l 129 0 l 129 969 l 264 969 l 618 378 l 735 163 l 739 163 l 739 969 l 853 969 l 853 0 l 718 0 l 364 592 m 592 1086 q 529 1099 556 1086 q 481 1122 503 1111 q 424 1148 447 1140 q 383 1156 401 1156 q 342 1146 360 1156 q 303 1118 324 1136 l 257 1174 q 308 1224 276 1201 q 389 1247 340 1247 q 451 1235 425 1247 q 500 1211 478 1222 q 556 1185 533 1193 q 597 1178 579 1178 q 639 1188 621 1178 q 678 1215 657 1197 l 724 1160 q 672 1109 704 1132 q 592 1086 640 1086 z "},"Ŋ":{"ha":982,"x_min":129,"x_max":853,"o":"m 129 0 l 129 969 l 264 969 l 618 378 l 735 163 l 739 163 l 739 969 l 853 969 l 853 -104 q 814 -230 853 -182 q 694 -278 775 -278 l 619 -278 l 619 -175 l 739 -175 l 739 0 l 718 0 l 364 592 l 247 807 l 243 807 l 243 0 l 129 0 z "},"Ó":{"ha":983,"x_min":81,"x_max":903,"o":"m 492 -17 q 322 16 397 -17 q 192 112 246 49 q 110 269 139 175 q 81 485 81 363 q 110 700 81 607 q 192 857 139 793 q 322 953 246 921 q 492 986 397 986 q 661 953 585 986 q 791 857 738 921 q 874 700 844 793 q 903 485 903 607 q 874 269 903 363 q 791 112 844 175 q 661 16 738 49 q 492 -17 585 -17 m 492 88 q 607 110 554 88 q 698 174 660 132 q 757 274 736 215 q 778 404 778 332 l 778 565 q 757 696 778 638 q 698 796 736 754 q 607 860 660 838 q 492 882 554 882 q 376 860 429 882 q 285 796 324 838 q 226 696 247 754 q 206 565 206 638 l 206 404 q 226 274 206 332 q 285 174 247 215 q 376 110 324 132 q 492 88 429 88 m 501 1049 l 429 1082 l 547 1318 l 649 1269 l 501 1049 z "},"Ŏ":{"ha":983,"x_min":81,"x_max":903,"o":"m 492 -17 q 322 16 397 -17 q 192 112 246 49 q 110 269 139 175 q 81 485 81 363 q 110 700 81 607 q 192 857 139 793 q 322 953 246 921 q 492 986 397 986 q 661 953 585 986 q 791 857 738 921 q 874 700 844 793 q 903 485 903 607 q 874 269 903 363 q 791 112 844 175 q 661 16 738 49 q 492 -17 585 -17 m 492 88 q 607 110 554 88 q 698 174 660 132 q 757 274 736 215 q 778 404 778 332 l 778 565 q 757 696 778 638 q 698 796 736 754 q 607 860 660 838 q 492 882 554 882 q 376 860 429 882 q 285 796 324 838 q 226 696 247 754 q 206 565 206 638 l 206 404 q 226 274 206 332 q 285 174 247 215 q 376 110 324 132 q 492 88 429 88 m 492 1064 q 399 1081 436 1064 q 340 1122 363 1097 q 303 1178 317 1147 q 281 1238 290 1208 l 343 1268 l 372 1222 q 415 1172 390 1192 q 492 1151 439 1151 q 537 1157 518 1151 q 569 1172 556 1163 q 592 1194 582 1181 q 611 1222 601 1207 l 640 1268 l 703 1238 q 680 1178 693 1208 q 644 1122 667 1147 q 584 1081 621 1097 q 492 1064 547 1064 z "},"Ô":{"ha":983,"x_min":81,"x_max":903,"o":"m 492 -17 q 322 16 397 -17 q 192 112 246 49 q 110 269 139 175 q 81 485 81 363 q 110 700 81 607 q 192 857 139 793 q 322 953 246 921 q 492 986 397 986 q 661 953 585 986 q 791 857 738 921 q 874 700 844 793 q 903 485 903 607 q 874 269 903 363 q 791 112 844 175 q 661 16 738 49 q 492 -17 585 -17 m 492 88 q 607 110 554 88 q 698 174 660 132 q 757 274 736 215 q 778 404 778 332 l 778 565 q 757 696 778 638 q 698 796 736 754 q 607 860 660 838 q 492 882 554 882 q 376 860 429 882 q 285 796 324 838 q 226 696 247 754 q 206 565 206 638 l 206 404 q 226 274 206 332 q 285 174 247 215 q 376 110 324 132 q 492 88 429 88 m 561 1299 l 715 1100 l 654 1057 l 492 1219 l 329 1057 l 268 1100 l 422 1299 l 561 1299 z "},"Ö":{"ha":983,"x_min":81,"x_max":903,"o":"m 492 -17 q 322 16 397 -17 q 192 112 246 49 q 110 269 139 175 q 81 485 81 363 q 110 700 81 607 q 192 857 139 793 q 322 953 246 921 q 492 986 397 986 q 661 953 585 986 q 791 857 738 921 q 874 700 844 793 q 903 485 903 607 q 874 269 903 363 q 791 112 844 175 q 661 16 738 49 q 492 -17 585 -17 m 492 88 q 607 110 554 88 q 698 174 660 132 q 757 274 736 215 q 778 404 778 332 l 778 565 q 757 696 778 638 q 698 796 736 754 q 607 860 660 838 q 492 882 554 882 q 376 860 429 882 q 285 796 324 838 q 226 696 247 754 q 206 565 206 638 l 206 404 q 226 274 206 332 q 285 174 247 215 q 376 110 324 132 q 492 88 429 88 m 363 1094 q 310 1113 326 1094 q 293 1160 293 1131 l 293 1176 q 310 1224 293 1206 q 363 1242 326 1242 q 415 1224 399 1242 q 432 1176 432 1206 l 432 1160 q 415 1113 432 1131 q 363 1094 399 1094 m 621 1094 q 568 1113 585 1094 q 551 1160 551 1131 l 551 1176 q 568 1224 551 1206 q 621 1242 585 1242 q 674 1224 657 1242 q 690 1176 690 1206 l 690 1160 q 674 1113 690 1131 q 621 1094 657 1094 z "},"Ọ":{"ha":983,"x_min":81,"x_max":903,"o":"m 492 -17 q 322 16 397 -17 q 192 112 246 49 q 110 269 139 175 q 81 485 81 363 q 110 700 81 607 q 192 857 139 793 q 322 953 246 921 q 492 986 397 986 q 661 953 585 986 q 791 857 738 921 q 874 700 844 793 q 903 485 903 607 q 874 269 903 363 q 791 112 844 175 q 661 16 738 49 q 492 -17 585 -17 m 492 88 q 607 110 554 88 q 698 174 660 132 q 757 274 736 215 q 778 404 778 332 l 778 565 q 757 696 778 638 q 698 796 736 754 q 607 860 660 838 q 492 882 554 882 q 376 860 429 882 q 285 796 324 838 q 226 696 247 754 q 206 565 206 638 l 206 404 q 226 274 206 332 q 285 174 247 215 q 376 110 324 132 q 492 88 429 88 m 492 -235 q 438 -217 456 -235 q 421 -171 421 -200 l 421 -156 q 438 -109 421 -126 q 492 -92 456 -92 q 545 -109 528 -92 q 563 -156 563 -126 l 563 -171 q 545 -217 563 -200 q 492 -235 528 -235 z "},"Ò":{"ha":983,"x_min":81,"x_max":903,"o":"m 492 -17 q 322 16 397 -17 q 192 112 246 49 q 110 269 139 175 q 81 485 81 363 q 110 700 81 607 q 192 857 139 793 q 322 953 246 921 q 492 986 397 986 q 661 953 585 986 q 791 857 738 921 q 874 700 844 793 q 903 485 903 607 q 874 269 903 363 q 791 112 844 175 q 661 16 738 49 q 492 -17 585 -17 m 492 88 q 607 110 554 88 q 698 174 660 132 q 757 274 736 215 q 778 404 778 332 l 778 565 q 757 696 778 638 q 698 796 736 754 q 607 860 660 838 q 492 882 554 882 q 376 860 429 882 q 285 796 324 838 q 226 696 247 754 q 206 565 206 638 l 206 404 q 226 274 206 332 q 285 174 247 215 q 376 110 324 132 q 492 88 429 88 m 335 1269 l 436 1318 l 554 1082 l 482 1049 l 335 1269 z "},"Ỏ":{"ha":983,"x_min":81,"x_max":903,"o":"m 492 -17 q 322 16 397 -17 q 192 112 246 49 q 110 269 139 175 q 81 485 81 363 q 110 700 81 607 q 192 857 139 793 q 322 953 246 921 q 492 986 397 986 q 661 953 585 986 q 791 857 738 921 q 874 700 844 793 q 903 485 903 607 q 874 269 903 363 q 791 112 844 175 q 661 16 738 49 q 492 -17 585 -17 m 492 88 q 607 110 554 88 q 698 174 660 132 q 757 274 736 215 q 778 404 778 332 l 778 565 q 757 696 778 638 q 698 796 736 754 q 607 860 660 838 q 492 882 554 882 q 376 860 429 882 q 285 796 324 838 q 226 696 247 754 q 206 565 206 638 l 206 404 q 226 274 206 332 q 285 174 247 215 q 376 110 324 132 q 492 88 429 88 m 375 1299 l 526 1299 q 601 1276 579 1299 q 624 1222 624 1254 q 606 1156 624 1192 q 556 1079 588 1119 l 522 1038 l 458 1069 l 539 1214 l 375 1214 l 375 1299 z "}}}
